<svg width="346" height="347" viewBox="0 0 346 347" fill="none" xmlns="http://www.w3.org/2000/svg">
<path d="M311.331 276.675H288.412V276.848H311.331V276.675Z" fill="#EBEBEB"/>
<path d="M229.204 278.557H223.191V278.73H229.204V278.557Z" fill="#EBEBEB"/>
<path d="M287.72 270.253H274.44V270.426H287.72V270.253Z" fill="#EBEBEB"/>
<path d="M66.1898 271.416H36.3024V271.589H66.1898V271.416Z" fill="#EBEBEB"/>
<path d="M76.7358 271.416H72.3555V271.589H76.7358V271.416Z" fill="#EBEBEB"/>
<path d="M155.804 274.336H90.9773V274.509H155.804V274.336Z" fill="#EBEBEB"/>
<path d="M164.004 234.678H30.3857C29.3389 234.676 28.3357 234.259 27.5962 233.518C26.8566 232.777 26.4413 231.773 26.4413 230.726V42.8967C26.4504 41.8559 26.8698 40.8608 27.6083 40.1275C28.3468 39.3941 29.3449 38.9818 30.3857 38.98H164.004C165.052 38.98 166.057 39.3963 166.798 40.1373C167.539 40.8783 167.955 41.8833 167.955 42.9313V230.726C167.955 231.774 167.539 232.779 166.798 233.52C166.057 234.261 165.052 234.678 164.004 234.678ZM30.3857 39.1184C29.3848 39.1202 28.4256 39.5191 27.7185 40.2275C27.0114 40.9358 26.6143 41.8958 26.6143 42.8967V230.726C26.6143 231.727 27.0114 232.687 27.7185 233.395C28.4256 234.104 29.3848 234.503 30.3857 234.505H164.004C165.005 234.503 165.965 234.104 166.674 233.396C167.382 232.688 167.78 231.728 167.782 230.726V42.8967C167.78 41.8952 167.382 40.9352 166.674 40.227C165.965 39.5189 165.005 39.1202 164.004 39.1184H30.3857Z" fill="#EBEBEB"/>
<path d="M313.691 234.678H180.065C179.018 234.676 178.014 234.259 177.273 233.518C176.533 232.778 176.116 231.774 176.114 230.726V42.8967C176.125 41.8553 176.546 40.8602 177.285 40.127C178.025 39.3939 179.024 38.9817 180.065 38.98H313.691C314.73 38.9836 315.726 39.3967 316.463 40.1299C317.201 40.8631 317.619 41.8571 317.628 42.8967V230.726C317.628 231.772 317.214 232.775 316.476 233.515C315.738 234.256 314.736 234.674 313.691 234.678ZM180.065 39.1184C179.064 39.1202 178.104 39.5189 177.396 40.227C176.687 40.9352 176.289 41.8952 176.287 42.8967V230.726C176.289 231.728 176.687 232.688 177.396 233.396C178.104 234.104 179.064 234.503 180.065 234.505H313.691C314.692 234.503 315.652 234.104 316.36 233.396C317.068 232.688 317.467 231.728 317.469 230.726V42.8967C317.467 41.8952 317.068 40.9352 316.36 40.227C315.652 39.5189 314.692 39.1202 313.691 39.1184H180.065Z" fill="#EBEBEB"/>
<path d="M346 265.541H0V265.714H346V265.541Z" fill="#EBEBEB"/>
<path d="M48.9313 140.296H64.6466V111.128H48.9313V140.296Z" fill="#EBEBEB"/>
<path d="M53.3186 140.296H69.0339V111.128H53.3186V140.296Z" fill="#F5F5F5"/>
<path d="M71.0891 104.769H47.6442V111.128H71.0891V104.769Z" fill="#F5F5F5"/>
<path d="M51.2564 104.769H47.6442V111.128H51.2564V104.769Z" fill="#EBEBEB"/>
<path d="M34.7938 234.415H141.362V155.312H34.7938L34.7938 234.415Z" fill="#E6E6E6"/>
<path d="M87.1782 95.0249L147.465 155.312H26.8911L87.1782 95.0249Z" fill="#F5F5F5"/>
<path d="M26.8911 162.273L147.465 162.273V155.319L26.8911 155.319V162.273Z" fill="#E0E0E0"/>
<path d="M100.444 168.944H70.4525V198.936H100.444V168.944Z" fill="#E0E0E0"/>
<path d="M101.544 168.944H71.5529V198.936H101.544V168.944Z" fill="#F0F0F0"/>
<path d="M100.029 170.163H73.0129V197.178H100.029V170.163Z" fill="white"/>
<path d="M100.022 170.163H99.0736V197.178H100.022V170.163Z" fill="#E0E0E0"/>
<path d="M72.9299 184.501V185.449H99.1775V184.501H72.9299Z" fill="#E0E0E0"/>
<path d="M100.022 182.902H72.5009V184.501H100.022V182.902Z" fill="#F0F0F0"/>
<path d="M196.915 214.914L196.964 215.294L198.071 224.401L198.133 224.913L199.234 233.985L199.268 234.255H215.565H229.564H244.234L244.241 234.193L245.335 224.913L245.397 224.367L246.463 215.294L246.532 214.741L247.598 205.676L247.66 205.122L248.511 197.925L249.009 193.669H194.327L194.839 197.925L195.753 205.392L195.788 205.676L196.915 214.914Z" fill="#F0F0F0"/>
<path d="M222.132 173.048L191.193 193.669H253.071L222.132 173.048Z" fill="#E6E6E6"/>
<path d="M252.49 197.925H191.774L191.193 193.669H253.071L252.49 197.925Z" fill="#E0E0E0"/>
<path d="M231.128 216.956C231.128 226.512 230.554 230.664 229.578 234.256H215.565C214.589 230.657 214.015 226.505 214.015 216.956C213.982 215.812 214.179 214.674 214.594 213.608C215.009 212.543 215.634 211.571 216.431 210.751C217.228 209.931 218.182 209.279 219.235 208.834C220.289 208.389 221.421 208.159 222.564 208.159C223.708 208.159 224.84 208.389 225.894 208.834C226.947 209.279 227.901 209.931 228.698 210.751C229.495 211.571 230.12 212.543 230.535 213.608C230.95 214.674 231.147 215.812 231.114 216.956H231.128Z" fill="#E0E0E0"/>
<path d="M195.753 205.392V205.122H247.66L247.598 205.676H195.788L195.753 205.392Z" fill="#E0E0E0"/>
<path d="M196.916 214.914V214.741H214.305H230.824H246.532L246.463 215.295H230.948H214.181H196.964L196.916 214.914Z" fill="#E0E0E0"/>
<path d="M198.071 224.401V224.367H214.174H230.955H245.397L245.335 224.913H230.927H214.202H198.133L198.071 224.401Z" fill="#E0E0E0"/>
<path d="M244.241 233.985H199.227V234.539H244.241V233.985Z" fill="#E0E0E0"/>
<path d="M231.723 208.97L230.927 208.721C225.268 206.949 219.191 207.026 213.579 208.942L211.219 201.988C218.303 199.573 225.971 199.476 233.114 201.711L233.903 201.96L231.723 208.97Z" fill="#E0E0E0"/>
<path d="M231.723 207.828L230.927 207.586C225.269 205.808 219.191 205.883 213.579 207.801L211.219 200.846C218.303 198.43 225.973 198.335 233.114 200.576L233.903 200.818L231.723 207.828Z" fill="#FAFAFA"/>
<path d="M245.577 72.8882H260.448C260.974 72.8922 261.487 73.0458 261.929 73.331C266.579 77.8636 272.025 75.3378 274.447 73.8016C275.368 73.2103 276.439 72.8934 277.534 72.8882H294.1C300.328 72.8882 301.816 64.1897 295.948 62.1414L295.719 62.0653C302.217 56.6538 287.962 45.2497 272.489 61.0411C273.693 55.775 259.936 57.678 255.729 64.8679C254.234 60.1346 241.114 68.3348 245.577 72.8882Z" fill="#E6E6E6"/>
<path d="M37.4649 90.0497H45.672L46.364 90.3542C48.2056 91.1778 50.2085 91.5779 52.2252 91.5252C54.2419 91.4725 56.2212 90.9683 58.0173 90.0497H64.8889C64.8889 90.0497 71.3245 87.6277 70.4871 81.2129C69.6498 74.798 59.948 80.1472 59.948 80.1472C59.948 80.1472 62.8959 71.1927 53.4916 73.7323C50.84 74.4085 48.4468 75.8518 46.6115 77.8816C44.7763 79.9113 43.5805 82.4374 43.1739 85.1434C43.1739 85.1434 30.8217 82.9913 37.4649 90.0497Z" fill="#EBEBEB"/>
<path d="M298.826 107.952C298.979 107.952 299.13 107.982 299.271 108.04C299.412 108.099 299.54 108.184 299.648 108.292C299.756 108.4 299.842 108.528 299.9 108.669C299.959 108.81 299.989 108.962 299.989 109.114V248.85H297.664V109.066C297.675 108.765 297.802 108.481 298.019 108.273C298.236 108.065 298.526 107.95 298.826 107.952Z" fill="#E0E0E0"/>
<path d="M314.86 127.556C314.86 131.568 313.266 135.415 310.429 138.252C307.592 141.089 303.745 142.683 299.733 142.683C299.421 142.683 299.11 142.683 298.806 142.648C296.825 142.529 294.888 142.018 293.106 141.145C291.325 140.272 289.734 139.054 288.426 137.562C287.963 137.042 287.537 136.489 287.152 135.908C285.688 133.697 284.831 131.14 284.668 128.493C284.504 125.847 285.039 123.203 286.22 120.829C287.401 118.454 289.185 116.432 291.394 114.965C293.603 113.498 296.159 112.637 298.806 112.47C299.11 112.47 299.421 112.47 299.733 112.47C303.089 112.465 306.351 113.583 308.999 115.647C309.553 116.067 310.073 116.53 310.556 117.031C313.314 119.84 314.859 123.619 314.86 127.556Z" fill="#E0E0E0"/>
<path d="M313.012 127.556C313.014 131.405 311.548 135.11 308.911 137.914C306.275 140.719 302.668 142.412 298.826 142.648C298.515 142.648 298.204 142.683 297.892 142.683C293.991 142.689 290.24 141.18 287.429 138.476C286.934 137.997 286.472 137.486 286.045 136.946C284.279 134.718 283.178 132.037 282.867 129.211C282.555 126.385 283.047 123.529 284.285 120.97C285.524 118.41 287.459 116.252 289.868 114.743C292.277 113.233 295.063 112.434 297.906 112.436C298.217 112.436 298.529 112.436 298.84 112.436C302.308 112.642 305.596 114.043 308.148 116.401C308.659 116.865 309.136 117.367 309.573 117.902C311.811 120.62 313.028 124.035 313.012 127.556Z" fill="#FAFAFA"/>
<path d="M311.649 118.069L310.632 119.01L289.491 138.628L288.502 139.541C288.007 139.063 287.544 138.552 287.118 138.012L288.232 136.974L309.22 117.501L310.106 116.678C310.655 117.101 311.171 117.566 311.649 118.069Z" fill="#E0E0E0"/>
<path d="M304.612 126.511C304.51 126.875 304.344 127.217 304.12 127.522C303.284 128.468 302.165 129.12 300.93 129.383C299.339 129.834 297.68 129.998 296.031 129.867C295.055 129.823 294.104 129.541 293.263 129.044C292.784 128.738 292.393 128.314 292.128 127.812C291.934 127.443 291.837 127.032 291.844 126.615C291.857 126.151 292.02 125.703 292.31 125.339C292.599 124.976 293 124.717 293.45 124.601C294.28 126.913 298.155 126.477 299.996 125.757C301.139 125.361 302.083 124.534 302.626 123.453C303.167 123.502 303.678 123.723 304.086 124.082C304.384 124.402 304.59 124.797 304.683 125.224C304.775 125.652 304.751 126.097 304.612 126.511Z" fill="#E0E0E0"/>
<path d="M302.778 122.352C302.736 122.525 302.68 122.694 302.612 122.857C302.071 123.941 301.127 124.768 299.982 125.162C298.141 125.888 294.266 126.324 293.436 124.006C293.368 123.809 293.322 123.604 293.297 123.397C293.258 123.025 293.303 122.649 293.429 122.297C293.555 121.945 293.758 121.626 294.024 121.363C294.742 120.754 295.638 120.395 296.577 120.338C297.508 120.294 298.427 120.109 299.304 119.792C299.74 119.625 300.117 119.33 300.383 118.946C300.65 118.562 300.795 118.107 300.798 117.64C301.394 118.294 301.914 119.014 302.349 119.785C302.776 120.568 302.928 121.472 302.778 122.352Z" fill="#E0E0E0"/>
<path d="M305.691 128.691C305.682 129.252 305.524 129.801 305.234 130.282C304.295 131.862 302.787 133.023 301.02 133.528C299.265 134.027 297.422 134.131 295.622 133.832C294.654 133.732 293.714 133.445 292.854 132.988C292.421 132.757 292.043 132.436 291.743 132.047C291.444 131.658 291.23 131.21 291.117 130.732C291.117 129.909 291.173 128.725 292.135 128.4C292.398 128.903 292.79 129.328 293.27 129.632C294.111 130.128 295.061 130.411 296.038 130.455C297.686 130.591 299.346 130.43 300.937 129.978C302.174 129.715 303.293 129.06 304.127 128.109C304.351 127.808 304.517 127.468 304.618 127.106C304.743 127.142 304.862 127.196 304.971 127.265C305.2 127.424 305.386 127.638 305.512 127.887C305.638 128.136 305.699 128.412 305.691 128.691Z" fill="#E0E0E0"/>
<path d="M173 296.411C247.101 296.411 307.172 292.904 307.172 288.578C307.172 284.251 247.101 280.744 173 280.744C98.8989 280.744 38.8281 284.251 38.8281 288.578C38.8281 292.904 98.8989 296.411 173 296.411Z" fill="#F5F5F5"/>
<path d="M264.019 197.697L262.344 197.289C260.552 196.912 258.806 196.346 257.133 195.6L256.912 195.497C255.272 194.701 253.224 193.711 252.76 190.258C252.759 190.033 252.678 189.816 252.53 189.646C252.383 189.476 252.18 189.364 251.957 189.331C236.685 188.597 224.644 180.12 225.108 170.432C225.571 160.744 238.387 153.458 253.646 154.184C268.904 154.911 280.952 163.409 280.481 173.097C280.184 179.283 274.703 184.861 266.171 187.573C265.929 187.67 265.479 187.795 264.863 187.954C262.739 188.514 258.773 189.559 257.777 191.628C257.286 192.646 258.074 193.96 259.071 194.68C259.601 195.039 260.162 195.352 260.746 195.614C261.395 195.913 262.018 196.267 262.607 196.673L264.019 197.697ZM251.563 154.793C237.619 154.793 226.277 161.554 225.848 170.425C225.398 179.733 237.148 187.892 252.033 188.611C252.421 188.646 252.782 188.82 253.051 189.102C253.319 189.383 253.477 189.752 253.493 190.141C253.881 193.22 255.666 194.078 257.237 194.839L257.459 194.943C258.206 195.305 258.981 195.606 259.777 195.843C259.406 195.657 259.05 195.445 258.711 195.206C257.465 194.299 256.545 192.666 257.203 191.289C258.337 188.936 262.503 187.829 264.738 187.248C265.306 187.096 265.756 186.978 265.984 186.888C274.288 184.224 279.554 178.923 279.824 173.048C280.274 163.741 268.531 155.582 253.646 154.862C252.94 154.842 252.234 154.828 251.542 154.828L251.563 154.793Z" fill="#FFD166"/>
<path d="M254.185 180.695L252.22 182.127C252.207 182.142 252.19 182.154 252.172 182.162L250.269 180.57C244.338 175.415 237.598 169.747 242.899 165.118C246.573 161.9 250.836 164.896 252.988 166.841C255.265 165.042 260.047 159.921 264.06 166.149C267.437 171.318 260.434 175.941 254.185 180.695Z" fill="#FFD166"/>
<path opacity="0.5" d="M243.19 167.097C243.352 167.105 243.505 167.177 243.615 167.296C243.726 167.415 243.785 167.572 243.781 167.735C243.777 167.897 243.71 168.052 243.593 168.165C243.477 168.278 243.321 168.342 243.158 168.342C242.996 168.342 242.84 168.278 242.724 168.165C242.607 168.052 242.54 167.897 242.536 167.735C242.532 167.572 242.591 167.415 242.702 167.296C242.812 167.177 242.965 167.105 243.127 167.097H243.19Z" fill="white"/>
<path opacity="0.5" d="M245.522 174.1C243.882 173.034 245.522 169.311 243.446 169C241.965 169.623 243.494 172.771 245.522 174.1Z" fill="white"/>
<path d="M317.642 254.946H26.8911V265.714H317.642V254.946Z" fill="#FFD166"/>
<g opacity="0.7">
<path d="M317.642 254.946H26.8911V265.714H317.642V254.946Z" fill="white"/>
</g>
<path d="M42.5719 254.946H41.8799V266.233H42.5719V254.946Z" fill="white"/>
<path d="M107.606 254.946H106.914V266.233H107.606V254.946Z" fill="white"/>
<path d="M172.64 254.946H171.948V266.233H172.64V254.946Z" fill="white"/>
<path d="M237.674 254.946H236.982V266.233H237.674V254.946Z" fill="white"/>
<path d="M302.708 254.946H302.016V266.233H302.708V254.946Z" fill="white"/>
<path d="M231.128 74.9155C218.672 61.7675 202.984 57.2902 191.504 62.1965C189.853 62.905 188.03 63.1083 186.263 62.7807C184.497 62.453 182.868 61.6092 181.581 60.3558C167.678 46.9379 145.161 45.3463 135.819 58.0099C134.774 59.4281 133.877 60.9492 133.141 62.5494C131.943 65.1819 130.024 67.4207 127.605 69.0058C125.96 70.0902 124.521 71.4586 123.356 73.0471C120.394 77.0676 119.107 82.3199 119.335 87.9527C119.383 88.7613 119.187 89.5656 118.774 90.2622C118.361 90.9589 117.749 91.5162 117.017 91.8625C114.461 93.017 112.25 94.8178 110.602 97.0871C103.039 107.343 106.374 125.611 118.062 137.915C128.442 148.863 141.991 151.368 150.164 144.531C150.512 144.244 150.949 144.088 151.399 144.088C151.85 144.088 152.286 144.244 152.634 144.531C158.516 149.25 165.353 149.285 168.91 144.164C169.066 143.937 169.269 143.746 169.505 143.603C169.74 143.46 170.003 143.369 170.277 143.335C170.55 143.302 170.828 143.327 171.091 143.409C171.354 143.491 171.597 143.628 171.803 143.811C177.865 149.236 185.2 149.534 188.93 144.164C189.596 143.189 190.109 142.118 190.452 140.988C190.526 140.737 190.649 140.504 190.816 140.303C190.983 140.102 191.189 139.937 191.421 139.819C191.654 139.7 191.908 139.63 192.169 139.614C192.429 139.597 192.691 139.633 192.936 139.721C196.909 141.14 200.798 140.524 203.448 137.735C203.73 137.439 204.101 137.243 204.505 137.178C204.909 137.113 205.323 137.182 205.683 137.375C219.288 144.634 233.619 143.237 241.598 132.421C252.269 117.944 247.57 92.2155 231.128 74.9155Z" fill="#FFD166"/>
<path opacity="0.5" d="M231.128 74.9155C218.672 61.7675 202.984 57.2902 191.504 62.1965C189.853 62.905 188.03 63.1083 186.263 62.7807C184.497 62.453 182.868 61.6092 181.581 60.3558C167.678 46.9379 145.161 45.3463 135.819 58.0099C134.774 59.4281 133.877 60.9492 133.141 62.5494C131.943 65.1819 130.024 67.4207 127.605 69.0058C125.96 70.0902 124.521 71.4586 123.356 73.0471C120.394 77.0676 119.107 82.3199 119.335 87.9527C119.383 88.7613 119.187 89.5656 118.774 90.2622C118.361 90.9589 117.749 91.5162 117.017 91.8625C114.461 93.017 112.25 94.8178 110.602 97.0871C103.039 107.343 106.374 125.611 118.062 137.915C128.442 148.863 141.991 151.368 150.164 144.531C150.512 144.244 150.949 144.088 151.399 144.088C151.85 144.088 152.286 144.244 152.634 144.531C158.516 149.25 165.353 149.285 168.91 144.164C169.066 143.937 169.269 143.746 169.505 143.603C169.74 143.46 170.003 143.369 170.277 143.335C170.55 143.302 170.828 143.327 171.091 143.409C171.354 143.491 171.597 143.628 171.803 143.811C177.865 149.236 185.2 149.534 188.93 144.164C189.596 143.189 190.109 142.118 190.452 140.988C190.526 140.737 190.649 140.504 190.816 140.303C190.983 140.102 191.189 139.937 191.421 139.819C191.654 139.7 191.908 139.63 192.169 139.614C192.429 139.597 192.691 139.633 192.936 139.721C196.909 141.14 200.798 140.524 203.448 137.735C203.73 137.439 204.101 137.243 204.505 137.178C204.909 137.113 205.323 137.182 205.683 137.375C219.288 144.634 233.619 143.237 241.598 132.421C252.269 117.944 247.57 92.2155 231.128 74.9155Z" fill="white"/>
<path d="M145.458 150.503L156.586 160.841C155.693 175.422 154.966 209.004 154.966 209.004L151.008 232.484L185.885 232.802C185.885 232.802 184.3 212.976 184.3 211.897C184.3 210.817 177.56 172.833 177.56 172.833L175.18 151.561L193.172 146.074L196.459 136.593L209.676 129.113L216.132 119.197L213.641 118.588L206.507 127.75L198.203 129.556L201.766 121.12H197.774L187.864 140.704L175.076 143.285L176.744 115.833C164.461 119.688 163.27 112.664 163.27 112.664C163.27 112.664 159.056 149.61 157.568 153.817L150.987 150.503L143.867 139.237H140.697L145.458 150.503Z" fill="#FFD166"/>
<path opacity="0.7" d="M145.458 150.503L156.586 160.841C155.693 175.422 154.966 209.004 154.966 209.004L151.008 232.484L185.885 232.802C185.885 232.802 184.3 212.976 184.3 211.897C184.3 210.817 177.56 172.833 177.56 172.833L175.18 151.561L193.172 146.074L196.459 136.593L209.676 129.113L216.132 119.197L213.641 118.588L206.507 127.75L198.203 129.556L201.766 121.12H197.774L187.864 140.704L175.076 143.285L176.744 115.833C164.461 119.688 163.27 112.664 163.27 112.664C163.27 112.664 159.056 149.61 157.568 153.817L150.987 150.503L143.867 139.237H140.697L145.458 150.503Z" fill="white"/>
<path d="M150.939 220.229C150.302 219.336 149.929 218.789 149.929 218.789C149.929 218.789 158.177 218.672 163.803 220.817C169.429 222.962 179.228 231.923 185.719 229.764C188.445 228.894 191.097 227.806 193.649 226.512C195.042 225.766 196.491 225.127 197.981 224.602C199.323 224.172 200.689 223.818 202.071 223.543C202.071 223.543 204.562 224.588 198.902 231.218C193.241 237.847 187.83 240.954 181.076 240.034C177.422 239.535 167.665 236.401 162.177 232.581C159.817 230.941 156.641 227.688 154.441 225.038C154.842 224.962 155.825 225.488 156.987 224.713C156.246 224.734 155.508 224.599 154.821 224.318C154.135 224.037 153.515 223.615 153.001 223.08C153.306 223.209 153.641 223.246 153.966 223.189C154.292 223.131 154.594 222.98 154.835 222.754C154.046 222.625 153.293 222.334 152.622 221.899C151.952 221.465 151.379 220.896 150.939 220.229Z" fill="#FFD166"/>
<path opacity="0.1" d="M172.218 232.74L170.37 234.013C170.913 234.288 171.519 234.415 172.126 234.381C172.734 234.347 173.322 234.153 173.83 233.82L172.737 235.577L189.345 234.761C189.872 234.693 190.408 234.75 190.909 234.927C191.333 235.171 191.669 235.545 191.866 235.993C192.064 236.441 192.114 236.94 192.009 237.418L191.968 237.584C188.777 239.737 184.898 240.623 181.089 240.068C177.436 239.57 167.679 236.435 162.191 232.616C161.315 231.995 160.485 231.313 159.707 230.574C161.306 230.737 162.875 231.119 164.371 231.709C166.897 232.616 169.665 233.605 172.218 232.74Z" fill="black"/>
<path d="M188.162 241.438L185.179 258.095C185.056 258.792 184.703 259.428 184.176 259.901L183.484 260.551C182.436 261.494 181.782 262.796 181.65 264.198L179.761 284.176C179.685 284.971 179.878 285.767 180.307 286.439L182.252 289.47C182.327 289.584 182.43 289.678 182.551 289.741C182.672 289.804 182.807 289.834 182.944 289.83H189.262C189.407 289.828 189.548 289.787 189.671 289.71C189.794 289.634 189.893 289.525 189.958 289.396C190.023 289.266 190.051 289.121 190.04 288.977C190.028 288.833 189.977 288.695 189.892 288.577C188.643 286.798 187.047 285.289 185.2 284.142C181.83 282.246 200.472 253.5 200.472 253.5C200.472 253.5 194.493 230.664 188.162 241.438Z" fill="#FFD166"/>
<path opacity="0.1" d="M188.162 241.438L185.179 258.095C185.056 258.792 184.703 259.428 184.176 259.901L183.484 260.551C182.436 261.494 181.782 262.796 181.65 264.198L179.761 284.176C179.685 284.971 179.878 285.767 180.307 286.439L182.252 289.47C182.327 289.584 182.43 289.678 182.551 289.741C182.672 289.804 182.807 289.834 182.944 289.83H189.262C189.407 289.828 189.548 289.787 189.671 289.71C189.794 289.634 189.893 289.525 189.958 289.396C190.023 289.266 190.051 289.121 190.04 288.977C190.028 288.833 189.977 288.695 189.892 288.577C188.643 286.798 187.047 285.289 185.2 284.142C181.83 282.246 200.472 253.5 200.472 253.5C200.472 253.5 194.493 230.664 188.162 241.438Z" fill="black"/>
<path d="M272.018 241.653L276.018 251.964C276.291 252.672 276.472 253.411 276.558 254.165L277.354 261.23C277.586 263.303 278.32 265.289 279.492 267.015C281.741 270.33 286.017 279.104 287.332 281.824C287.593 282.362 287.971 282.836 288.439 283.208L291.207 285.436C291.63 285.773 291.979 286.192 292.235 286.668C292.491 287.143 292.647 287.666 292.695 288.204C292.792 289.208 292.813 290.28 292.467 290.28H288.965C288.375 290.281 287.791 290.152 287.256 289.904C286.72 289.655 286.246 289.292 285.865 288.841C284.121 286.765 281.021 283.236 280.26 283.014C279.36 282.751 269.825 272.039 265.638 267.403C264.667 266.323 264.13 264.924 264.129 263.472C264.13 263.08 264.038 262.693 263.861 262.342C263.684 261.992 263.427 261.688 263.112 261.455C262.796 261.222 262.43 261.067 262.043 261.001C261.656 260.935 261.259 260.962 260.884 261.078C258.116 261.922 252.462 262.628 250.767 262.822C250.767 262.822 262.856 249.674 262.531 241.134C262.206 232.595 271.762 236.034 271.991 238.228C272.128 239.365 272.137 240.514 272.018 241.653Z" fill="#FFD166"/>
<path opacity="0.1" d="M272.018 241.653L276.018 251.964C276.291 252.672 276.472 253.411 276.558 254.165L277.354 261.23C277.586 263.303 278.32 265.289 279.492 267.015C281.741 270.33 286.017 279.104 287.332 281.824C287.593 282.362 287.971 282.836 288.439 283.208L291.207 285.436C291.63 285.773 291.979 286.192 292.235 286.668C292.491 287.143 292.647 287.666 292.695 288.204C292.792 289.208 292.813 290.28 292.467 290.28H288.965C288.375 290.281 287.791 290.152 287.256 289.904C286.72 289.655 286.246 289.292 285.865 288.841C284.121 286.765 281.021 283.236 280.26 283.014C279.36 282.751 269.825 272.039 265.638 267.403C264.667 266.323 264.13 264.924 264.129 263.472C264.13 263.08 264.038 262.693 263.861 262.342C263.684 261.992 263.427 261.688 263.112 261.455C262.796 261.222 262.43 261.067 262.043 261.001C261.656 260.935 261.259 260.962 260.884 261.078C258.116 261.922 252.462 262.628 250.767 262.822C250.767 262.822 262.856 249.674 262.531 241.134C262.206 232.595 271.762 236.034 271.991 238.228C272.128 239.365 272.137 240.514 272.018 241.653Z" fill="black"/>
<path d="M197.22 224.907H197.303C198.632 224.484 200.258 224.055 202.147 223.633C215.025 220.665 238.961 217.71 250.317 218.021C250.878 218.021 251.404 218.063 251.895 218.097H251.943C252.776 218.142 253.606 218.236 254.428 218.381C254.933 218.46 255.426 218.605 255.895 218.81C256.073 218.884 256.237 218.99 256.379 219.121C261.915 224.505 270.593 228.152 271.686 237.501C271.707 237.636 271.721 237.773 271.728 237.909C271.798 238.65 271.819 239.394 271.79 240.137C271.79 240.269 271.79 240.407 271.79 240.546C271.79 240.843 271.755 241.155 271.721 241.466C271.724 241.521 271.724 241.577 271.721 241.632C271.34 245.3 269.956 249.708 267.195 255.14C266.953 255.618 266.697 256.102 266.427 256.6C265.412 258.298 263.879 259.625 262.054 260.385L261.728 260.538C260.894 260.906 260.037 261.218 259.161 261.472H259.126C256.73 262.132 254.272 262.544 251.791 262.704L251.189 262.745C250.572 262.783 249.952 262.783 249.335 262.745C247.646 262.614 245.916 262.309 244.366 262.558C244.231 262.579 244.097 262.606 243.965 262.641L243.771 262.683C243.121 262.847 242.515 263.154 241.999 263.582C241.89 263.663 241.788 263.753 241.695 263.852C241.325 264.223 241.006 264.642 240.747 265.098C240.303 265.879 240.019 266.739 239.91 267.631C239.84 268.122 239.764 268.627 239.688 269.153C238.705 275.762 237.481 284.688 242.864 286.259C244.94 286.868 244.504 288.958 244.677 289.532C245.619 292.667 238.449 291.837 238.449 291.837C236.692 291.235 234.602 290.418 232.962 290.903C232.27 291.096 231.377 289.968 231.481 289.263C232.623 281.076 230.657 273.27 230 262.115H229.647L216.596 261.437H216.063H215.821C215.683 261.818 213.018 271.713 215.337 277.319C217.143 281.678 221.212 284.481 225.848 285.36C227.668 285.706 227.606 287.436 228.139 289.373C228.713 291.401 225.045 290.709 222.942 290.64C222.942 290.64 210.97 286.875 207.178 280.453C205.967 278.377 208.513 276.225 207.531 274.045C205.455 269.402 201.87 264.357 198.971 260.164C198.509 259.5 198.025 258.849 197.518 258.213C195.725 255.922 193.739 253.756 192.016 251.445C191.892 252.061 191.746 252.67 191.684 253.147C190.993 252.085 190.617 250.85 190.598 249.583L189.214 252.275C188.805 249.438 188.397 246.615 187.982 243.784C187.947 243.563 187.92 243.348 187.899 243.134C187.88 242.904 187.88 242.672 187.899 242.442C187.751 241.499 187.686 240.545 187.705 239.591C187.727 237.968 187.974 236.357 188.439 234.802C189.371 231.544 191.258 228.639 193.857 226.464L197.22 224.907Z" fill="#FFD166"/>
<path opacity="0.1" d="M244.082 262.205C243.972 262.371 243.847 262.526 243.708 262.669C245.964 262.074 248.67 262.918 251.134 262.766C254.303 262.572 257.957 261.105 261.216 259.652C261.216 259.652 264.738 257.182 265.929 255.708C266.271 255.272 266.529 254.777 266.69 254.247C267.188 252.69 267.306 251.756 265.679 250.787C263.368 249.403 255.832 251.812 253.48 252.684C250.02 253.957 246.816 256.296 245.293 259.638C244.962 260.526 244.556 261.385 244.082 262.205Z" fill="black"/>
<path opacity="0.1" d="M241.633 263.839C241.726 263.74 241.828 263.649 241.937 263.569H241.709C241.665 263.653 241.639 263.745 241.633 263.839Z" fill="black"/>
<path opacity="0.1" d="M213.406 255.534C214.527 256.69 215.71 259.133 215.752 260.538C215.752 261.23 215.752 261.313 215.8 261.41L216.942 261.451L229.869 262.088C229.958 260.665 229.56 259.254 228.741 258.088L224.727 251.991C224.762 253.223 224.789 254.448 224.817 255.68C223.832 254.262 222.685 252.964 221.398 251.812C221.357 252.919 221.322 254.026 221.281 255.126L219.205 253.742C219.253 254.531 219.302 255.32 219.357 256.109C219.157 255.857 218.885 255.671 218.578 255.576C218.27 255.481 217.941 255.481 217.634 255.576C217.96 255.995 218.163 256.495 218.222 257.022C218.222 257.555 217.821 258.129 217.302 258.095C217.045 258.054 216.805 257.941 216.61 257.77C215.544 257.029 214.472 256.268 213.406 255.534Z" fill="black"/>
<path d="M259.064 205.641C263.368 203.489 268.358 203.261 273.167 203.296C275.374 203.296 277.686 203.399 279.609 204.486C281.533 205.572 282.896 207.946 282.08 210.022L287.754 210.188C288.285 212.128 288.205 214.185 287.527 216.079C286.849 217.973 285.604 219.613 283.962 220.775L285.491 221.101C286.523 221.53 286.578 223.094 285.886 223.979C285.194 224.865 284.073 225.26 283.056 225.716C281.004 226.658 279.158 227.996 277.623 229.652C276.089 231.309 274.897 233.252 274.115 235.37C273.423 237.349 271.866 242.663 269.998 243.639C267.631 244.871 265.846 240.082 263.866 238.311C260.552 235.37 257.334 232.235 255.064 228.436C250.504 220.769 250.061 210.139 259.064 205.641Z" fill="#FFD166"/>
<path opacity="0.2" d="M273.797 222.298C275.049 223.198 276.689 223.315 278.232 223.412L285.955 223.869C286.161 223.56 286.288 223.206 286.324 222.836C286.361 222.467 286.305 222.094 286.163 221.751C286.023 221.456 285.775 221.226 285.471 221.108L283.941 220.783C285.584 219.619 286.829 217.978 287.507 216.083C288.185 214.188 288.265 212.13 287.734 210.188L286.066 210.14V212.707C285.374 219.696 278.634 219.738 272.918 218.291C271.915 219.44 272.537 221.405 273.797 222.298Z" fill="black"/>
<path opacity="0.1" d="M251.528 224.069C249.639 226.104 255.964 220.443 256.206 217.682C257.728 218.132 259.375 217.108 260.164 215.738C260.852 214.301 261.211 212.729 261.216 211.136C261.216 211.136 260.372 215.122 257.998 215.122H255.625C255.625 215.122 253.12 222.36 251.528 224.069Z" fill="black"/>
<path d="M272.766 210.368C272.766 210.79 273.388 211.136 274.15 211.136C274.911 211.136 275.534 210.79 275.534 210.368C275.534 209.946 274.911 209.6 274.15 209.6C273.388 209.6 272.766 209.946 272.766 210.368Z" fill="#263238"/>
<path opacity="0.1" d="M272.648 234.761C272.413 233.377 271.617 231.993 270.295 231.578C270.478 231.651 270.673 231.684 270.87 231.676C271.066 231.667 271.258 231.617 271.434 231.529C271.609 231.44 271.764 231.315 271.887 231.162C272.01 231.009 272.1 230.832 272.149 230.642C272.199 230.452 272.207 230.253 272.174 230.06C272.141 229.866 272.067 229.681 271.957 229.519C271.847 229.356 271.704 229.218 271.537 229.115C271.369 229.012 271.182 228.946 270.987 228.92C272.087 228.72 272.676 227.073 272.08 226.014C271.423 224.831 270.004 224.332 268.69 224.014H268.745C272.886 224.445 276.989 225.18 281.021 226.215L281.755 226.388C278.235 228.394 275.539 231.581 274.143 235.384C273.811 236.283 273.312 237.882 272.696 239.446C272.696 239.266 272.696 239.093 272.696 238.913C272.805 237.53 272.789 236.141 272.648 234.761Z" fill="black"/>
<path d="M284.855 210.105L287.754 210.195C288.113 211.437 288.205 212.741 288.024 214.022C287.194 213.712 286.462 213.185 285.905 212.496C285.347 211.807 284.985 210.982 284.855 210.105Z" fill="#263238"/>
<path d="M279.637 222.222C280.516 222.256 281.513 222.256 282.647 222.222H282.717H283.076H283.485C284.46 222.166 285.263 222.699 286.253 223.253C286.743 223.595 287.276 223.871 287.837 224.076C288.119 224.174 288.423 224.185 288.711 224.107C288.999 224.03 289.256 223.867 289.45 223.64C289.591 223.385 289.649 223.092 289.614 222.803C289.579 222.513 289.454 222.242 289.256 222.028C288.844 221.614 288.319 221.33 287.747 221.211C286.618 220.922 285.449 220.826 284.287 220.928C284.158 220.934 284.028 220.947 283.9 220.969C282.274 221.101 280.772 221.89 279.637 222.222Z" fill="#E8483F"/>
<path d="M279.637 222.222C280.639 222.306 281.646 222.306 282.647 222.222C281.513 222.256 280.516 222.256 279.637 222.222Z" fill="#E8483F"/>
<path d="M275.021 221.295C276.482 221.912 278.052 222.227 279.637 222.222C280.862 221.862 282.523 220.963 284.274 220.838L283.962 220.769C280.729 221.375 277.386 220.888 274.461 219.385C274.461 219.385 272.648 220.07 275.021 221.295Z" fill="#263238"/>
<path d="M272.122 253.334C272.146 252.812 272.063 252.291 271.879 251.802C271.694 251.313 271.412 250.866 271.049 250.49C271.211 252.913 270.701 255.334 269.575 257.486L269.659 254.912C268.775 256.381 267.504 257.578 265.984 258.372C266.353 258.101 266.663 257.757 266.895 257.362C267.127 256.967 267.276 256.529 267.333 256.074C266.489 257.472 265.483 258.766 264.337 259.929C263.18 261.098 261.644 261.817 260.005 261.956C262.405 260.257 264.443 258.097 266 255.602C267.556 253.107 268.6 250.327 269.07 247.424C269.207 246.02 269.466 244.631 269.845 243.272C270.247 242.096 271.229 239.979 271.845 242.013C272.883 245.321 272.364 249.95 272.122 253.334Z" fill="#FFD166"/>
<path d="M244.082 264.641L242.892 263.5C243.034 264.81 242.722 266.129 242.006 267.236C242.006 266.69 242.006 266.143 241.951 265.596C241.305 267.307 240.196 268.805 238.747 269.921C239.065 268.143 239.439 266.371 239.951 264.621C240.283 263.423 241.28 260.213 243.065 260.469C244.85 260.725 243.183 263.783 244.082 264.641Z" fill="#FFD166"/>
<path d="M251.888 217.896C252.004 218.7 251.979 219.517 251.812 220.312C251.793 220.407 251.753 220.497 251.694 220.575C251.556 223.142 252.552 225.841 254.684 228.616C259.659 235.093 269.216 239.819 272.129 240.172C272.268 240.224 272.387 240.319 272.467 240.444C272.548 240.568 272.587 240.715 272.577 240.864C272.568 241.012 272.511 241.153 272.416 241.266C272.32 241.38 272.19 241.46 272.046 241.494H271.97C268.51 241.085 258.711 236.055 253.625 229.425C251.071 226.097 249.999 222.803 250.449 219.64C250.526 219.088 250.469 218.526 250.282 218L251.888 217.896Z" fill="#263238"/>
<path d="M252.891 229.425C253.341 228.823 254.275 228.201 254.012 227.481C254.511 229.017 254.656 230.201 255.86 231.28L255.694 229.543C256.392 231.349 257.572 232.929 259.106 234.11C259.074 233.53 258.827 232.982 258.414 232.574C259.727 233.473 261.231 234.056 262.808 234.276C260.815 230.664 256.953 225.869 252.836 224.706C252.85 225.716 253.521 228.588 252.891 229.425Z" fill="#FFD166"/>
<path d="M263.79 237.529C264.143 236.837 264.946 236.11 264.607 235.453C265.299 236.892 265.652 238.041 267.001 238.913L266.579 237.224C267.54 238.905 268.945 240.289 270.641 241.224C270.525 240.657 270.205 240.152 269.742 239.805C271.176 240.496 272.751 240.845 274.343 240.823C271.825 237.556 267.278 233.398 263.036 232.872C263.188 233.861 264.282 236.608 263.79 237.529Z" fill="#FFD166"/>
<path d="M101.073 147.984C106.949 151.541 132.068 155.9 133.597 155.796C134.183 155.795 134.758 155.644 135.268 155.357C135.778 155.07 136.206 154.656 136.511 154.156C136.77 153.69 136.926 153.173 136.966 152.641C137.006 152.109 136.931 151.575 136.745 151.075C136.559 150.575 136.266 150.121 135.888 149.745C135.509 149.369 135.054 149.08 134.552 148.897C128.068 146.42 116.602 141.645 111.716 138.919C107.883 136.787 113.557 109.398 106.353 107.038C94.6586 103.218 94.1119 143.776 101.073 147.984Z" fill="#FFD166"/>
<g opacity="0.1">
<path d="M101.073 147.984C106.949 151.541 132.068 155.9 133.597 155.796C134.183 155.795 134.758 155.644 135.268 155.357C135.778 155.07 136.206 154.656 136.511 154.156C136.77 153.69 136.926 153.173 136.966 152.641C137.006 152.109 136.931 151.575 136.745 151.075C136.559 150.575 136.266 150.121 135.888 149.745C135.509 149.369 135.054 149.08 134.552 148.897C128.068 146.42 116.602 141.645 111.716 138.919C107.883 136.787 113.557 109.398 106.353 107.038C94.6586 103.218 94.1119 143.776 101.073 147.984Z" fill="black"/>
</g>
<path d="M132.698 155.991L139.127 159.319C139.127 159.319 143.071 153.541 143.196 152.863C143.196 152.863 140.144 150.358 136.829 150.337L134.684 150.503C134.394 150.524 134.111 150.606 133.854 150.741C133.597 150.877 133.371 151.064 133.189 151.292L132.013 152.759C131.815 153.005 131.674 153.293 131.6 153.6C131.527 153.908 131.522 154.228 131.588 154.537C131.654 154.847 131.787 155.138 131.979 155.389C132.171 155.64 132.417 155.846 132.698 155.991Z" fill="#FFB373"/>
<path d="M137.791 158.696L142.926 152.752L145.943 154.544C146.074 154.624 146.187 154.731 146.274 154.857C146.361 154.984 146.42 155.128 146.447 155.279C146.474 155.431 146.468 155.586 146.43 155.735C146.392 155.884 146.323 156.023 146.226 156.143L143.555 159.471C143.275 159.814 142.891 160.059 142.462 160.168C142.032 160.278 141.579 160.247 141.168 160.08L137.791 158.696Z" fill="#FFB373"/>
<path d="M104.873 106.796C107.848 108.18 109.135 128.483 107.274 150.468C106.907 154.8 82.5625 155.312 78.1752 151.368L69.4352 116.076C69.1525 114.933 69.1117 113.745 69.3156 112.585C69.5194 111.426 69.9633 110.323 70.6189 109.345C71.2744 108.368 72.127 107.538 73.122 106.91C74.1171 106.281 75.2325 105.868 76.3968 105.696C78.3759 105.412 88.1192 98.9558 104.873 106.796Z" fill="#FFD166"/>
<path d="M107.26 150.461C107.952 154.371 108.72 162.627 110.367 166.211L110.512 166.537C111.244 168.18 111.473 170.004 111.17 171.777C110.867 173.551 110.045 175.195 108.81 176.502C107.574 177.81 105.979 178.722 104.225 179.125C102.472 179.527 100.638 179.402 98.956 178.764L94.0428 176.896C94.0428 176.896 91.8838 177.013 75.1858 172.052C74.8398 171.948 73.8018 170.495 73.9125 166.315C74.0218 163.044 74.7252 159.82 75.9885 156.8L78.2029 151.368C87.8877 152.305 97.6525 152 107.26 150.461Z" fill="#263238"/>
<path d="M130.255 268.074L130.096 288.398C129.452 288.73 122.449 291.304 122.346 289.353C122.027 283.402 121.398 270.897 121.398 270.897L130.255 268.074Z" fill="#FFB373"/>
<path d="M131.957 283.332C131.916 283.325 131.878 283.307 131.847 283.278C131.816 283.25 131.795 283.213 131.784 283.173C131.776 283.132 131.781 283.09 131.797 283.052C131.813 283.014 131.84 282.981 131.874 282.958C131.992 282.875 134.829 280.945 136.276 281.221C136.413 281.239 136.546 281.286 136.665 281.357C136.784 281.428 136.887 281.524 136.968 281.637C137.072 281.756 137.136 281.905 137.151 282.063C137.166 282.22 137.131 282.379 137.051 282.516C136.767 283.035 135.722 283.27 134.622 283.346C133.735 283.425 132.843 283.42 131.957 283.332ZM135.833 281.588C134.681 281.838 133.588 282.308 132.615 282.972C134.206 283.069 136.365 282.882 136.718 282.28C136.76 282.204 136.801 282.08 136.635 281.837C136.589 281.769 136.528 281.712 136.458 281.669C136.388 281.626 136.309 281.598 136.227 281.588C136.094 281.571 135.959 281.571 135.826 281.588H135.833Z" fill="#FFD166"/>
<path d="M131.847 283.256C131.819 283.233 131.798 283.203 131.787 283.168C131.776 283.134 131.775 283.097 131.784 283.062C131.784 282.965 131.833 280.661 132.85 279.678C132.999 279.545 133.173 279.442 133.362 279.377C133.551 279.311 133.751 279.284 133.95 279.298C134.124 279.277 134.299 279.317 134.446 279.412C134.592 279.507 134.701 279.65 134.753 279.817C134.995 280.758 133.099 282.758 132.11 283.277H132.027L131.847 283.256ZM133.134 279.997C132.554 280.784 132.234 281.732 132.22 282.709C133.217 282.017 134.539 280.412 134.352 279.872C134.352 279.824 134.303 279.685 133.944 279.672L133.819 279.713C133.565 279.719 133.321 279.818 133.134 279.99V279.997Z" fill="#FFD166"/>
<path d="M130.525 281.872L122.221 282.093C122.05 282.092 121.885 282.155 121.757 282.268C121.629 282.382 121.548 282.539 121.529 282.709L120.09 289.595C119.993 290.287 121.335 291.055 121.411 291.048C126.477 291.408 137.327 291.338 140.933 291.172C144.538 291.006 144.815 287.436 143.334 287.186C136.691 286.052 134.117 284.183 131.937 282.391C131.548 282.048 131.044 281.862 130.525 281.872Z" fill="#263238"/>
<g opacity="0.2">
<path d="M121.716 277.077L121.398 270.897L130.248 268.074L130.089 276.392L121.716 277.077Z" fill="black"/>
</g>
<path d="M59.7611 265.375L48.4815 282.287C47.7895 282.211 40.4958 280.523 41.4785 278.827C44.4748 273.672 50.8066 262.87 50.8066 262.87L59.7611 265.375Z" fill="#FFB373"/>
<path d="M52.8134 279.104C52.7829 279.076 52.7615 279.039 52.7516 278.998C52.7418 278.958 52.744 278.915 52.758 278.876C52.7733 278.837 52.8 278.804 52.8346 278.78C52.8692 278.757 52.91 278.744 52.9518 278.744C53.0971 278.744 56.5225 278.682 57.5813 279.713C57.6834 279.799 57.7668 279.904 57.8263 280.023C57.8859 280.142 57.9202 280.272 57.9273 280.405C57.9482 280.563 57.9195 280.723 57.845 280.863C57.7706 281.003 57.6542 281.116 57.5121 281.187C56.9931 281.464 55.9897 281.083 55.0347 280.55C54.2504 280.139 53.5066 279.655 52.8134 279.104ZM57.0138 279.796C55.9123 279.364 54.7368 279.153 53.5538 279.173C54.834 280.128 56.737 281.159 57.3529 280.869C57.4359 280.82 57.5328 280.737 57.5328 280.447C57.529 280.364 57.5086 280.283 57.473 280.208C57.4373 280.133 57.3871 280.066 57.3252 280.011C57.2224 279.927 57.1137 279.851 57 279.782L57.0138 279.796Z" fill="#FFD166"/>
<path d="M52.7719 278.938C52.7599 278.905 52.7581 278.868 52.7667 278.834C52.7753 278.8 52.794 278.768 52.8203 278.744C52.8826 278.661 54.2043 276.758 55.5883 276.495C55.9879 276.439 56.3937 276.544 56.7163 276.786C56.8724 276.863 56.9965 276.993 57.0673 277.152C57.138 277.311 57.1509 277.49 57.1038 277.658C56.7855 278.578 54.1074 279.215 52.9518 279.125H52.8687L52.7719 278.938ZM55.6298 276.924C54.7144 277.264 53.928 277.881 53.3808 278.689C54.6126 278.634 56.5779 278.039 56.7163 277.485C56.7163 277.43 56.7785 277.298 56.4879 277.091H56.3633C56.1493 276.943 55.8866 276.883 55.6298 276.924Z" fill="#FFD166"/>
<path d="M52.4259 277.028L45.3952 272.703C45.2528 272.607 45.0797 272.567 44.9096 272.591C44.7395 272.616 44.5845 272.702 44.4748 272.835L39.4924 277.803C39.0288 278.336 39.7346 279.706 39.7969 279.748C43.8382 282.82 52.9449 288.744 56.052 290.557C59.1591 292.37 61.3527 289.56 60.2524 288.536C55.3185 283.948 54.1905 280.973 53.3324 278.281C53.1977 277.765 52.8742 277.318 52.4259 277.028Z" fill="#263238"/>
<g opacity="0.2">
<path d="M47.6788 268.226L50.8067 262.877L59.7612 265.375L55.0625 272.24L47.6788 268.226Z" fill="black"/>
</g>
<path d="M90.9704 180.508C93.1225 188.992 109.807 210.382 115.336 224.727C119.591 235.799 119.093 258.586 118.969 271.34C118.952 271.925 119.067 272.507 119.307 273.042C119.547 273.576 119.904 274.049 120.353 274.426C120.353 274.426 127.674 274.149 129.93 273.776C137.134 272.585 135.134 235.958 134.566 227.017C133.604 211.835 124.083 187.013 109.62 164.045C107.198 160.198 102.949 162.578 97.3091 164.135C96.2849 164.426 88.8874 172.273 90.9704 180.508Z" fill="#263238"/>
<path opacity="0.2" d="M95.496 170.066C94.0428 168.529 94.0566 187.691 94.0566 187.691L102.091 201.6C102.091 201.6 106.61 181.844 95.496 170.066Z" fill="black"/>
<path d="M74.9435 170.612C59.422 253.701 44.8623 259.777 47.9971 265.264C47.9971 265.264 54.5987 268.516 56.3633 269.977C60.5153 273.437 80.0989 241.605 82.7355 233.024C88.6175 213.869 96.1533 192.604 97.3159 171.104C97.565 166.564 94.7901 162.205 89.2264 160.412C88.2092 160.08 76.5075 162.267 74.9435 170.612Z" fill="#263238"/>
<path opacity="0.1" d="M82.7908 139.701C82.3687 140.393 79.8221 138.656 79.3308 137.998C77.8361 135.86 77.3309 131.992 76.8742 129.473C76.3225 126.44 76.0906 123.358 76.1822 120.276C76.2306 118.989 76.023 112.706 78.016 115.01C79.6768 116.872 83.206 139.016 82.7908 139.701Z" fill="black"/>
<path d="M99.2743 161.36C98.4993 161.609 97.6204 161.173 96.9284 160.198C96.2046 159.171 95.7415 157.983 95.579 156.738L93.6138 159.789C93.247 160.357 92.7764 160.938 92.0637 160.917C91.8967 160.913 91.7326 160.873 91.5822 160.8C91.4319 160.727 91.2988 160.623 91.1918 160.495C91.01 160.258 90.8773 159.988 90.8012 159.699C90.7252 159.41 90.7074 159.109 90.7489 158.814C90.9097 157.709 91.502 156.714 92.3958 156.046C93.2696 155.353 94.38 155.03 95.4891 155.146L95.3784 154.862L96.0011 154.627L96.0634 154.786L96.188 154.579V154.869C96.6892 154.732 97.2176 154.731 97.7196 154.864C98.2216 154.998 98.6793 155.262 99.046 155.63C99.8102 156.469 100.281 157.532 100.388 158.661C100.541 159.686 100.347 161.014 99.2951 161.367L99.2743 161.36ZM96.188 155.575V155.713C96.1808 157.183 96.6333 158.618 97.482 159.817C97.8765 160.378 98.4785 160.917 99.0875 160.724C99.7795 160.488 99.8348 159.34 99.738 158.744C99.6519 157.759 99.2461 156.828 98.5823 156.094C98.3319 155.835 98.0246 155.637 97.6847 155.517C97.3448 155.397 96.9817 155.358 96.624 155.402L96.1949 155.547L96.188 155.575ZM93.9874 155.935C93.561 156.07 93.1624 156.281 92.811 156.558C92.0589 157.124 91.5613 157.965 91.427 158.897C91.3724 159.307 91.4763 159.723 91.7177 160.059C91.7638 160.118 91.8226 160.166 91.8896 160.2C91.9566 160.233 92.0303 160.251 92.1052 160.253C92.4858 160.253 92.7972 159.845 93.074 159.43L95.3853 155.852L95.2607 155.893L95.2192 155.776C94.8003 155.745 94.3795 155.797 93.9805 155.928L93.9874 155.935Z" fill="#FFD166"/>
<path d="M90.8734 171.152L90.2783 170.848C92.6738 166.178 93.834 160.973 93.6484 155.728H94.3404C94.5181 161.081 93.3247 166.39 90.8734 171.152Z" fill="#FFD166"/>
<path d="M103.98 169.927L103.329 170.066C102.151 164.487 98.9458 159.543 94.3334 156.191L94.7278 155.651C99.4712 159.102 102.768 164.188 103.98 169.927Z" fill="#FFD166"/>
<path d="M86.2093 96.6236L85.6972 96.2084C84.1886 94.2985 83.6212 92.1256 82.9638 88.7417C82.7908 87.8767 82.6247 86.9287 82.431 85.8838C82.1578 84.5075 82.2052 83.0868 82.5694 81.7318C82.7608 81.0096 83.0372 80.3128 83.3928 79.6558C84.2025 82.666 84.3201 85.7938 84.5969 88.8801C84.7491 91.5267 85.2924 94.1362 86.2093 96.6236Z" fill="#263238"/>
<path d="M99.4819 110.409C91.8699 120.996 82.3826 105.724 76.6459 105.834C75.7434 106.041 74.8776 106.384 74.0786 106.852C73.8378 106.818 73.5951 106.799 73.352 106.796C72.3623 106.776 71.3978 107.11 70.6324 107.737C70.0719 107.115 72.5285 103.662 72.6669 102.831C73.4973 97.7657 78.805 93.8836 83.8842 94.624C83.8842 94.624 92.0222 96.264 94.4926 98.8867C96.0842 100.568 98.5131 103.108 99.5165 105.807C99.8296 106.534 99.9881 107.319 99.9822 108.111C99.9762 108.903 99.8059 109.686 99.4819 110.409Z" fill="#263238"/>
<path d="M86.8806 92.9907C87.2612 96.4507 87.5242 101.295 85.6488 104.063C85.3212 104.524 85.1378 105.072 85.1218 105.637C85.1057 106.203 85.2579 106.76 85.5589 107.239C86.3962 108.492 88.0362 110.228 91.2817 112.249C91.8718 112.62 92.5471 112.833 93.2431 112.869C93.9391 112.904 94.6326 112.761 95.2573 112.452C95.8821 112.143 96.4172 111.679 96.8115 111.105C97.2058 110.53 97.4462 109.864 97.5097 109.17C97.5624 108.424 97.3849 107.681 97.0012 107.04C96.6176 106.399 96.0462 105.891 95.3645 105.585C92.5619 104.27 92.8664 102.589 93.7314 99.973L86.8806 92.9907Z" fill="#FFB373"/>
<path opacity="0.2" d="M89.6555 95.814L93.6553 99.966C93.4131 100.657 93.2324 101.368 93.1155 102.09C91.4962 101.71 89.0396 100.084 88.832 98.236C88.9036 97.3733 89.1864 96.5415 89.6555 95.814Z" fill="black"/>
<path d="M101.586 92.9562C101.412 94.9587 100.498 96.8246 99.0229 98.1898C97.5477 99.555 95.6167 100.322 93.6068 100.34H93.5583C91.9978 100.351 90.4623 99.9471 89.1088 99.1704C88.6039 98.8925 88.1245 98.5707 87.6763 98.2085C87.4895 98.0632 87.3096 97.9109 87.1435 97.7656C86.6154 97.3039 86.1312 96.7943 85.6972 96.2432C84.1886 94.3333 83.6212 92.1604 82.9638 88.7765C82.7908 87.9115 82.6247 86.9635 82.431 85.9186C82.1578 84.5423 82.2052 83.1216 82.5694 81.7666C82.7608 81.0444 83.0372 80.3476 83.3928 79.6906C83.5478 79.4014 83.7235 79.1238 83.9188 78.8602C84.96 77.3586 86.443 76.2186 88.1618 75.5986C89.8806 74.9785 91.7499 74.9092 93.5099 75.4002C96.5339 76.2029 98.6168 78.6595 99.9247 81.6697C100.063 81.9672 100.181 82.2786 100.291 82.5831C101.48 85.9036 101.922 89.4454 101.586 92.9562Z" fill="#FFB373"/>
<path d="M92.9356 86.2853C93.0118 86.8181 93.3439 87.2195 93.683 87.178C94.0221 87.1365 94.2573 86.659 94.1951 86.1261C94.1328 85.5933 93.7868 85.185 93.4477 85.2265C93.1086 85.2681 92.901 85.7663 92.9356 86.2853Z" fill="#263238"/>
<path d="M98.8867 85.5377C98.9628 86.0775 99.295 86.4719 99.6341 86.4304C99.9732 86.3889 100.208 85.9114 100.146 85.3786C100.084 84.8457 99.7379 84.4375 99.3988 84.4928C99.0597 84.5482 98.8244 84.998 98.8867 85.5377Z" fill="#263238"/>
<path d="M97.1707 86.728C97.7936 87.8908 98.5711 88.964 99.4819 89.9181C99.2374 90.146 98.9458 90.3174 98.6277 90.4203C98.3096 90.5231 97.9729 90.5548 97.6412 90.5133L97.1707 86.728Z" fill="#E8483F"/>
<path d="M95.0323 92.9976C95.2937 93.0047 95.5551 92.9908 95.8143 92.9561C95.8553 92.9509 95.8927 92.9299 95.9185 92.8976C95.9443 92.8653 95.9566 92.8242 95.9527 92.7831C95.9443 92.7428 95.9213 92.707 95.888 92.6827C95.8548 92.6584 95.8137 92.6473 95.7727 92.6516C95.1171 92.749 94.4477 92.688 93.8205 92.4737C93.1932 92.2594 92.6264 91.898 92.1674 91.4198C92.1538 91.4049 92.1372 91.393 92.1188 91.3849C92.1003 91.3768 92.0804 91.3726 92.0602 91.3726C92.04 91.3726 92.02 91.3768 92.0016 91.3849C91.9831 91.393 91.9665 91.4049 91.9529 91.4198C91.9378 91.4341 91.9258 91.4512 91.9176 91.4703C91.9094 91.4893 91.9052 91.5098 91.9052 91.5306C91.9052 91.5513 91.9094 91.5718 91.9176 91.5908C91.9258 91.6099 91.9378 91.627 91.9529 91.6413C92.349 92.0623 92.8258 92.3993 93.3548 92.6323C93.8838 92.8653 94.4543 92.9895 95.0323 92.9976Z" fill="#263238"/>
<path d="M90.3959 85.3441C90.4628 85.35 90.5298 85.3325 90.5853 85.2947C90.6408 85.2568 90.6815 85.2009 90.7004 85.1365C90.9296 84.6792 91.2507 84.2741 91.6436 83.9467C92.0366 83.6192 92.4929 83.3764 92.984 83.2335C93.0662 83.2108 93.1361 83.1567 93.1788 83.0829C93.2215 83.0092 93.2336 82.9216 93.2124 82.839C93.1912 82.7607 93.1403 82.6938 93.0705 82.6524C93.0007 82.611 92.9175 82.5985 92.8387 82.6176C92.2468 82.7827 91.6977 83.0742 91.2294 83.472C90.7611 83.8699 90.3847 84.3645 90.126 84.9219C90.099 85 90.1034 85.0855 90.1383 85.1604C90.1731 85.2353 90.2357 85.2937 90.3129 85.3233C90.3381 85.3377 90.3669 85.3449 90.3959 85.3441Z" fill="#263238"/>
<path d="M100.34 82.507C100.41 82.5095 100.479 82.4888 100.536 82.4482C100.593 82.4075 100.635 82.3491 100.656 82.282C100.676 82.2149 100.674 82.143 100.65 82.0773C100.625 82.0116 100.579 81.9559 100.52 81.9188C100.108 81.6304 99.6311 81.45 99.1316 81.3944C98.6322 81.3388 98.1268 81.4096 97.662 81.6005C97.5887 81.6338 97.5312 81.6943 97.5015 81.7691C97.4719 81.8439 97.4723 81.9273 97.5028 82.0018C97.5184 82.0396 97.5417 82.0738 97.5711 82.1022C97.6005 82.1306 97.6355 82.1526 97.6738 82.1669C97.7121 82.1812 97.753 82.1874 97.7938 82.1852C97.8346 82.183 97.8746 82.1724 97.9111 82.1541C98.2789 82.0173 98.6743 81.9717 99.0636 82.0211C99.4528 82.0705 99.8243 82.2135 100.146 82.4378C100.2 82.4843 100.269 82.509 100.34 82.507Z" fill="#263238"/>
<path d="M86.2094 90.548C85.9257 90.9148 85.0399 88.9564 84.5832 88.8664C84.0468 88.7515 83.4981 88.705 82.9501 88.728C83.5936 92.1119 84.1749 94.264 85.6835 96.1947C83.1646 94.0633 80.9433 91.4476 79.9329 88.2852C79.4379 86.5087 79.4251 84.6325 79.8958 82.8495C80.3665 81.0665 81.3037 79.4411 82.611 78.1404C82.8186 77.9536 83.1507 78.0366 83.4068 78.1404C83.6628 78.2442 84.9984 78.5349 85.552 78.6387C85.9623 78.7379 86.3434 78.9325 86.6645 79.2066C86.9855 79.4807 87.2374 79.8267 87.3996 80.2164C85.116 84.4861 87.0744 89.4131 86.2094 90.548Z" fill="#263238"/>
<path d="M81.2753 91.1709C81.8223 92.2939 82.7893 93.1564 83.9672 93.5721C85.5311 94.0842 86.3892 92.6794 86.0432 91.1224C85.6972 89.7384 84.4724 87.7801 82.8739 87.9116C82.3116 87.9791 81.7991 88.267 81.4488 88.712C81.0986 89.157 80.9391 89.7227 81.0055 90.2851C81.0328 90.5959 81.1247 90.8976 81.2753 91.1709Z" fill="#FFB373"/>
<path d="M93.7245 80.6455L90.4513 79.6282C92.9287 79.7528 95.4891 79.8981 97.7035 81.0122C99.9179 82.1263 101.676 84.5276 101.274 86.9703C102.347 84.6937 103.44 82.2993 103.35 79.7805C103.263 78.4259 102.88 77.1069 102.229 75.9162C101.577 74.7254 100.673 73.6919 99.5788 72.8881C97.3613 71.2908 94.6997 70.427 91.9668 70.4177C89.5888 70.2502 87.2276 70.9238 85.2959 72.3207C83.5313 73.7047 81.7321 77.4415 83.7182 79.3791C85.7042 81.3167 91.1503 80.9776 93.7245 80.6455Z" fill="#263238"/>
<path d="M250.303 217.994C250.018 217.192 249.469 216.511 248.746 216.063C248.553 215.98 248.386 215.904 248.262 215.835L241.432 211.717L240.124 210.935C214.361 195.635 152.711 159.16 144.31 155.43C138.082 152.662 128.961 153.223 122.401 154.157C121.31 154.299 120.286 154.764 119.46 155.491C118.634 156.218 118.044 157.175 117.765 158.24C117.468 159.269 117.482 160.363 117.806 161.383C118.13 162.404 118.749 163.306 119.584 163.976L119.723 164.087C119.856 164.2 119.941 164.359 119.961 164.532C119.982 164.706 119.936 164.88 119.834 165.021C119.721 165.154 119.561 165.239 119.388 165.26C119.215 165.28 119.04 165.235 118.899 165.132L118.747 165.007C117.711 164.174 116.943 163.053 116.541 161.785C116.138 160.517 116.119 159.159 116.484 157.88C116.836 156.568 117.567 155.39 118.587 154.494C119.606 153.597 120.868 153.022 122.214 152.842C128.947 151.88 138.338 151.34 144.842 154.226C153.319 157.97 215.025 194.493 240.809 209.807L248.933 214.651C249.046 214.716 249.164 214.772 249.286 214.817L249.362 214.852C250.016 215.08 250.596 215.48 251.041 216.01C251.487 216.539 251.782 217.179 251.895 217.862L250.303 217.994Z" fill="#263238"/>
<path d="M249.362 214.88L249.286 214.845C249.164 214.799 249.046 214.744 248.933 214.679L240.809 209.835C244.47 211.98 247.411 213.717 249.362 214.88Z" fill="#263238"/>
<path d="M109.578 152.814L118.761 156.392C118.761 156.392 122.069 150.233 122.124 149.548C122.124 149.548 118.823 147.375 115.522 147.7L112.498 148.261L109.578 152.814Z" fill="#FFB373"/>
<path d="M117.363 155.928L121.84 149.479L125.031 150.959C125.17 151.024 125.294 151.118 125.394 151.234C125.494 151.351 125.568 151.488 125.611 151.635C125.653 151.783 125.664 151.938 125.641 152.09C125.619 152.242 125.564 152.387 125.48 152.516L123.176 156.115C122.932 156.49 122.573 156.777 122.152 156.931C121.732 157.086 121.273 157.101 120.844 156.973L117.363 155.928Z" fill="#FFB373"/>
<path d="M73.4074 148.171C79.6354 151.091 108.568 153.458 110.083 153.195C110.665 153.129 111.22 152.916 111.696 152.577C112.173 152.238 112.556 151.784 112.81 151.257C113.019 150.766 113.119 150.235 113.103 149.702C113.087 149.168 112.955 148.645 112.717 148.167C112.479 147.689 112.14 147.269 111.723 146.935C111.307 146.601 110.823 146.362 110.305 146.233C103.599 144.455 86.6592 140.974 81.4899 138.787C77.4487 137.071 81.7321 108.485 74.3208 106.907C62.28 104.34 66.0584 144.725 73.4074 148.171Z" fill="#FFD166"/>
<path opacity="0.1" d="M73.4074 148.171C79.6354 151.091 108.568 153.458 110.083 153.195C110.665 153.129 111.22 152.916 111.696 152.577C112.173 152.238 112.556 151.784 112.81 151.257C113.019 150.766 113.119 150.235 113.103 149.702C113.087 149.168 112.955 148.645 112.717 148.167C112.479 147.689 112.14 147.269 111.723 146.935C111.307 146.601 110.823 146.362 110.305 146.233C103.599 144.455 86.6592 140.974 81.4899 138.787C77.4487 137.071 81.7321 108.485 74.3208 106.907C62.28 104.34 66.0584 144.725 73.4074 148.171Z" fill="#E0E0E0"/>
</svg>
