<svg width="348" height="253" viewBox="0 0 348 253" fill="none" xmlns="http://www.w3.org/2000/svg">
<path d="M348 222.374H0V222.543H348V222.374Z" fill="#EBEBEB"/>
<path d="M309.901 230.119H274.475V230.288H309.901V230.119Z" fill="#EBEBEB"/>
<path d="M69.3704 228.116H36.5122V228.285H69.3704V228.116Z" fill="#EBEBEB"/>
<path d="M277.008 226.98H263.652V227.149H277.008V226.98Z" fill="#EBEBEB"/>
<path d="M230.529 231.464H220.729V231.633H230.529V231.464Z" fill="#EBEBEB"/>
<path d="M214.528 231.464H189.862V231.633H214.528V231.464Z" fill="#EBEBEB"/>
<path d="M175.538 228.61H135.873V228.779H175.538V228.61Z" fill="#EBEBEB"/>
<path d="M164.952 192.206H30.5614C29.5086 192.204 28.4996 191.797 27.7558 191.073C27.012 190.348 26.5942 189.367 26.5942 188.344V4.74835C26.6034 3.73106 27.0252 2.75837 27.768 2.04154C28.5108 1.32472 29.5146 0.921665 30.5614 0.919922H164.952C166.006 0.919922 167.017 1.32684 167.762 2.05115C168.508 2.77546 168.926 3.75784 168.926 4.78217V188.344C168.926 189.368 168.508 190.351 167.762 191.075C167.017 191.799 166.006 192.206 164.952 192.206ZM30.5614 1.0552C29.5548 1.05699 28.59 1.44688 27.8788 2.13929C27.1677 2.83169 26.7682 3.77004 26.7682 4.74835V188.344C26.7682 189.322 27.1677 190.261 27.8788 190.953C28.59 191.645 29.5548 192.035 30.5614 192.037H164.952C165.959 192.035 166.925 191.646 167.637 190.953C168.349 190.261 168.75 189.323 168.752 188.344V4.74835C168.75 3.76942 168.349 2.83109 167.637 2.13888C166.925 1.44666 165.959 1.05699 164.952 1.0552H30.5614Z" fill="#EBEBEB"/>
<path d="M315.504 192.206H181.106C180.053 192.204 179.043 191.797 178.298 191.073C177.553 190.349 177.134 189.368 177.132 188.344V4.74835C177.143 3.73045 177.566 2.75776 178.31 2.04112C179.054 1.32448 180.059 0.921646 181.106 0.919922H315.504C316.549 0.923442 317.551 1.32728 318.293 2.04392C319.034 2.76055 319.455 3.73223 319.464 4.74835V188.344C319.464 189.366 319.047 190.346 318.305 191.07C317.563 191.794 316.555 192.203 315.504 192.206ZM181.106 1.0552C180.099 1.05699 179.133 1.44666 178.421 2.13888C177.709 2.83109 177.308 3.76942 177.306 4.74835V188.344C177.308 189.323 177.709 190.261 178.421 190.953C179.133 191.646 180.099 192.035 181.106 192.037H315.504C316.511 192.035 317.477 191.646 318.189 190.953C318.901 190.261 319.302 189.323 319.304 188.344V4.74835C319.302 3.76942 318.901 2.83109 318.189 2.13888C317.477 1.44666 316.511 1.05699 315.504 1.0552H181.106Z" fill="#EBEBEB"/>
<path d="M50.2095 158.887H144.657L144.657 21.5096H50.2095L50.2095 158.887Z" fill="#E6E6E6"/>
<path d="M48.1146 158.887H142.562L142.562 21.5096H48.1146L48.1146 158.887Z" fill="#F5F5F5"/>
<path d="M138.789 154.774V25.6221L51.8798 25.6221L51.8798 154.774H138.789Z" fill="white"/>
<path d="M53.4668 154.774L53.4668 25.6221H51.8799L51.8799 154.774H53.4668Z" fill="#E6E6E6"/>
<path d="M49.6736 71.4077L141.003 71.4077V65.8883L49.6736 65.8883V71.4077Z" fill="#F5F5F5"/>
<path d="M44.001 14.6982H148.763C148.917 14.7 149.064 14.7607 149.172 14.867C149.28 14.9734 149.341 15.1169 149.341 15.2664C149.341 15.4153 149.28 15.5581 149.171 15.6634C149.063 15.7687 148.916 15.8278 148.763 15.8278H44.001C43.8478 15.8278 43.7009 15.7687 43.5925 15.6634C43.4842 15.5581 43.4233 15.4153 43.4233 15.2664C43.4233 15.1169 43.484 14.9734 43.5921 14.867C43.7002 14.7607 43.8472 14.7 44.001 14.6982Z" fill="#E6E6E6"/>
<path d="M40.5211 15.2666C40.5266 15.8233 40.7015 16.3659 41.0237 16.8262C41.346 17.2865 41.8011 17.6438 42.3319 17.8531C42.8627 18.0625 43.4454 18.1145 44.0065 18.0026C44.5677 17.8907 45.0822 17.62 45.4853 17.2245C45.8885 16.8289 46.1621 16.3263 46.2719 15.7799C46.3816 15.2335 46.3225 14.6678 46.1021 14.154C45.8816 13.6402 45.5096 13.2012 45.033 12.8925C44.5563 12.5837 43.9963 12.419 43.4234 12.4189C43.04 12.4189 42.6603 12.4928 42.3063 12.6362C41.9524 12.7796 41.6312 12.9898 41.3613 13.2546C41.0914 13.5194 40.8782 13.8335 40.734 14.1789C40.5898 14.5242 40.5175 14.8939 40.5211 15.2666Z" fill="#E6E6E6"/>
<path d="M143.87 18.4186C144.077 18.4186 144.276 18.339 144.424 18.1972C144.571 18.0553 144.655 17.8626 144.657 17.6611V16.0242C144.655 15.8226 144.571 15.63 144.424 15.4881C144.276 15.3462 144.077 15.2666 143.87 15.2666C143.663 15.2666 143.465 15.3464 143.319 15.4885C143.173 15.6306 143.091 15.8233 143.091 16.0242V17.6611C143.091 17.862 143.173 18.0547 143.319 18.1967C143.465 18.3388 143.663 18.4186 143.87 18.4186Z" fill="#E6E6E6"/>
<path d="M52.7497 18.4186C52.9571 18.4186 53.1561 18.339 53.3034 18.1972C53.4507 18.0553 53.5344 17.8626 53.5362 17.6611V16.0242C53.5344 15.8226 53.4507 15.63 53.3034 15.4881C53.1561 15.3462 52.9571 15.2666 52.7497 15.2666C52.543 15.2666 52.3447 15.3464 52.1985 15.4885C52.0523 15.6306 51.9702 15.8233 51.9702 16.0242V17.6611C51.9702 17.862 52.0523 18.0547 52.1985 18.1967C52.3447 18.3388 52.543 18.4186 52.7497 18.4186Z" fill="#E6E6E6"/>
<path opacity="0.5" d="M44.182 144.764H140.996L140.996 15.2599H44.182L44.182 144.764Z" fill="#E0E0E0"/>
<path d="M131.648 15.2666C131.654 15.8236 131.829 16.3665 132.152 16.8269C132.474 17.2873 132.93 17.6446 133.461 17.8538C133.992 18.0629 134.575 18.1145 135.136 18.0021C135.698 17.8897 136.212 17.6182 136.615 17.2221C137.018 16.8259 137.291 16.3226 137.4 15.7758C137.509 15.2289 137.449 14.663 137.227 14.1493C137.006 13.6356 136.633 13.1971 136.155 12.8892C135.678 12.5813 135.117 12.4176 134.544 12.419C134.161 12.4189 133.781 12.4928 133.428 12.6363C133.074 12.7798 132.753 12.9901 132.484 13.255C132.215 13.5199 132.002 13.8341 131.859 14.1794C131.715 14.5247 131.644 14.8942 131.648 15.2666Z" fill="#E6E6E6"/>
<path d="M129.901 219.742H148.54V179.571H129.901V219.742Z" fill="#F0F0F0"/>
<path d="M53.0214 222.286H144.956V219.742H53.0214V222.286Z" fill="#F0F0F0"/>
<path d="M129.894 179.571H49.4438V219.743H129.894V179.571Z" fill="#F5F5F5"/>
<path d="M122.566 184.516H56.7727V197.692H122.566V184.516Z" fill="#F0F0F0"/>
<path d="M122.566 201.622H56.7727V214.798H122.566V201.622Z" fill="#F0F0F0"/>
<path d="M81.2859 192.003H98.0525C98.5061 192.003 98.8738 191.646 98.8738 191.205V190.996C98.8738 190.555 98.5061 190.197 98.0525 190.197H81.2859C80.8323 190.197 80.4646 190.555 80.4646 190.996V191.205C80.4646 191.646 80.8323 192.003 81.2859 192.003Z" fill="#F5F5F5"/>
<path d="M81.2859 209.109H98.0525C98.5061 209.109 98.8738 208.752 98.8738 208.311V208.102C98.8738 207.661 98.5061 207.303 98.0525 207.303H81.2859C80.8323 207.303 80.4646 207.661 80.4646 208.102V208.311C80.4646 208.752 80.8323 209.109 81.2859 209.109Z" fill="#F5F5F5"/>
<path d="M85.5523 172.813C85.5523 172.813 85.3226 179.577 76.734 179.577C68.1453 179.577 67.9226 172.813 67.9226 172.813H85.5523Z" fill="#F0F0F0"/>
<path d="M105.646 172.813C105.646 172.813 105.423 179.577 96.8275 179.577C88.2319 179.577 88.0161 172.813 88.0161 172.813H105.646Z" fill="#F0F0F0"/>
<path d="M85.5523 168.329C85.5523 168.329 85.3226 175.093 76.734 175.093C68.1453 175.093 67.9226 168.329 67.9226 168.329H85.5523Z" fill="#F0F0F0"/>
<path d="M105.646 168.329C105.646 168.329 105.423 175.093 96.8275 175.093C88.2319 175.093 88.0161 168.329 88.0161 168.329H105.646Z" fill="#F0F0F0"/>
<path d="M125.739 172.813C125.739 172.813 125.517 179.577 116.928 179.577C108.339 179.577 108.11 172.813 108.11 172.813H125.739Z" fill="#F0F0F0"/>
<path d="M125.739 168.329C125.739 168.329 125.517 175.093 116.928 175.093C108.339 175.093 108.11 168.329 108.11 168.329H125.739Z" fill="#F0F0F0"/>
<path d="M239.396 100.763H295.682V21.9083H239.396V100.763Z" fill="#E6E6E6"/>
<path d="M223.771 100.763L289.327 100.763V21.9083L223.771 21.9083V100.763Z" fill="#F5F5F5"/>
<path d="M280.947 95.6975V26.9751L232.151 26.9751V95.6975H280.947Z" fill="white"/>
<path d="M256.998 96.5767V26.0957H256.107V96.5767H256.998Z" fill="#F5F5F5"/>
<path d="M294.881 218.248H308.948V128.618H294.881V218.248Z" fill="#F0F0F0"/>
<path d="M189.235 222.36H305.238V218.241H189.235V222.36Z" fill="#F0F0F0"/>
<path d="M294.881 128.611H185.526V218.241H294.881V128.611Z" fill="#F5F5F5"/>
<path d="M287.281 161.004H193.126V182.324H287.281V161.004Z" fill="#F0F0F0"/>
<path d="M287.281 188.919H193.126V210.239H287.281V188.919Z" fill="#F0F0F0"/>
<path d="M213.052 162.472H267.361C268.149 162.472 268.788 161.851 268.788 161.085V160.936C268.788 160.17 268.149 159.55 267.361 159.55H213.052C212.264 159.55 211.626 160.17 211.626 160.936V161.085C211.626 161.851 212.264 162.472 213.052 162.472Z" fill="#F5F5F5"/>
<path d="M213.052 190.38H267.361C268.149 190.38 268.788 189.759 268.788 188.993V188.844C268.788 188.079 268.149 187.458 267.361 187.458H213.052C212.264 187.458 211.626 188.079 211.626 188.844V188.993C211.626 189.759 212.264 190.38 213.052 190.38Z" fill="#F5F5F5"/>
<path d="M287.281 133.096H193.126V154.416H287.281V133.096Z" fill="#F0F0F0"/>
<path d="M213.052 134.563H267.361C268.149 134.563 268.788 133.943 268.788 133.177V133.028C268.788 132.262 268.149 131.641 267.361 131.641H213.052C212.264 131.641 211.626 132.262 211.626 133.028V133.177C211.626 133.943 212.264 134.563 213.052 134.563Z" fill="#F5F5F5"/>
<path d="M205.745 67.2885C207.895 67.2885 209.958 66.4582 211.478 64.9804C212.999 63.5026 213.853 61.4983 213.853 59.4084C213.853 57.3185 212.999 55.3141 211.478 53.8363C209.958 52.3585 207.895 51.5283 205.745 51.5283H204.756V67.2885H205.745Z" fill="#E0E0E0"/>
<path d="M204.756 67.2885C209.234 67.2885 212.865 63.7604 212.865 59.4084C212.865 55.0563 209.234 51.5283 204.756 51.5283C200.278 51.5283 196.648 55.0563 196.648 59.4084C196.648 63.7604 200.278 67.2885 204.756 67.2885Z" fill="#F5F5F5"/>
<path d="M203.928 60.896C199.603 60.8907 195.458 59.2183 192.401 56.2459C189.343 53.2735 187.624 49.2439 187.621 45.0412V35.5716C187.621 35.1769 187.782 34.7984 188.069 34.5193C188.356 34.2403 188.746 34.0835 189.152 34.0835C189.558 34.0835 189.947 34.2403 190.235 34.5193C190.522 34.7984 190.683 35.1769 190.683 35.5716V45.0412C190.694 48.4464 192.091 51.709 194.568 54.1168C197.046 56.5247 200.403 57.8821 203.907 57.8928C204.108 57.8928 204.307 57.9313 204.493 58.0061C204.679 58.0809 204.848 58.1905 204.99 58.3287C205.132 58.4668 205.245 58.6309 205.322 58.8114C205.399 58.992 205.438 59.1855 205.438 59.3809C205.438 59.5763 205.399 59.7698 205.322 59.9504C205.245 60.1309 205.132 60.295 204.99 60.4331C204.848 60.5713 204.679 60.6809 204.493 60.7557C204.307 60.8305 204.108 60.869 203.907 60.869L203.928 60.896Z" fill="#E0E0E0"/>
<path d="M175.392 43.9118H202.926C203.356 43.9112 203.781 43.8207 204.172 43.6467C204.564 43.4726 204.912 43.2189 205.194 42.9028C205.476 42.5867 205.684 42.2155 205.806 41.8143C205.927 41.413 205.958 40.9912 205.898 40.5772L203.531 24.5938C203.258 22.758 202.314 21.0793 200.87 19.8655C199.427 18.6517 197.582 17.9842 195.673 17.9854H182.658C180.75 17.9842 178.904 18.6517 177.461 19.8655C176.018 21.0793 175.073 22.758 174.8 24.5938L172.427 40.5501C172.361 40.9658 172.388 41.3905 172.506 41.795C172.625 42.1996 172.832 42.5744 173.114 42.8938C173.395 43.2131 173.745 43.4695 174.138 43.6452C174.531 43.8209 174.959 43.9119 175.392 43.9118Z" fill="#F5F5F5"/>
<path d="M174 252.92C248.529 252.92 308.947 249.492 308.947 245.263C308.947 241.035 248.529 237.606 174 237.606C99.4705 237.606 39.0525 241.035 39.0525 245.263C39.0525 249.492 99.4705 252.92 174 252.92Z" fill="#F5F5F5"/>
<path d="M204.492 234.414L199.223 232.811L201.645 220.521L206.914 222.13L204.492 234.414Z" fill="#FF8B7B"/>
<path d="M252.342 239.784H246.815L242.514 227.352H248.033L252.342 239.784Z" fill="#FF8B7B"/>
<path d="M246.078 239.162H252.815C252.924 239.161 253.03 239.197 253.115 239.264C253.2 239.331 253.259 239.424 253.281 239.527L254.374 244.296C254.4 244.412 254.399 244.533 254.371 244.648C254.342 244.764 254.287 244.872 254.209 244.964C254.131 245.056 254.033 245.129 253.922 245.179C253.81 245.228 253.689 245.253 253.567 245.25C251.395 245.216 249.815 245.094 247.087 245.094C245.41 245.094 240.35 245.263 238.039 245.263C235.728 245.263 235.422 243.031 236.368 242.835C240.621 241.929 243.83 240.684 245.194 239.494C245.436 239.281 245.751 239.163 246.078 239.162Z" fill="#263238"/>
<path d="M199.453 232.249L205.209 234.001C205.312 234.034 205.402 234.1 205.462 234.188C205.523 234.277 205.551 234.382 205.543 234.488L205.111 239.358C205.102 239.476 205.065 239.59 205.003 239.692C204.941 239.793 204.856 239.88 204.755 239.945C204.654 240.01 204.539 240.052 204.418 240.068C204.298 240.083 204.175 240.072 204.06 240.035C201.972 239.358 199.035 238.337 196.404 237.545C193.356 236.612 190.426 235.773 186.848 234.678C184.684 234.001 184.76 231.715 185.735 231.796C190.14 232.175 193.78 233.311 198.033 232.263C198.495 232.126 198.988 232.121 199.453 232.249Z" fill="#263238"/>
<path d="M231.622 78.7061C230.696 79.971 229.694 81.3238 228.747 82.6563C227.801 83.9888 226.861 85.3619 225.929 86.7147C224.091 89.4203 222.316 92.1598 220.743 94.9195C220.333 95.5959 219.999 96.2723 219.616 96.996C219.233 97.7198 218.92 98.3488 218.614 99.0252C218.307 99.7016 218.015 100.378 217.751 101.054L217.59 101.46C217.579 101.494 217.563 101.526 217.542 101.555C217.542 101.555 217.542 101.555 217.542 101.257V101.115C217.542 101.048 217.542 100.987 217.542 100.912C217.53 100.801 217.509 100.69 217.479 100.581C217.479 100.493 217.43 100.405 217.403 100.324L217.361 100.195L217.277 100.006C217.216 99.8713 217.146 99.7403 217.068 99.6137C216.952 99.4296 216.817 99.2574 216.665 99.0996C216.26 98.6663 215.747 98.3424 215.175 98.1594C214.905 98.0716 214.624 98.0171 214.34 97.9971C214.21 97.987 214.08 97.987 213.95 97.9971H213.672C213.386 98.0285 213.105 98.0968 212.837 98.2C212.694 98.2555 212.555 98.3187 212.419 98.3894C212.34 98.4321 212.263 98.4796 212.19 98.5315L212.05 98.6397L211.96 98.7141C211.905 98.7555 211.856 98.8032 211.814 98.8561C211.765 98.9373 211.876 98.8561 211.967 98.7479C212.384 98.3083 212.927 97.6657 213.414 97.0434L214.946 95.0953C215.99 93.7899 217.034 92.4574 218.147 91.1722L221.808 93.0661C221.3 94.7301 220.695 96.3196 220.033 97.9159C219.685 98.7073 219.337 99.5055 218.955 100.297C218.547 101.157 218.082 101.991 217.563 102.793C217.366 103.096 217.145 103.383 216.901 103.652C216.783 103.78 216.658 103.902 216.526 104.017L216.372 104.139L216.164 104.288C216.068 104.355 215.968 104.416 215.864 104.47C215.707 104.556 215.544 104.633 215.377 104.7C215.084 104.81 214.778 104.883 214.465 104.917H214.166C214.041 104.917 213.895 104.917 213.756 104.917C213.459 104.898 213.167 104.841 212.886 104.748C212.575 104.65 212.28 104.511 212.009 104.335C211.751 104.177 211.517 103.986 211.313 103.767C211.151 103.599 211.009 103.416 210.888 103.219C210.802 103.082 210.725 102.94 210.658 102.793L210.568 102.583L210.519 102.441C210.484 102.346 210.456 102.245 210.429 102.15C210.401 102.056 210.373 101.873 210.352 101.738V101.454V101.237C210.347 100.93 210.366 100.622 210.408 100.317C210.408 100.114 210.463 99.9451 210.491 99.7963C210.547 99.492 210.603 99.2417 210.665 98.9914C210.892 98.0746 211.174 97.1713 211.507 96.2858C211.821 95.4133 212.203 94.5813 212.531 93.7425C212.858 92.9038 213.275 92.0989 213.679 91.321C215.253 88.1995 217.002 85.1646 218.92 82.2302C219.866 80.7827 220.834 79.3487 221.85 77.9486C222.866 76.5484 223.861 75.1618 224.989 73.7549L231.622 78.7061Z" fill="#FF8B7B"/>
<path d="M234.552 75.0196C235.624 80.0385 224.07 92.606 224.07 92.606L214.083 85.1656C216.419 81.069 219.2 77.2276 222.379 73.7074C227.105 68.7223 233.334 69.5069 234.552 75.0196Z" fill="#FFD166"/>
<path opacity="0.2" d="M226.2 78.5167C223.416 79.5042 221.947 86.0721 220.347 89.8532L224.042 92.5994C226.804 89.5559 229.33 86.3184 231.601 82.9133C230.272 80.0589 229.381 77.3939 226.2 78.5167Z" fill="black"/>
<path opacity="0.2" d="M201.645 220.527L200.399 226.858L205.668 228.461L206.921 222.13L201.645 220.527Z" fill="black"/>
<path opacity="0.2" d="M248.04 227.359H242.514L244.734 233.764H250.261L248.04 227.359Z" fill="black"/>
<path d="M259.232 74.7697C257.113 80.4075 255.428 86.191 254.193 92.0721C253.309 96.171 252.648 100.101 252.105 103.672C250.908 112.033 250.539 118.458 250.094 120.582C245.813 119.906 229.694 117.498 220.91 116.159C219.581 85.4163 228.566 70.3799 228.566 70.3799C230.927 70.1479 233.3 70.0598 235.672 70.1161C236.167 70.1161 236.675 70.1161 237.19 70.1837C241.36 70.5796 245.503 71.2074 249.599 72.0641C250.379 72.2197 251.158 72.3955 251.924 72.5782C255.856 73.5522 259.232 74.7697 259.232 74.7697Z" fill="#FFD166"/>
<path opacity="0.2" d="M255.195 85.8625L249.077 92.4642C249.077 92.4642 247.964 104.308 251.284 110.409C251.513 108.38 251.792 106.1 252.14 103.645C252.648 100.074 253.309 96.1438 254.228 92.0448C254.687 89.9074 255.209 87.7226 255.794 85.5176L255.195 85.8625Z" fill="black"/>
<path d="M250.602 58.3262C249.21 62.087 247.275 69.0742 249.655 72.0909C248.225 73.1493 246.578 73.8973 244.825 74.2847C243.072 74.6721 241.254 74.6898 239.494 74.3366C236.069 73.7414 236.271 71.3875 237.246 70.2105C241.867 69.8521 242.264 66.6256 241.971 63.4939L250.602 58.3262Z" fill="#FF8B7B"/>
<path opacity="0.2" d="M247.08 60.4434L241.971 63.4939C242.049 64.2243 242.06 64.9599 242.006 65.6922C243.746 65.6922 246.377 64.2515 246.83 62.547C247.042 61.866 247.127 61.1535 247.08 60.4434Z" fill="black"/>
<path d="M241.268 42.1806C237.371 40.422 235.603 53.1383 238.338 54.9714C241.074 56.8044 248.556 45.4544 241.268 42.1806Z" fill="#263238"/>
<path d="M252.015 52.5629C250.838 57.7645 250.421 60.8691 247.261 63.1486C242.507 66.5847 236.222 63.1486 235.77 57.7374C235.366 52.847 237.357 45.1631 242.981 43.8712C244.219 43.5816 245.512 43.6041 246.739 43.9367C247.965 44.2692 249.084 44.9007 249.989 45.7714C250.894 46.642 251.555 47.7229 251.909 48.9115C252.264 50.1 252.3 51.3569 252.015 52.5629Z" fill="#FF8B7B"/>
<path d="M250.81 57.6497C248.381 59.0025 248.479 43.0259 253.226 45.3731C261.271 49.3435 256.552 54.4233 250.81 57.6497Z" fill="#263238"/>
<path d="M256.525 48.2682C254.318 50.2298 233.967 37.9395 242.66 35.9577C252.397 33.7188 260.756 44.4803 256.525 48.2682Z" fill="#263238"/>
<path d="M252.3 48.4644C249.815 50.081 226.235 45.5423 231.977 38.8933C238.839 30.9388 257.45 45.1094 252.3 48.4644Z" fill="#263238"/>
<path d="M253.525 58.7253C252.617 59.732 251.336 60.3494 249.962 60.4433C248.138 60.5515 247.609 58.8808 248.437 57.3995C249.175 56.0467 251.019 54.4098 252.697 54.9983C254.374 55.5867 254.625 57.4739 253.525 58.7253Z" fill="#FF8B7B"/>
<path d="M198.805 225.072L207.728 227.778C207.728 227.778 216.734 196.068 219.804 179.618C220.736 174.613 222.727 167.7 225.114 160.321C228.121 151.027 231.754 141.003 234.698 133.17C237.802 124.911 240.127 119.08 240.127 119.08L220.938 116.172C220.938 116.172 205.355 159.543 203.35 175.81C201.269 192.727 198.805 225.072 198.805 225.072Z" fill="#FFD166"/>
<path opacity="0.6" d="M198.805 225.072L207.728 227.778C207.728 227.778 216.734 196.068 219.804 179.618C220.736 174.613 222.727 167.7 225.114 160.321C228.121 151.027 231.754 141.003 234.698 133.17C237.802 124.911 240.127 119.08 240.127 119.08L220.938 116.172C220.938 116.172 205.355 159.543 203.35 175.81C201.269 192.727 198.805 225.072 198.805 225.072Z" fill="black"/>
<path opacity="0.2" d="M225.114 160.334C228.121 151.041 231.754 141.016 234.698 133.184L233.063 128.828C227.794 133.955 225.003 150.959 225.114 160.334Z" fill="black"/>
<path d="M231.288 117.755C231.288 117.755 229.36 163.71 230.32 179.402C231.371 196.589 242.152 232.527 242.152 232.527H252.265C252.265 232.527 247.922 199.897 246.21 183.19C244.261 164.163 250.135 120.609 250.135 120.609L231.288 117.755Z" fill="#FFD166"/>
<path opacity="0.6" d="M231.288 117.755C231.288 117.755 229.36 163.71 230.32 179.402C231.371 196.589 242.152 232.527 242.152 232.527H252.265C252.265 232.527 247.922 199.897 246.21 183.19C244.261 164.163 250.135 120.609 250.135 120.609L231.288 117.755Z" fill="black"/>
<path d="M240.927 232.736H252.836V229.28L239.521 229.05L240.927 232.736Z" fill="#FFD166"/>
<path d="M197.615 224.938L208.25 228.178L209.329 224.836L197.497 221.042L197.615 224.938Z" fill="#FFD166"/>
<path d="M243.6 52.7861C243.53 53.2123 243.245 53.5234 242.96 53.4626C242.674 53.4017 242.493 53.0364 242.563 52.6103C242.633 52.1842 242.918 51.873 243.203 51.9339C243.489 51.9948 243.649 52.36 243.6 52.7861Z" fill="#263238"/>
<path d="M238.61 52.0358C238.54 52.4619 238.248 52.7731 237.962 52.7122C237.677 52.6513 237.496 52.2928 237.566 51.8599C237.635 51.427 237.921 51.1227 238.213 51.1835C238.505 51.2444 238.672 51.6029 238.61 52.0358Z" fill="#263238"/>
<path d="M240.155 52.4888C239.42 53.7141 238.516 54.8361 237.468 55.8234C237.737 56.0734 238.059 56.2634 238.411 56.3802C238.763 56.497 239.137 56.5378 239.508 56.4998L240.155 52.4888Z" fill="#FF5652"/>
<path d="M241.178 57.9541C240.984 57.9488 240.791 57.9307 240.6 57.9C240.583 57.8983 240.566 57.8933 240.551 57.8851C240.536 57.877 240.523 57.8659 240.513 57.8525C240.502 57.8392 240.495 57.8239 240.491 57.8076C240.487 57.7914 240.486 57.7744 240.489 57.7579C240.496 57.7257 240.514 57.6969 240.541 57.677C240.568 57.6571 240.601 57.6474 240.635 57.6497C241.181 57.7484 241.743 57.7189 242.274 57.5636C242.806 57.4083 243.291 57.1317 243.691 56.7568C243.703 56.7448 243.717 56.7352 243.734 56.7286C243.75 56.7221 243.767 56.7188 243.784 56.7188C243.802 56.7188 243.819 56.7221 243.835 56.7286C243.852 56.7352 243.866 56.7448 243.878 56.7568C243.891 56.7682 243.9 56.7819 243.907 56.797C243.914 56.8121 243.917 56.8283 243.917 56.8448C243.917 56.8612 243.914 56.8775 243.907 56.8926C243.9 56.9077 243.891 56.9213 243.878 56.9327C243.524 57.2726 243.101 57.5385 242.637 57.7141C242.172 57.8897 241.676 57.9714 241.178 57.9541Z" fill="#263238"/>
<path d="M245.368 51.4605C245.321 51.4575 245.276 51.4436 245.236 51.42C245.196 51.3965 245.163 51.364 245.138 51.3252C244.991 51.0407 244.777 50.7939 244.513 50.6047C244.25 50.4155 243.944 50.2893 243.621 50.2362C243.583 50.2385 243.545 50.2329 243.51 50.2197C243.474 50.2065 243.442 50.1861 243.416 50.1598C243.389 50.1335 243.369 50.102 243.356 50.0674C243.343 50.0328 243.338 49.9959 243.341 49.9592C243.344 49.9225 243.355 49.8868 243.373 49.8547C243.392 49.8225 243.417 49.7946 243.448 49.7727C243.478 49.7509 243.513 49.7357 243.55 49.7281C243.587 49.7206 243.626 49.7208 243.663 49.7289C244.073 49.7878 244.463 49.9414 244.799 50.1768C245.136 50.4121 245.41 50.7224 245.598 51.0817C245.63 51.1411 245.637 51.2104 245.618 51.2749C245.598 51.3394 245.553 51.3939 245.493 51.4267C245.455 51.4472 245.412 51.4588 245.368 51.4605Z" fill="#263238"/>
<path d="M236.731 50.0471C236.678 50.0437 236.628 50.0274 236.584 49.9998C236.556 49.9809 236.532 49.9567 236.514 49.9287C236.495 49.9007 236.483 49.8694 236.477 49.8367C236.471 49.804 236.472 49.7704 236.48 49.738C236.488 49.7056 236.502 49.6751 236.522 49.6481C236.753 49.3117 237.062 49.0334 237.425 48.8358C237.788 48.6383 238.194 48.5272 238.61 48.5117C238.68 48.5117 238.747 48.5388 238.797 48.587C238.846 48.6352 238.874 48.7006 238.874 48.7687C238.874 48.8369 238.846 48.9023 238.797 48.9505C238.747 48.9987 238.68 49.0258 238.61 49.0258C238.281 49.0353 237.959 49.1236 237.674 49.2829C237.389 49.4422 237.148 49.6676 236.974 49.9389C236.945 49.9745 236.908 50.0029 236.866 50.0217C236.823 50.0406 236.777 50.0493 236.731 50.0471Z" fill="#263238"/>
<path d="M244.254 240.095C243.878 240.123 243.503 240.028 243.189 239.825C243.091 239.742 243.016 239.637 242.968 239.519C242.921 239.401 242.904 239.274 242.918 239.148C242.917 239.074 242.938 239 242.979 238.937C243.02 238.873 243.078 238.822 243.148 238.79C243.753 238.479 245.535 239.548 245.737 239.669C245.758 239.683 245.776 239.702 245.787 239.725C245.798 239.748 245.802 239.773 245.799 239.798C245.793 239.821 245.781 239.843 245.764 239.861C245.747 239.879 245.726 239.892 245.702 239.899C245.228 240.015 244.743 240.081 244.254 240.095ZM243.433 239.013C243.375 239.012 243.318 239.023 243.266 239.047C243.239 239.061 243.216 239.083 243.201 239.109C243.187 239.136 243.18 239.166 243.182 239.196C243.17 239.28 243.179 239.367 243.209 239.447C243.24 239.528 243.29 239.599 243.356 239.656C243.663 239.906 244.379 239.94 245.319 239.757C244.746 239.393 244.105 239.14 243.433 239.013Z" fill="#FFD166"/>
<path d="M245.688 239.906C245.668 239.912 245.646 239.912 245.625 239.906C245.055 239.609 243.948 238.432 244.066 237.83C244.087 237.737 244.139 237.653 244.215 237.593C244.291 237.532 244.386 237.499 244.484 237.498C244.583 237.488 244.684 237.497 244.779 237.525C244.875 237.553 244.964 237.599 245.041 237.661C245.681 238.175 245.813 239.69 245.82 239.784C245.821 239.807 245.816 239.83 245.805 239.85C245.794 239.87 245.778 239.887 245.758 239.899C245.736 239.908 245.711 239.911 245.688 239.906ZM244.574 237.735H244.512C244.345 237.735 244.331 237.836 244.324 237.863C244.254 238.222 244.957 239.108 245.528 239.527C245.488 238.915 245.26 238.328 244.874 237.843C244.785 237.769 244.671 237.73 244.554 237.735H244.574Z" fill="#FFD166"/>
<path d="M198.701 232.777C197.796 232.682 196.223 232.425 195.806 231.749C195.742 231.648 195.705 231.534 195.697 231.416C195.69 231.298 195.713 231.18 195.764 231.072C195.788 231.008 195.829 230.95 195.883 230.905C195.936 230.86 196.001 230.829 196.07 230.815C196.829 230.66 198.604 232.351 198.805 232.547C198.821 232.568 198.829 232.592 198.829 232.618C198.829 232.643 198.821 232.668 198.805 232.689C198.799 232.712 198.785 232.732 198.767 232.748C198.748 232.764 198.725 232.774 198.701 232.777ZM196.161 231.072H196.112C196.085 231.077 196.059 231.089 196.038 231.107C196.017 231.125 196.002 231.148 195.994 231.174C195.956 231.241 195.936 231.317 195.936 231.394C195.936 231.47 195.956 231.546 195.994 231.613C196.23 231.992 197.079 232.29 198.304 232.472C197.615 231.837 196.606 231.059 196.161 231.072Z" fill="#FFD166"/>
<path d="M198.701 232.777C198.671 232.785 198.64 232.785 198.61 232.777C198.068 232.31 197.163 230.815 197.448 230.267C197.518 230.139 197.671 229.997 198.019 230.071C198.148 230.094 198.27 230.143 198.378 230.216C198.486 230.288 198.577 230.382 198.645 230.491C199.146 231.228 198.84 232.648 198.826 232.709C198.823 232.731 198.814 232.752 198.799 232.769C198.784 232.785 198.765 232.798 198.743 232.804L198.701 232.777ZM197.831 230.267C197.72 230.267 197.692 230.328 197.685 230.349C197.511 230.673 198.088 231.81 198.61 232.378C198.742 231.777 198.679 231.15 198.43 230.585C198.379 230.507 198.312 230.439 198.232 230.387C198.153 230.334 198.064 230.298 197.97 230.281L197.831 230.267Z" fill="#FFD166"/>
<path d="M262.155 81.0802C262.051 82.0136 261.947 82.8185 261.8 83.6776C261.654 84.5366 261.515 85.3618 261.355 86.2005C261.056 87.878 260.659 89.5352 260.227 91.1992C259.351 94.5701 258.187 97.8642 256.747 101.048L256.17 102.258L255.536 103.462L255.376 103.767L255.3 103.915L255.174 104.132C254.927 104.565 254.628 104.969 254.284 105.336C253.449 106.218 252.338 106.807 251.124 107.013C250.194 107.159 249.242 107.099 248.34 106.838C247.702 106.652 247.086 106.403 246.502 106.094C245.577 105.592 244.709 104.996 243.913 104.315C243.2 103.719 242.523 103.082 241.888 102.407C241.254 101.731 240.67 101.095 240.113 100.412C238.996 99.0677 237.975 97.6507 237.058 96.1707L240.259 93.6071C242.64 95.6345 245.166 97.4948 247.818 99.1739C248.357 99.4913 248.925 99.7585 249.516 99.9721C249.681 100.041 249.858 100.077 250.038 100.08C250.122 100.08 250.038 99.9991 249.732 100.026C249.35 100.079 248.994 100.247 248.716 100.506C248.611 100.608 248.562 100.676 248.535 100.696V100.635L248.583 100.506L248.695 100.249L249.126 99.228L249.523 98.1796C250.574 95.2793 251.428 92.3147 252.077 89.3052C252.432 87.7766 252.773 86.2411 253.045 84.6989C253.316 83.1567 253.595 81.5604 253.824 80.1265L262.155 81.0802Z" fill="#FF8B7B"/>
<path d="M263.234 77.8943C266.234 82.115 261.55 96.5494 261.55 96.5494L248.326 93.4853C248.98 89.0212 250.051 84.6243 251.528 80.3496C254.04 73.5382 259.608 72.7807 263.234 77.8943Z" fill="#FFD166"/>
<path d="M240.663 93.9588L237.413 89.5283L233.891 95.4671C233.891 95.4671 237.524 98.653 239.459 96.9755L240.663 93.9588Z" fill="#FF8B7B"/>
<path d="M233 88.2095L230.327 93.2554L233.898 95.4537L237.412 89.5149L233 88.2095Z" fill="#FF8B7B"/>
<path d="M218.753 90.692L222.184 86.3833L225.448 92.4709C225.448 92.4709 221.69 95.5012 219.811 93.7493L218.753 90.692Z" fill="#FF8B7B"/>
<path d="M226.652 85.2603L229.109 90.4077L225.448 92.4639L222.184 86.3831L226.652 85.2603Z" fill="#FF8B7B"/>
<path d="M99.3888 53.0028C98.1917 50.8045 98.9294 47.0708 105.367 47.0167C111.805 46.9626 119.079 47.2534 117.965 41.5581C123.533 42.4577 127.361 47.3008 124.674 50.4866C120.366 55.5799 123.387 59.1851 120.352 61.1467C116.128 63.8929 114.784 77.3803 105.521 74.0592C106.384 69.0673 91.9068 57.5482 99.3888 53.0028Z" fill="#263238"/>
<path d="M129.331 86.8228C129.484 88.4394 129.686 90.2048 129.936 91.889C130.187 93.5732 130.437 95.271 130.785 96.9755C131.419 100.313 132.308 103.601 133.444 106.81L133.896 107.974L134.105 108.501C134.105 108.535 134.105 108.501 134.057 108.501C133.917 108.374 133.739 108.296 133.548 108.278C133.451 108.278 133.59 108.326 133.806 108.278C134.451 108.113 135.067 107.858 135.636 107.521C136.36 107.132 137.058 106.698 137.724 106.222C139.151 105.23 140.524 104.166 141.838 103.036C143.181 101.907 144.531 100.716 145.819 99.5391L148.13 101.433C145.957 104.463 143.461 107.261 140.682 109.78C139.936 110.439 139.15 111.055 138.33 111.626C137.383 112.292 136.339 112.817 135.233 113.182C134.443 113.432 133.608 113.515 132.783 113.426C132.238 113.363 131.709 113.202 131.224 112.952C130.731 112.698 130.29 112.359 129.922 111.951C129.61 111.607 129.347 111.222 129.143 110.808C129.104 110.743 129.069 110.675 129.038 110.605L128.962 110.443L128.809 110.118L128.21 108.819C126.755 105.374 125.632 101.806 124.855 98.1592C124.459 96.36 124.104 94.5608 123.846 92.748C123.589 90.9353 123.359 89.1428 123.241 87.2151L129.331 86.8228Z" fill="#FFC3BD"/>
<path d="M127.02 80.0996C129.108 80.6272 130.319 94.1755 130.319 94.1755L124.709 97.4561C124.709 97.4561 121.32 87.4453 121.835 83.1231C122.211 79.9779 125.433 79.7073 127.02 80.0996Z" fill="#FFC3BD"/>
<path d="M145.749 99.1334L148.972 94.1821L150.802 99.803C150.802 99.803 148.157 102.509 145.763 101.832L145.749 99.1334Z" fill="#FFC3BD"/>
<path d="M153.705 92.5386L154.971 97.3343L150.802 99.8031L148.972 94.1822L153.705 92.5386Z" fill="#FFC3BD"/>
<path d="M115.035 239.365H121.007L123.54 218.052H115.348L115.035 239.365Z" fill="#FFC3BD"/>
<path d="M77.5344 231.532L83.3182 232.986L92.1991 213.425L84.1951 211.227L77.5344 231.532Z" fill="#FFC3BD"/>
<path d="M84.216 232.053L78.0424 229.503C77.9372 229.456 77.8175 229.448 77.7068 229.482C77.5962 229.516 77.5024 229.588 77.4439 229.686L74.6599 234.143C74.5946 234.258 74.5548 234.384 74.5432 234.515C74.5315 234.645 74.5482 234.776 74.5922 234.9C74.6361 235.024 74.7064 235.137 74.7984 235.233C74.8904 235.329 75.0021 235.404 75.1262 235.455C77.2977 236.307 78.3904 236.612 81.1048 237.735C82.7752 238.411 85.1416 239.602 87.4454 240.555C89.7492 241.509 90.8489 239.338 89.9719 238.743C86.0604 236.037 85.9212 234.542 84.9885 232.756C84.8233 232.441 84.55 232.193 84.216 232.053Z" fill="#263238"/>
<path d="M121.208 238.688H114.499C114.384 238.688 114.272 238.728 114.185 238.801C114.097 238.875 114.041 238.976 114.026 239.088L113.26 244.249C113.246 244.379 113.261 244.51 113.303 244.635C113.345 244.759 113.414 244.874 113.504 244.971C113.595 245.068 113.706 245.145 113.829 245.198C113.952 245.25 114.086 245.277 114.221 245.277C116.559 245.236 117.701 245.108 120.638 245.108C122.447 245.108 126.206 245.29 128.711 245.29C131.217 245.29 131.349 242.882 130.305 242.659C125.628 241.685 123.784 240.332 122.211 239.047C121.93 238.818 121.575 238.691 121.208 238.688Z" fill="#263238"/>
<path d="M127.368 80.0925C127.368 80.0925 130.208 81.0665 124.514 115.117H100.287C100.697 105.525 100.704 99.6134 95.9922 79.9437C99.3851 79.2504 102.826 78.7982 106.286 78.5909C109.952 78.3369 113.631 78.3369 117.297 78.5909C122.03 79.0238 127.368 80.0925 127.368 80.0925Z" fill="#263238"/>
<path d="M107.379 66.5308C108.075 69.9736 108.771 76.2845 106.286 78.5775C109.384 81.7724 112.991 84.4607 116.97 86.5387C120.408 81.1275 117.297 78.5775 117.297 78.5775C113.351 77.6643 113.448 74.8167 114.137 72.1381L107.379 66.5308Z" fill="#FFC3BD"/>
<path d="M107.657 75.6828C109.744 75.8564 111.843 75.8156 113.921 75.561C113.941 75.5581 113.962 75.5618 113.98 75.5716C113.997 75.5815 114.011 75.5968 114.019 75.6151C114.081 75.7707 114.248 76.1969 114.381 76.4877C114.39 76.5066 114.392 76.5285 114.386 76.5487C114.379 76.5689 114.365 76.5859 114.346 76.5959C113.65 76.9409 110.205 77.3806 107.386 76.8665C107.373 76.8643 107.361 76.8593 107.35 76.8521C107.339 76.8449 107.33 76.8355 107.324 76.8245C107.317 76.8136 107.313 76.8014 107.312 76.7888C107.31 76.7762 107.312 76.7635 107.316 76.7515C107.428 76.3457 107.546 75.9128 107.588 75.7504C107.589 75.733 107.597 75.7167 107.61 75.7043C107.622 75.6919 107.639 75.6843 107.657 75.6828Z" fill="#FFD166"/>
<path opacity="0.2" d="M110.135 68.8442L114.137 72.1654C113.967 72.7858 113.853 73.4195 113.796 74.0593C112.286 73.8496 110.212 72.2398 110.052 70.6773C109.97 70.0662 109.998 69.4459 110.135 68.8442Z" fill="black"/>
<path d="M103.641 60.2404C105.033 65.841 105.493 68.2355 108.966 70.6367C114.186 74.2419 120.958 71.3605 121.32 65.4758C121.647 60.1728 119.315 51.9072 113.204 50.6355C111.858 50.3485 110.459 50.4009 109.139 50.7877C107.82 51.1745 106.624 51.8828 105.666 52.8454C104.707 53.8079 104.018 54.9927 103.664 56.287C103.31 57.5814 103.302 58.9423 103.641 60.2404Z" fill="#FFC3BD"/>
<path d="M124.542 115.117C124.542 115.117 129.247 159.82 128.857 177.515C128.454 195.926 124.681 218.687 124.681 218.687H114.269C114.269 218.687 114.715 197.002 113.998 178.922C113.225 159.211 106.78 115.117 106.78 115.117H124.542Z" fill="#FFD166"/>
<path d="M113.378 219.695H125.12L125.976 216.76L112.829 216.401L113.378 219.695Z" fill="#263238"/>
<path opacity="0.2" d="M114.081 126.244C120.032 137.885 115.271 159.13 113.17 167.031C112.091 155.16 110.267 140.651 108.847 129.998C109.752 123.971 111.36 120.873 114.081 126.244Z" fill="black"/>
<path d="M118.132 115.117C118.132 115.117 112.641 161.592 108.492 176.514C103.565 194.222 93.5005 213.783 93.5005 213.783L83.0605 210.922C83.0605 210.922 88.9139 187.045 92.6793 177.711C100.718 157.798 93.8346 128.117 100.259 115.117H118.132Z" fill="#FFD166"/>
<path d="M82.4412 212.465L93.264 215.38L95.2128 212.681L83.2068 208.792L82.4412 212.465Z" fill="#263238"/>
<path d="M113.372 60.3552C113.455 60.8152 113.775 61.1466 114.068 61.0925C114.36 61.0384 114.562 60.619 114.478 60.1591C114.395 59.6991 114.074 59.3677 113.782 59.4218C113.49 59.4759 113.288 59.8953 113.372 60.3552Z" fill="#263238"/>
<path d="M118.731 59.4285C118.821 59.8885 119.134 60.2199 119.427 60.1658C119.719 60.1117 119.921 59.6991 119.837 59.2392C119.754 58.7792 119.434 58.4478 119.141 58.5019C118.849 58.556 118.647 58.9686 118.731 59.4285Z" fill="#263238"/>
<path d="M119.016 58.5492L120.102 58.0352C120.102 58.0352 119.663 58.9956 119.016 58.5492Z" fill="#263238"/>
<path d="M117.213 60.4434C117.828 61.4216 118.577 62.3137 119.441 63.0949C119.228 63.3029 118.972 63.4639 118.69 63.5666C118.408 63.6694 118.106 63.7115 117.805 63.6901L117.213 60.4434Z" fill="#ED847E"/>
<path d="M115.299 65.8546C115.57 65.8542 115.84 65.8316 116.107 65.787C116.125 65.7838 116.143 65.777 116.159 65.767C116.174 65.757 116.188 65.744 116.198 65.7289C116.208 65.7137 116.216 65.6967 116.219 65.6788C116.222 65.6609 116.222 65.6425 116.218 65.6247C116.216 65.607 116.209 65.59 116.2 65.5748C116.19 65.5596 116.178 65.5465 116.163 65.5363C116.148 65.5261 116.13 65.5191 116.112 65.5157C116.094 65.5123 116.076 65.5125 116.058 65.5164C115.47 65.6308 114.862 65.609 114.284 65.4527C113.706 65.2964 113.174 65.0101 112.731 64.6168C112.719 64.6037 112.704 64.5932 112.687 64.5861C112.67 64.5789 112.652 64.5752 112.634 64.5752C112.615 64.5752 112.597 64.5789 112.581 64.5861C112.564 64.5932 112.549 64.6037 112.536 64.6168C112.51 64.6432 112.496 64.6784 112.496 64.7149C112.496 64.7514 112.51 64.7866 112.536 64.813C113.284 65.4941 114.274 65.8674 115.299 65.8546Z" fill="#263238"/>
<path d="M101.706 52.2114C105.131 53.8483 108.548 53.1381 108.722 57.2709C108.896 61.4037 103.043 68.0933 101.706 63.3585C100.37 58.6237 101.706 52.2114 101.706 52.2114Z" fill="#263238"/>
<path d="M102.73 54.3555C107.149 56.0938 119.322 56.547 119.058 51.244C118.793 45.941 108.27 48.2881 105.256 49.4245C102.242 50.5609 102.73 54.3555 102.73 54.3555Z" fill="#263238"/>
<path d="M103.398 64.4612C103.616 64.9703 103.936 65.4324 104.338 65.8212C104.741 66.2101 105.218 66.5179 105.743 66.7272C107.135 67.2818 108.019 66.0913 107.768 64.698C107.539 63.4601 106.537 61.6745 105.054 61.715C104.728 61.7268 104.41 61.8183 104.13 61.9811C103.849 62.1439 103.616 62.3728 103.451 62.6465C103.286 62.9203 103.194 63.2301 103.185 63.5473C103.176 63.8645 103.249 64.1788 103.398 64.4612Z" fill="#FFC3BD"/>
<path d="M111.297 57.2708C111.335 57.2716 111.373 57.2642 111.408 57.249C111.443 57.2337 111.474 57.2112 111.499 57.1829C111.738 56.9275 112.034 56.7297 112.365 56.6053C112.696 56.4808 113.053 56.4331 113.406 56.4659C113.48 56.4781 113.555 56.4625 113.617 56.4222C113.68 56.382 113.723 56.3201 113.74 56.2494C113.753 56.1769 113.736 56.1026 113.693 56.0421C113.65 55.9816 113.585 55.9395 113.511 55.9248C113.064 55.8734 112.611 55.9265 112.19 56.0794C111.769 56.2323 111.391 56.4808 111.088 56.8041C111.037 56.8569 111.008 56.9272 111.008 57.0002C111.008 57.0733 111.037 57.1435 111.088 57.1964C111.146 57.2463 111.22 57.273 111.297 57.2708Z" fill="#263238"/>
<path d="M120.074 56.561C120.11 56.5621 120.146 56.5561 120.179 56.5433C120.213 56.5305 120.243 56.5112 120.269 56.4866C120.295 56.4614 120.316 56.4314 120.33 56.3983C120.345 56.3652 120.352 56.3297 120.352 56.2938C120.352 56.2579 120.345 56.2224 120.33 56.1893C120.316 56.1562 120.295 56.1262 120.269 56.101C119.968 55.7762 119.59 55.5272 119.168 55.3752C118.746 55.2233 118.293 55.1729 117.847 55.2285C117.811 55.235 117.776 55.2484 117.745 55.2679C117.714 55.2874 117.688 55.3127 117.667 55.3423C117.646 55.3718 117.632 55.4051 117.625 55.4401C117.617 55.4752 117.617 55.5113 117.624 55.5464C117.638 55.6178 117.68 55.6812 117.741 55.723C117.802 55.7647 117.877 55.7814 117.951 55.7696C118.301 55.7291 118.656 55.7692 118.988 55.8867C119.319 56.0042 119.617 56.1958 119.858 56.446C119.883 56.4793 119.916 56.5068 119.953 56.5266C119.99 56.5465 120.032 56.5582 120.074 56.561Z" fill="#263238"/>
<path d="M99.0198 88.3718C97.8157 91.4292 96.6603 94.6421 95.6372 97.8009C94.616 100.917 93.8229 104.1 93.2639 107.325C93.1873 107.717 93.1525 108.102 93.1107 108.488L93.0481 109.063V109.306C93.1174 109.756 93.286 110.185 93.5423 110.565C94.3663 111.869 95.3247 113.088 96.4028 114.204C98.637 116.632 101.212 118.938 103.753 121.225L101.992 123.619C98.8349 121.847 95.8548 119.793 93.0899 117.484C91.5915 116.256 90.2502 114.857 89.0948 113.318C88.316 112.297 87.8005 111.109 87.5915 109.854C87.5619 109.63 87.548 109.404 87.5497 109.178C87.5497 109.036 87.5497 109.029 87.5497 108.955V108.779V108.102C87.5497 107.629 87.5915 107.156 87.6471 106.702C88.0432 103.13 88.7723 99.6009 89.8256 96.1572C90.8046 92.7568 91.9851 89.4143 93.3613 86.1465L99.0198 88.3718Z" fill="#FFC3BD"/>
<path d="M96.0479 79.9235C93.6676 80.8705 90.6887 93.5259 90.6887 93.5259L95.7486 97.5843C95.7486 97.5843 100.516 88.1147 100.725 83.7993C100.85 80.5052 98.1359 79.0915 96.0479 79.9235Z" fill="#FFC3BD"/>
<path d="M86.9581 233.88C87.0671 233.825 87.1622 233.747 87.2368 233.652C87.3114 233.558 87.3635 233.448 87.3896 233.332C87.4165 233.253 87.421 233.169 87.4026 233.088C87.3842 233.007 87.3437 232.932 87.2852 232.872C86.7702 232.324 84.6404 232.682 84.3968 232.723C84.3703 232.73 84.346 232.744 84.3265 232.763C84.307 232.782 84.2929 232.805 84.2855 232.831C84.2791 232.857 84.2809 232.885 84.2909 232.91C84.3008 232.936 84.3183 232.958 84.3412 232.973C84.9815 233.426 86.1647 234.157 86.8746 233.913C86.904 233.906 86.9322 233.895 86.9581 233.88ZM84.7866 232.926C85.6427 232.811 86.805 232.757 87.0764 233.041C87.0969 233.072 87.1077 233.109 87.1077 233.146C87.1077 233.183 87.0969 233.219 87.0764 233.25C87.0613 233.338 87.0232 233.42 86.9659 233.488C86.9086 233.557 86.834 233.61 86.7493 233.643C86.3944 233.785 85.6636 233.521 84.7866 232.926Z" fill="#FFD166"/>
<path d="M85.3923 232.682C86.0117 232.391 86.6451 231.945 86.7355 231.532C86.7578 231.425 86.7416 231.313 86.6897 231.216C86.6378 231.119 86.5533 231.042 86.4502 230.998C86.3563 230.945 86.2518 230.912 86.1438 230.901C86.0357 230.891 85.9266 230.903 85.8238 230.937C85.0095 231.207 84.3204 232.743 84.2926 232.804C84.2804 232.824 84.2739 232.848 84.2739 232.871C84.2739 232.895 84.2804 232.918 84.2926 232.939C84.3058 232.959 84.3247 232.975 84.3469 232.984C84.3692 232.994 84.3938 232.997 84.4179 232.993C84.7573 232.939 85.086 232.834 85.3923 232.682ZM85.8307 231.234L85.9143 231.201C85.9789 231.177 86.0479 231.168 86.1165 231.174C86.1851 231.18 86.2515 231.201 86.311 231.234C86.4641 231.322 86.4711 231.41 86.4571 231.471C86.3736 231.87 85.3714 232.479 84.6684 232.668C84.9198 232.1 85.3207 231.605 85.8307 231.234Z" fill="#FFD166"/>
<path d="M123.449 239.69C123.962 239.736 124.476 239.609 124.904 239.331C125 239.248 125.073 239.142 125.117 239.024C125.161 238.906 125.174 238.779 125.155 238.655C125.151 238.579 125.127 238.504 125.086 238.439C125.044 238.374 124.987 238.32 124.918 238.283C124.222 237.897 121.807 239.081 121.535 239.216C121.509 239.229 121.487 239.25 121.473 239.275C121.459 239.301 121.454 239.33 121.459 239.358C121.464 239.386 121.477 239.412 121.497 239.432C121.516 239.453 121.542 239.467 121.57 239.473C122.189 239.6 122.818 239.673 123.449 239.69ZM124.514 238.493C124.605 238.487 124.696 238.504 124.779 238.54C124.808 238.554 124.832 238.575 124.849 238.601C124.866 238.627 124.876 238.658 124.876 238.689C124.889 238.77 124.881 238.853 124.852 238.93C124.822 239.007 124.773 239.075 124.709 239.128C124.347 239.446 123.366 239.5 122.044 239.291C122.815 238.894 123.651 238.629 124.514 238.506V238.493Z" fill="#FFD166"/>
<path d="M121.598 239.5H121.661C122.357 239.189 123.749 237.938 123.665 237.282C123.665 237.126 123.526 236.93 123.136 236.889C122.997 236.877 122.856 236.891 122.722 236.932C122.588 236.972 122.464 237.038 122.357 237.126C121.605 237.735 121.466 239.297 121.459 239.365C121.458 239.389 121.463 239.412 121.474 239.434C121.485 239.455 121.501 239.473 121.521 239.487C121.544 239.501 121.572 239.505 121.598 239.5ZM122.99 237.146H123.074C123.331 237.146 123.352 237.268 123.352 237.302C123.422 237.701 122.468 238.655 121.737 239.108C121.795 238.45 122.063 237.825 122.503 237.322C122.573 237.26 122.655 237.212 122.745 237.182C122.835 237.151 122.93 237.139 123.025 237.146H122.99Z" fill="#FFD166"/>
<path d="M99.9246 113.737L99.3051 115.847C99.2216 116.009 99.4165 116.172 99.7018 116.172H124.66C124.876 116.172 125.057 116.07 125.071 115.935L125.294 113.825C125.294 113.683 125.12 113.561 124.876 113.561H100.321C100.245 113.554 100.168 113.567 100.099 113.598C100.029 113.628 99.9692 113.676 99.9246 113.737Z" fill="#FFD166"/>
<path opacity="0.8" d="M99.9246 113.737L99.3051 115.847C99.2216 116.009 99.4165 116.172 99.7018 116.172H124.66C124.876 116.172 125.057 116.07 125.071 115.935L125.294 113.825C125.294 113.683 125.12 113.561 124.876 113.561H100.321C100.245 113.554 100.168 113.567 100.099 113.598C100.029 113.628 99.9692 113.676 99.9246 113.737Z" fill="white"/>
<path d="M103.224 116.402H102.562C102.437 116.402 102.333 116.341 102.347 116.26L102.653 113.514C102.653 113.439 102.778 113.372 102.904 113.372H103.6C103.732 113.372 103.829 113.439 103.822 113.514L103.516 116.26C103.467 116.341 103.356 116.402 103.224 116.402Z" fill="#FFD166"/>
<path d="M122.809 116.402H122.155C122.023 116.402 121.925 116.341 121.932 116.26L122.238 113.514C122.238 113.439 122.364 113.372 122.496 113.372H123.15C123.282 113.372 123.38 113.439 123.373 113.514L123.067 116.26C123.06 116.341 122.941 116.402 122.809 116.402Z" fill="#FFD166"/>
<path d="M113.016 116.402H112.362C112.23 116.402 112.126 116.341 112.139 116.26L112.446 113.514C112.446 113.439 112.571 113.372 112.703 113.372H113.357C113.49 113.372 113.587 113.439 113.58 113.514L113.274 116.26C113.26 116.341 113.149 116.402 113.016 116.402Z" fill="#FFD166"/>
<path d="M103.05 120.717L109.481 121.252L105.186 125.418C105.186 125.418 101.505 124.383 101.01 122.036L103.05 120.717Z" fill="#FFC3BD"/>
<path d="M146.369 91.5574L142.193 110.97C142.139 111.221 142.136 111.479 142.185 111.731C142.234 111.982 142.333 112.222 142.477 112.436C142.621 112.65 142.807 112.835 143.025 112.979C143.242 113.123 143.487 113.224 143.745 113.277L181.774 121.028C182.296 121.131 182.839 121.029 183.284 120.745C183.73 120.462 184.043 120.019 184.155 119.513L188.331 100.1C188.436 99.594 188.332 99.0676 188.042 98.6348C187.752 98.202 187.298 97.8976 186.779 97.7871L148.749 90.0423C148.252 89.9458 147.736 90.0326 147.301 90.2858C147.064 90.4235 146.858 90.6076 146.698 90.8265C146.537 91.0454 146.425 91.2943 146.369 91.5574Z" fill="#FFD166"/>
<path opacity="0.5" d="M146.369 91.5574L142.193 110.97C142.139 111.221 142.136 111.479 142.185 111.731C142.234 111.982 142.333 112.222 142.477 112.436C142.621 112.65 142.807 112.835 143.025 112.979C143.242 113.123 143.487 113.224 143.745 113.277L181.774 121.028C182.296 121.131 182.839 121.029 183.284 120.745C183.73 120.462 184.043 120.019 184.155 119.513L188.331 100.1C188.436 99.594 188.332 99.0676 188.042 98.6348C187.752 98.202 187.298 97.8976 186.779 97.7871L148.749 90.0423C148.252 89.9458 147.736 90.0326 147.301 90.2858C147.064 90.4235 146.858 90.6076 146.698 90.8265C146.537 91.0454 146.425 91.2943 146.369 91.5574Z" fill="black"/>
<path d="M188.003 98.5991L181.997 101.568L170.081 107.446C168.422 108.27 166.523 108.518 164.699 108.149C162.875 107.78 161.235 106.816 160.052 105.417L151.805 95.6161L147.294 90.2793C147.733 90.0287 148.25 89.9422 148.749 90.0358L152.069 90.7122L182.248 96.8607L186.772 97.7806C187.274 97.8917 187.714 98.1843 188.003 98.5991Z" fill="#FFD166"/>
<path d="M183.438 74.9791L182.247 96.8878L181.997 101.568L170.081 107.446C168.422 108.27 166.523 108.518 164.699 108.149C162.875 107.78 161.235 106.816 160.052 105.417L151.804 95.6161L152.069 90.7122L153.009 73.3964C153.037 72.9268 153.255 72.4871 153.614 72.172C153.974 71.8569 154.446 71.6918 154.929 71.7121L181.705 73.0649C181.949 73.0778 182.187 73.1378 182.407 73.2414C182.627 73.345 182.823 73.4902 182.985 73.6684C183.146 73.8467 183.269 74.0544 183.347 74.2795C183.425 74.5045 183.456 74.7424 183.438 74.9791Z" fill="#FFD166"/>
<path opacity="0.9" d="M183.438 74.9791L182.247 96.8878L181.997 101.568L170.081 107.446C168.422 108.27 166.523 108.518 164.699 108.149C162.875 107.78 161.235 106.816 160.052 105.417L151.804 95.6161L152.069 90.7122L153.009 73.3964C153.037 72.9268 153.255 72.4871 153.614 72.172C153.974 71.8569 154.446 71.6918 154.929 71.7121L181.705 73.0649C181.949 73.0778 182.187 73.1378 182.407 73.2414C182.627 73.345 182.823 73.4902 182.985 73.6684C183.146 73.8467 183.269 74.0544 183.347 74.2795C183.425 74.5045 183.456 74.7424 183.438 74.9791Z" fill="white"/>
<path opacity="0.1" d="M161.472 102.712L151.916 93.5869L151.804 95.6161L160.08 105.404C161.263 106.802 162.903 107.766 164.727 108.135C166.551 108.504 168.45 108.257 170.109 107.433L182.025 101.555L182.143 99.3634L170.13 104.288C168.689 104.888 167.096 105.059 165.555 104.779C164.013 104.498 162.592 103.779 161.472 102.712Z" fill="black"/>
<path d="M155.904 80.005L156.196 74.6411L157.31 74.702L157.018 80.0591L155.904 80.005Z" fill="#FFD166"/>
<path d="M158.089 80.1197L158.382 74.7559L159.467 74.81L161.555 78.5099L161.743 74.925L162.78 74.9791L162.488 80.3429L161.374 80.2888L159.314 76.6768L159.126 80.1738L158.089 80.1197Z" fill="#FFD166"/>
<path d="M165.056 80.4785L163.372 75.0132L164.583 75.0741L165.766 79.1325L167.332 75.2364L168.516 75.2973L166.247 80.5597L165.056 80.4785Z" fill="#FFD166"/>
<path d="M168.759 80.6676L169.051 75.3037L170.165 75.3578L169.873 80.7217L168.759 80.6676Z" fill="#FFD166"/>
<path d="M172.176 80.8434L172.42 76.3859L170.784 76.298L170.833 75.3916L175.218 75.6148L175.169 76.5212L173.534 76.44L173.29 80.8975L172.176 80.8434Z" fill="#FFD166"/>
<path d="M175.643 81.0196L175.935 75.6558L180.027 75.8654L179.979 76.7718L177 76.6163L176.937 77.8067L179.721 77.9488L179.672 78.8551L176.888 78.7131L176.812 80.1741L179.895 80.3297L179.846 81.2361L175.643 81.0196Z" fill="#FFD166"/>
<path d="M113.156 124.573L109.363 127.873L104.268 125.087L109.481 121.251L113.156 124.573Z" fill="#FFC3BD"/>
<path d="M113.65 59.4696L114.729 58.9556C114.729 58.9556 114.304 59.9228 113.65 59.4696Z" fill="#263238"/>
</svg>
