<svg width="330" height="331" viewBox="0 0 330 331" fill="none" xmlns="http://www.w3.org/2000/svg">
<path d="M296.934 263.923H275.075V264.088H296.934V263.923Z" fill="#EBEBEB"/>
<path d="M218.605 265.718H212.87V265.883H218.605V265.718Z" fill="#EBEBEB"/>
<path d="M274.415 257.798H261.749V257.963H274.415V257.798Z" fill="#EBEBEB"/>
<path d="M63.1291 258.907H34.6237V259.072H63.1291V258.907Z" fill="#EBEBEB"/>
<path d="M73.1874 258.907H69.0096V259.072H73.1874V258.907Z" fill="#EBEBEB"/>
<path d="M148.599 261.692H86.7703V261.857H148.599V261.692Z" fill="#EBEBEB"/>
<path d="M156.42 223.868H28.9872C27.9877 223.868 27.0292 223.471 26.3224 222.764C25.6157 222.057 25.2186 221.099 25.2186 220.099V40.9553C25.2273 39.9616 25.6282 39.0115 26.334 38.3118C27.0398 37.6122 27.9934 37.2197 28.9872 37.2197H156.42C157.42 37.2197 158.378 37.6168 159.085 38.3235C159.792 39.0303 160.189 39.9888 160.189 40.9883V220.099C160.189 221.099 159.792 222.057 159.085 222.764C158.378 223.471 157.42 223.868 156.42 223.868ZM28.9872 37.3517C28.032 37.3535 27.1165 37.7337 26.441 38.4091C25.7656 39.0846 25.3854 40.0001 25.3836 40.9553V220.099C25.3854 221.054 25.7656 221.97 26.441 222.645C27.1165 223.321 28.032 223.701 28.9872 223.703H156.42C157.375 223.701 158.291 223.321 158.966 222.645C159.642 221.97 160.022 221.054 160.024 220.099V40.9553C160.022 40.0001 159.642 39.0846 158.966 38.4091C158.291 37.7337 157.375 37.3535 156.42 37.3517H28.9872Z" fill="#EBEBEB"/>
<path d="M299.185 223.868H171.739C170.74 223.866 169.782 223.468 169.076 222.762C168.369 222.056 167.972 221.098 167.97 220.099V40.9553C167.98 39.9621 168.382 39.013 169.087 38.3137C169.793 37.6145 170.745 37.2214 171.739 37.2197H299.185C300.176 37.2232 301.126 37.6172 301.829 38.3165C302.532 39.0157 302.931 39.9638 302.94 40.9553V220.099C302.94 221.096 302.545 222.053 301.841 222.759C301.137 223.466 300.182 223.864 299.185 223.868ZM171.739 37.3517C170.783 37.3535 169.868 37.7337 169.192 38.4091C168.517 39.0846 168.137 40.0001 168.135 40.9553V220.099C168.137 221.054 168.517 221.97 169.192 222.645C169.868 223.321 170.783 223.701 171.739 223.703H299.185C300.14 223.701 301.055 223.321 301.731 222.645C302.406 221.97 302.786 221.054 302.788 220.099V40.9553C302.786 40.0001 302.406 39.0846 301.731 38.4091C301.055 37.7337 300.14 37.3535 299.185 37.3517H171.739Z" fill="#EBEBEB"/>
<path d="M330 253.304H0V253.469H330V253.304Z" fill="#EBEBEB"/>
<path d="M78.6654 240.341C78.6654 240.341 66 232.368 60.9708 231.378C57.4992 230.718 49.7508 231.431 48.7608 222.851C48.18 217.756 52.14 217.716 55.44 218.522C55.8885 218.635 56.3568 218.647 56.8105 218.556C57.2642 218.465 57.6919 218.275 58.0625 217.998C58.4331 217.721 58.7372 217.364 58.9526 216.955C59.168 216.545 59.2892 216.093 59.3076 215.631C59.4132 212.951 60.291 210.245 63.6966 211.433C69.894 213.611 69.6366 222.363 71.214 225.742C73.722 231.154 88.374 238.031 88.374 238.031L78.6654 240.341Z" fill="#F0F0F0"/>
<path d="M103.204 234.942H54.12C52.7845 234.943 51.4714 235.285 50.3049 235.935C49.1384 236.586 48.1572 237.523 47.454 238.658L41.8968 247.628C41.4952 248.274 41.2743 249.016 41.2572 249.776C41.2401 250.537 41.4274 251.288 41.7995 251.951C42.1717 252.615 42.7151 253.166 43.3731 253.548C44.031 253.93 44.7793 254.128 45.54 254.122H111.817C112.576 254.123 113.321 253.922 113.975 253.538C114.629 253.154 115.169 252.602 115.538 251.94C115.907 251.277 116.092 250.528 116.073 249.769C116.055 249.011 115.834 248.272 115.434 247.628L109.87 238.658C109.167 237.523 108.186 236.586 107.019 235.935C105.853 235.285 104.54 234.943 103.204 234.942Z" fill="#E0E0E0"/>
<path d="M262.416 125.699C261.557 124.745 260.488 124.004 259.293 123.534C258.099 123.065 256.811 122.879 255.532 122.993C250.879 123.409 243.916 123.092 243.316 117.588C242.411 109.265 254.536 110.942 256.865 107.331C259.195 103.721 263.663 100.652 268.825 103.008C273.986 105.365 271.795 112.248 272.864 115.337C273.933 118.426 279.609 125.897 274.23 130.616C270.692 133.692 265.538 129.164 262.416 125.699Z" fill="#F0F0F0"/>
<path d="M255.017 97.7682C255.981 100.666 255.229 105.14 252.734 105.965C250.239 106.79 246.952 103.669 245.989 100.771C245.025 97.8738 246.272 94.8312 248.761 94.026C251.249 93.2208 254.054 94.8708 255.017 97.7682Z" fill="#F0F0F0"/>
<path d="M269.848 92.4289C269.742 95.6629 267.346 99.8407 264.568 99.7483C261.789 99.6559 259.664 95.3329 259.769 92.0989C259.875 88.8649 262.218 86.3173 265.01 86.4097C267.802 86.5021 269.94 89.1949 269.848 92.4289Z" fill="#F0F0F0"/>
<path d="M282.869 100.791C280.889 103.332 276.454 105.266 274.289 103.537C272.125 101.807 272.969 97.0687 274.949 94.5343C276.929 91.9999 280.355 91.3399 282.546 93.0691C284.737 94.7983 284.882 98.2567 282.869 100.791Z" fill="#F0F0F0"/>
<path d="M286.308 115.614C283.747 117.594 279.002 118.4 277.299 116.189C275.596 113.978 277.583 109.589 280.15 107.609C282.718 105.629 286.169 105.82 287.872 108.031C289.575 110.242 288.875 113.641 286.308 115.614Z" fill="#F0F0F0"/>
<path d="M110.055 205.408C108.874 205.361 107.699 205.591 106.622 206.078C105.545 206.564 104.596 207.295 103.851 208.213C101.138 211.559 96.459 215.954 92.4396 212.833C86.3544 208.087 95.2446 201.157 94.3602 197.29C93.4758 193.422 94.3074 188.512 99.1782 186.617C104.049 184.723 107.204 190.577 109.916 191.897C112.629 193.217 121.249 194.24 120.892 200.801C120.655 205.064 114.352 205.566 110.055 205.408Z" fill="#F5F5F5"/>
<path d="M86.8559 192.36C89.3837 193.587 91.8587 196.979 90.8159 199.138C89.7731 201.296 85.5821 201.474 83.0543 200.253C80.5265 199.032 79.3253 196.293 80.3747 194.095C81.4241 191.898 84.3215 191.139 86.8559 192.36Z" fill="#F5F5F5"/>
<path d="M92.8488 179.12C94.9146 181.265 96.1488 185.535 94.2876 187.317C92.4264 189.099 88.2156 187.72 86.1498 185.575C84.084 183.43 83.8992 180.242 85.7538 178.46C87.6084 176.678 90.7764 176.988 92.8488 179.12Z" fill="#F5F5F5"/>
<path d="M106.735 175.899C107.118 178.856 105.567 183.007 103.019 183.344C100.472 183.681 97.8978 180.044 97.515 177.107C97.1322 174.17 98.8746 171.484 101.422 171.167C103.97 170.85 106.346 172.942 106.735 175.899Z" fill="#F5F5F5"/>
<path d="M118.734 183.139C118.397 186.103 115.883 189.739 113.329 189.469C110.774 189.198 109.157 185.047 109.494 182.083C109.831 179.12 112.18 176.955 114.728 177.245C117.275 177.536 119.077 180.176 118.734 183.139Z" fill="#F5F5F5"/>
<path d="M141.689 72.5361C140.993 72.4119 140.278 72.4522 139.601 72.6539C138.923 72.8556 138.303 73.2131 137.788 73.6977C135.914 75.4665 132.785 77.6973 130.66 75.5193C127.433 72.2193 133.254 68.8203 133.036 66.4575C132.818 64.0947 133.696 61.2567 136.745 60.5175C139.795 59.7783 141.187 63.5139 142.685 64.4775C144.184 65.4411 149.213 66.7677 148.474 70.6287C147.998 73.1763 144.223 72.9717 141.689 72.5361Z" fill="#F5F5F5"/>
<path d="M128.984 62.9598C130.383 63.8904 131.578 66.0816 130.779 67.2894C129.98 68.4972 127.479 68.2596 126.093 67.3356C124.707 66.4116 124.199 64.6956 124.997 63.468C125.796 62.2404 127.578 62.0226 128.984 62.9598Z" fill="#F5F5F5"/>
<path d="M133.591 55.5876C134.647 57.0264 135.029 59.6532 133.789 60.5574C132.548 61.4616 130.165 60.3132 129.109 58.8744C128.053 57.4356 128.205 55.5348 129.439 54.6306C130.673 53.7264 132.535 54.1488 133.591 55.5876Z" fill="#F5F5F5"/>
<path d="M142.078 54.7821C142.078 56.5641 140.818 58.9005 139.286 58.8939C137.755 58.8873 136.514 56.5443 136.521 54.7623C136.528 52.9803 137.775 51.5349 139.313 51.5415C140.851 51.5481 142.085 52.9935 142.078 54.7821Z" fill="#F5F5F5"/>
<path d="M148.612 60.0361C148.177 61.7587 146.395 63.7255 144.903 63.3361C143.411 62.9467 142.784 60.3793 143.22 58.6501C143.656 56.9209 145.2 55.8319 146.711 56.2081C148.223 56.5843 149.054 58.3399 148.612 60.0361Z" fill="#F5F5F5"/>
<path d="M67.98 171.358C67.2829 171.628 66.6578 172.055 66.1539 172.607C65.65 173.159 65.281 173.821 65.076 174.539C64.3368 177.179 62.7132 180.882 59.598 180.064C54.879 178.829 58.278 172.579 56.8326 170.553C55.3872 168.527 54.6084 165.471 56.9646 163.154C59.3208 160.838 62.6208 163.458 64.515 163.517C66.4092 163.577 71.6826 162.052 73.095 165.953C74.019 168.514 70.4814 170.381 67.98 171.358Z" fill="#F5F5F5"/>
<path d="M51.2094 169.576C52.9848 169.649 55.2618 170.995 55.1694 172.526C55.077 174.057 52.7143 175.166 50.9389 175.113C49.1635 175.061 47.7774 173.727 47.8434 172.203C47.9094 170.678 49.434 169.497 51.2094 169.576Z" fill="#F5F5F5"/>
<path d="M51.3876 160.389C53.13 161.121 54.8988 163.299 54.2718 164.791C53.6448 166.283 50.82 166.58 49.1106 165.814C47.4012 165.048 46.4706 163.273 47.1306 161.781C47.7906 160.29 49.6518 159.663 51.3876 160.389Z" fill="#F5F5F5"/>
<path d="M58.6476 155.043C59.6112 156.667 59.7432 159.465 58.3506 160.323C56.958 161.181 54.5556 159.696 53.592 158.079C52.6284 156.462 52.9782 154.469 54.3774 153.637C55.7766 152.806 57.684 153.426 58.6476 155.043Z" fill="#F5F5F5"/>
<path d="M67.4322 156.257C67.9734 158.066 67.4322 160.811 65.868 161.28C64.3038 161.749 62.337 159.755 61.7958 157.947C61.2546 156.139 62.0796 154.297 63.6306 153.829C65.1816 153.36 66.8844 154.449 67.4322 156.257Z" fill="#F5F5F5"/>
<path d="M209.075 85.7626C208.559 85.2217 207.924 84.8088 207.221 84.5567C206.517 84.3046 205.764 84.2203 205.022 84.3106C202.316 84.634 198.257 84.5746 197.809 81.3868C197.149 76.5556 204.224 77.3146 205.517 75.163C206.811 73.0114 209.352 71.1568 212.401 72.4306C215.45 73.7044 214.295 77.77 214.975 79.5388C215.655 81.3076 219.094 85.5844 216.044 88.4092C214.045 90.2704 210.956 87.7228 209.075 85.7626Z" fill="#F5F5F5"/>
<path d="M204.263 69.6324C204.877 71.3022 204.521 73.9224 203.082 74.4504C201.643 74.9784 199.676 73.2096 199.063 71.5464C198.449 69.8832 199.115 68.0946 200.554 67.5864C201.993 67.0782 203.65 67.9626 204.263 69.6324Z" fill="#F5F5F5"/>
<path d="M212.804 66.2596C212.804 68.1472 211.484 70.6222 209.854 70.6156C208.223 70.609 206.923 68.134 206.923 66.2464C206.923 64.3588 208.243 62.8342 209.873 62.8408C211.504 62.8474 212.81 64.3654 212.804 66.2596Z" fill="#F5F5F5"/>
<path d="M220.539 70.8796C219.417 72.3976 216.883 73.5988 215.576 72.6352C214.269 71.6716 214.691 68.893 215.813 67.3552C216.935 65.8174 218.909 65.3752 220.216 66.3586C221.522 67.342 221.661 69.3748 220.539 70.8796Z" fill="#F5F5F5"/>
<path d="M222.809 79.4597C221.351 80.6543 218.605 81.2087 217.576 79.9547C216.546 78.7007 217.622 76.1135 219.074 74.9123C220.526 73.7111 222.552 73.7639 223.582 75.0179C224.611 76.2719 224.268 78.2585 222.809 79.4597Z" fill="#F5F5F5"/>
<path d="M161.819 280.568C232.493 280.568 289.786 277.223 289.786 273.097C289.786 268.971 232.493 265.626 161.819 265.626C91.1444 265.626 33.8514 268.971 33.8514 273.097C33.8514 277.223 91.1444 280.568 161.819 280.568Z" fill="#F5F5F5"/>
<path d="M280.223 187.555L232.855 150.067L185.486 187.555V254.123H280.223V187.555Z" fill="#FFD166"/>
<path opacity="0.3" d="M280.223 187.555L232.855 150.067L185.486 187.555V254.123H280.223V187.555Z" fill="black"/>
<path d="M283.958 192.907L232.855 152.456L181.751 192.907C181.272 193.286 180.662 193.459 180.056 193.389C179.45 193.318 178.896 193.01 178.517 192.531C178.138 192.052 177.965 191.443 178.036 190.836C178.106 190.23 178.414 189.676 178.893 189.297L232.855 146.582L286.816 189.297C287.054 189.484 287.252 189.717 287.4 189.981C287.547 190.245 287.641 190.536 287.676 190.836C287.711 191.137 287.686 191.441 287.603 191.732C287.52 192.023 287.381 192.294 287.192 192.531C286.813 193.01 286.26 193.318 285.653 193.389C285.047 193.459 284.437 193.286 283.958 192.907Z" fill="#FFD166"/>
<g opacity="0.3">
<path d="M283.958 192.907L232.855 152.456L181.751 192.907C181.272 193.286 180.662 193.459 180.056 193.389C179.45 193.318 178.896 193.01 178.517 192.531C178.138 192.052 177.965 191.443 178.036 190.836C178.106 190.23 178.414 189.676 178.893 189.297L232.855 146.582L286.816 189.297C287.054 189.484 287.252 189.717 287.4 189.981C287.547 190.245 287.641 190.536 287.676 190.836C287.711 191.137 287.686 191.441 287.603 191.732C287.52 192.023 287.381 192.294 287.192 192.531C286.813 193.01 286.26 193.318 285.653 193.389C285.047 193.459 284.437 193.286 283.958 192.907Z" fill="white"/>
</g>
<path d="M232.855 188.083C227.33 188.083 222.032 190.278 218.126 194.184C214.22 198.09 212.025 203.388 212.025 208.913V254.123H253.691V208.913C253.691 206.177 253.152 203.468 252.105 200.94C251.057 198.412 249.523 196.116 247.588 194.182C245.653 192.247 243.356 190.713 240.828 189.667C238.3 188.62 235.591 188.082 232.855 188.083Z" fill="#FFD166"/>
<path opacity="0.5" d="M232.855 188.083C227.33 188.083 222.032 190.278 218.126 194.184C214.22 198.09 212.025 203.388 212.025 208.913V254.123H253.691V208.913C253.691 206.177 253.152 203.468 252.105 200.94C251.057 198.412 249.523 196.116 247.588 194.182C245.653 192.247 243.356 190.713 240.828 189.667C238.3 188.62 235.591 188.082 232.855 188.083Z" fill="black"/>
<path d="M238.834 182.948C238.834 182.948 253.163 192.452 247.071 178.48C247.071 178.48 251.308 169.524 245.975 170.289C240.643 171.055 238.834 174.077 238.834 174.077L226.875 173.417C226.875 173.417 212.553 163.92 218.645 177.886C218.645 177.886 214.401 186.842 219.734 186.076C225.067 185.311 226.875 182.288 226.875 182.288L238.834 182.948Z" fill="#FFD166"/>
<path opacity="0.3" d="M238.834 182.948C238.834 182.948 253.163 192.452 247.071 178.48C247.071 178.48 251.308 169.524 245.975 170.289C240.643 171.055 238.834 174.077 238.834 174.077L226.875 173.417C226.875 173.417 212.553 163.92 218.645 177.886C218.645 177.886 214.401 186.842 219.734 186.076C225.067 185.311 226.875 182.288 226.875 182.288L238.834 182.948Z" fill="white"/>
<path d="M61.149 66.2601C61.149 66.2601 59.4066 61.5543 60.5946 60.3663C61.7826 59.1783 62.238 64.5705 64.053 65.5407L61.149 66.2601Z" fill="#FFD166"/>
<path d="M90.6113 64.755C90.6113 64.755 92.3735 60.6828 91.3835 59.5806C90.3935 58.4784 89.7335 63.2106 88.0835 63.9828L90.6113 64.755Z" fill="#FFD166"/>
<path d="M68.4948 55.7C68.4948 55.7 69.564 49.8656 71.0226 49.76C72.4812 49.6544 70.8312 54.4262 71.8014 56.1752L68.4948 55.7Z" fill="#FFD166"/>
<path d="M82.005 56.7757C82.005 56.7757 81.9654 50.8357 80.5464 50.4925C79.1274 50.1493 79.926 55.1125 78.6654 56.6767L82.005 56.7757Z" fill="#FFD166"/>
<g opacity="0.5">
<path d="M61.149 66.2601C61.149 66.2601 59.4066 61.5543 60.5946 60.3663C61.7826 59.1783 62.238 64.5705 64.053 65.5407L61.149 66.2601Z" fill="white"/>
<path d="M90.6114 64.755C90.6114 64.755 92.3736 60.6828 91.3836 59.5806C90.3936 58.4784 89.7336 63.2106 88.0836 63.9828L90.6114 64.755Z" fill="white"/>
<path d="M68.4948 55.7C68.4948 55.7 69.564 49.8656 71.0226 49.76C72.4812 49.6544 70.8312 54.4262 71.8014 56.1752L68.4948 55.7Z" fill="white"/>
<path d="M82.005 56.7757C82.005 56.7757 81.9654 50.8357 80.5464 50.4925C79.1274 50.1493 79.926 55.1125 78.6654 56.6767L82.005 56.7757Z" fill="white"/>
</g>
<g opacity="0.5">
<path d="M61.149 66.2601C61.149 66.2601 59.4066 61.5543 60.5946 60.3663C61.7826 59.1783 62.238 64.5705 64.053 65.5407L61.149 66.2601Z" fill="black"/>
<path d="M90.6114 64.755C90.6114 64.755 92.3736 60.6828 91.3836 59.5806C90.3936 58.4784 89.7336 63.2106 88.0836 63.9828L90.6114 64.755Z" fill="black"/>
<path d="M68.4948 55.7C68.4948 55.7 69.564 49.8656 71.0226 49.76C72.4812 49.6544 70.8312 54.4262 71.8014 56.1752L68.4948 55.7Z" fill="black"/>
<path d="M82.005 56.7757C82.005 56.7757 81.9654 50.8357 80.5464 50.4925C79.1274 50.1493 79.926 55.1125 78.6654 56.6767L82.005 56.7757Z" fill="black"/>
</g>
<path d="M89.6609 62.531C89.297 62.3028 88.882 62.1689 88.4534 62.1413C88.0247 62.1136 87.596 62.1931 87.2057 62.3726C87.0243 62.4475 86.8277 62.4781 86.6322 62.4618C86.4366 62.4455 86.2477 62.3828 86.0812 62.2789C85.9148 62.175 85.7754 62.0329 85.6749 61.8644C85.5743 61.6959 85.5153 61.5058 85.5029 61.31C85.3181 58.67 84.4073 54.4988 80.5859 53.7134C78.3617 53.258 76.4411 54.6638 75.3059 55.8254C75.1762 55.9563 75.0187 56.0563 74.8451 56.118C74.6715 56.1797 74.4862 56.2015 74.303 56.1819C74.1198 56.1622 73.9434 56.1016 73.7868 56.0045C73.6302 55.9073 73.4975 55.7762 73.3985 55.6208C72.9944 54.913 72.3427 54.3798 71.5689 54.1239C70.7951 53.868 69.9539 53.9075 69.2075 54.2348C65.4323 55.6076 64.7855 60.221 64.7723 63.1844C64.7704 63.3886 64.7173 63.5891 64.6178 63.7674C64.5184 63.9458 64.3758 64.0964 64.2031 64.2054C64.0304 64.3144 63.8331 64.3783 63.6293 64.3913C63.4255 64.4044 63.2217 64.3661 63.0365 64.28C61.8353 63.7256 60.3503 63.8906 59.5847 67.1708C58.1591 73.2626 63.3467 92.1188 63.3467 92.1188V115.318C72.3787 118.404 82.2359 118.021 91.0007 114.242L90.1757 91.34C93.4163 67.844 92.4659 64.28 89.6609 62.531Z" fill="#FFD166"/>
<path d="M124.846 98.0127L116.926 89.2149C118.706 78.9221 116.522 68.337 110.813 59.5893C105.105 50.8415 96.2951 44.5803 86.1568 42.0653C76.0184 39.5503 65.3038 40.9682 56.1686 46.0337C47.0334 51.0991 40.1556 59.4363 36.9188 69.3678C33.6821 79.2992 34.3266 90.088 38.7228 99.5635C43.119 109.039 50.9406 116.498 60.6139 120.44C70.2872 124.382 81.0944 124.514 90.8612 120.809C100.628 117.105 108.63 109.84 113.256 100.474L124.846 98.0127ZM65.604 114.882C59.1372 112.777 53.44 108.801 49.2328 103.457C45.0257 98.114 42.4975 91.643 41.968 84.8627C41.4386 78.0824 42.9316 71.2974 46.2583 65.3657C49.585 59.4339 54.5959 54.6219 60.6575 51.538C66.719 48.4542 73.5589 47.237 80.3122 48.0405C87.0655 48.844 93.4289 51.6321 98.5976 56.0521C103.766 60.4721 107.508 66.3256 109.35 72.8723C111.192 79.419 111.052 86.3649 108.946 92.8317C107.55 97.1264 105.32 101.104 102.386 104.537C99.4516 107.97 95.8695 110.79 91.8443 112.838C87.8192 114.886 83.43 116.121 78.9275 116.471C74.4251 116.822 69.8976 116.282 65.604 114.882Z" fill="#FFD166"/>
<path opacity="0.6" d="M124.846 98.0127L116.926 89.2149C118.706 78.9221 116.522 68.337 110.813 59.5893C105.105 50.8415 96.2951 44.5803 86.1568 42.0653C76.0184 39.5503 65.3038 40.9682 56.1686 46.0337C47.0334 51.0991 40.1556 59.4363 36.9188 69.3678C33.6821 79.2992 34.3266 90.088 38.7228 99.5635C43.119 109.039 50.9406 116.498 60.6139 120.44C70.2872 124.382 81.0944 124.514 90.8612 120.809C100.628 117.105 108.63 109.84 113.256 100.474L124.846 98.0127ZM65.604 114.882C59.1372 112.777 53.44 108.801 49.2328 103.457C45.0257 98.114 42.4975 91.643 41.968 84.8627C41.4386 78.0824 42.9316 71.2974 46.2583 65.3657C49.585 59.4339 54.5959 54.6219 60.6575 51.538C66.719 48.4542 73.5589 47.237 80.3122 48.0405C87.0655 48.844 93.4289 51.6321 98.5976 56.0521C103.766 60.4721 107.508 66.3256 109.35 72.8723C111.192 79.419 111.052 86.3649 108.946 92.8317C107.55 97.1264 105.32 101.104 102.386 104.537C99.4516 107.97 95.8695 110.79 91.8443 112.838C87.8192 114.886 83.43 116.121 78.9275 116.471C74.4251 116.822 69.8976 116.282 65.604 114.882Z" fill="black"/>
<path d="M77.9723 83.0704C77.2504 82.6523 76.4361 82.4196 75.6022 82.3931C74.7684 82.3666 73.9409 82.5472 73.1939 82.9186C70.2569 84.3442 65.5577 86.0206 64.2509 82.879C62.3039 78.2128 69.0491 77.434 71.6429 72.8998C74.2367 68.3656 76.9229 70.438 79.6751 73.936C82.4273 77.434 87.8459 77.0446 87.3245 83.2684C86.9615 87.664 81.2789 85.0108 77.9723 83.0704Z" fill="#263238"/>
<path d="M77.7611 112.83C76.7942 112.72 75.8154 112.782 74.8703 113.015C73.6757 113.272 72.1313 113.18 71.9003 111.081C71.5109 107.583 75.2795 106.771 76.9559 106.672C78.4739 106.586 81.8795 106.936 81.6221 110.559C81.4505 112.909 79.2791 113.034 77.7611 112.83Z" fill="#263238"/>
<path d="M67.0361 69.4481C67.0361 71.1905 65.8349 71.8307 64.3499 71.8307C62.8649 71.8307 61.6571 71.1707 61.6571 69.4481C61.6571 67.7255 62.8583 66.2603 64.3499 66.2603C65.8415 66.2603 67.0361 67.6991 67.0361 69.4481Z" fill="#263238"/>
<path d="M89.8853 69.0652C89.8853 71.4478 88.2485 72.3124 86.2289 72.3124C84.2093 72.3124 82.5725 71.4478 82.5725 69.0652C82.5725 66.6826 84.2093 64.7554 86.2289 64.7554C88.2485 64.7554 89.8853 66.6826 89.8853 69.0652Z" fill="#263238"/>
<path d="M73.2599 60.2804C73.2599 62.4056 71.9399 63.1778 70.3559 63.1778C68.7719 63.1778 67.4585 62.4056 67.4585 60.2804C67.4585 58.1552 68.7785 56.4458 70.3559 56.4458C71.9333 56.4458 73.2599 58.1618 73.2599 60.2804Z" fill="#263238"/>
<path d="M83.2326 60.6105C83.2326 62.7357 81.9126 63.5079 80.3352 63.5079C78.7578 63.5079 77.4312 62.7357 77.4312 60.6105C77.4312 58.4853 78.7512 56.7759 80.3352 56.7759C81.9192 56.7759 83.2326 58.4919 83.2326 60.6105Z" fill="#263238"/>
<path d="M115.744 264.069C113.477 264.436 111.193 264.687 108.9 264.821C107.032 264.775 105.184 264.161 103.303 263.679L105.065 262.392C105.065 262.392 100.445 262.643 98.9471 262.392C96.9011 262.049 95.0465 260.927 93.1523 259.983L95.436 258.32C95.436 258.32 89.9052 257.779 88.176 257.093C87.1728 256.69 86.4138 255.839 85.536 255.152L88.0506 254.433C88.0506 254.433 81.774 251.133 80.0052 249.562C76.7052 246.665 74.9958 241.998 73.4052 237.022C73.4052 237.022 79.1934 239.312 88.4532 243.906C90.1428 244.744 94.7825 248.018 94.7825 248.018L93.918 244.493C96.1884 245.153 98.7425 246.731 101.244 247.694C103.019 248.354 107.917 251.37 107.917 251.37L107.138 248.955C109.408 249.39 111.83 249.489 114.239 250.116C116.087 250.598 121.354 252.902 121.354 252.902L119.097 249.338C124.166 249.885 128.383 251.417 134.178 251.37V264.676C127.414 265.765 120.541 266.007 113.718 265.395L115.744 264.069Z" fill="#FFD166"/>
<g opacity="0.2">
<path d="M115.744 264.069C113.477 264.436 111.193 264.687 108.9 264.821C107.032 264.775 105.184 264.161 103.303 263.679L105.065 262.392C105.065 262.392 100.445 262.643 98.9471 262.392C96.9011 262.049 95.0465 260.927 93.1523 259.983L95.436 258.32C95.436 258.32 89.9052 257.779 88.176 257.093C87.1728 256.69 86.4138 255.839 85.536 255.152L88.0506 254.433C88.0506 254.433 81.774 251.133 80.0052 249.562C76.7052 246.665 74.9958 241.998 73.4052 237.022C73.4052 237.022 79.1934 239.312 88.4532 243.906C90.1428 244.744 94.7825 248.018 94.7825 248.018L93.918 244.493C96.1884 245.153 98.7425 246.731 101.244 247.694C103.019 248.354 107.917 251.37 107.917 251.37L107.138 248.955C109.408 249.39 111.83 249.489 114.239 250.116C116.087 250.598 121.354 252.902 121.354 252.902L119.097 249.338C124.166 249.885 128.383 251.417 134.178 251.37V264.676C127.414 265.765 120.541 266.007 113.718 265.395L115.744 264.069Z" fill="black"/>
</g>
<path d="M124.39 224.964C118.622 235.735 125.499 251.397 129.426 263.587C129.426 263.587 125.248 265.567 124.351 271.322C124.282 271.8 124.318 272.287 124.455 272.75C124.592 273.213 124.828 273.641 125.145 274.004C125.463 274.368 125.855 274.658 126.296 274.856C126.736 275.054 127.214 275.154 127.697 275.15H139.953C140.401 275.155 140.844 275.068 141.257 274.896C141.67 274.723 142.044 274.468 142.355 274.147C143.344 273.18 144.028 271.945 144.323 270.594C144.617 269.242 144.509 267.834 144.012 266.544C144.012 266.544 158.327 270.847 165.792 267.765C180.312 261.772 145.543 222.733 145.543 222.733L140.263 217.724C140.263 217.724 128.264 217.724 124.39 224.964Z" fill="#FFD166"/>
<path opacity="0.2" d="M150.064 267.962C143.53 264.841 141.484 256.624 141.141 258.65C140.725 261.026 144.012 266.57 144.012 266.57L150.064 267.962Z" fill="black"/>
<path opacity="0.2" d="M138.983 262.835C137.071 262.16 134.999 262.084 133.043 262.617C132.943 262.645 132.836 262.636 132.741 262.593C132.647 262.55 132.57 262.476 132.525 262.382C132.48 262.288 132.47 262.182 132.496 262.081C132.522 261.98 132.582 261.892 132.666 261.831C134.171 260.69 136.666 259.653 139.425 262.076C139.512 262.141 139.571 262.235 139.593 262.342C139.614 262.448 139.596 262.558 139.542 262.652C139.487 262.746 139.4 262.816 139.297 262.85C139.194 262.883 139.082 262.878 138.983 262.835Z" fill="black"/>
<path opacity="0.2" d="M137.518 217.724H140.27L141.854 219.228C143.279 230.534 146.329 247.608 141.134 238.401C137.062 231.188 137.518 217.724 137.518 217.724Z" fill="black"/>
<path d="M192.489 228.759C195.716 225.808 207.075 222.568 207.781 237.213C208.487 251.859 192.185 262.181 192.185 262.181C192.185 262.181 217.265 258.729 219.206 266.768C221.146 274.807 214.295 272.411 198.086 272.411C181.876 272.411 173.006 271.883 175.256 264.286C177.507 256.69 185.203 235.418 192.489 228.759Z" fill="#FFD166"/>
<path opacity="0.2" d="M192.489 228.759C195.716 225.808 207.075 222.568 207.781 237.213C208.487 251.859 192.185 262.181 192.185 262.181C192.185 262.181 217.265 258.729 219.206 266.768C221.146 274.807 214.295 272.411 198.086 272.411C181.876 272.411 173.006 271.883 175.256 264.286C177.507 256.69 185.203 235.418 192.489 228.759Z" fill="black"/>
<path d="M192.06 108.381C192.12 107.069 192.477 105.788 193.105 104.634C193.732 103.481 194.614 102.485 195.683 101.722C199.307 99.2337 206.349 92.8317 209.543 97.6431C212.738 102.455 211.378 107.352 210.956 110.579C210.461 114.328 210.454 122.585 201.749 122.585L192.06 108.381Z" fill="#FFD166"/>
<path opacity="0.2" d="M192.06 108.381C192.12 107.069 192.477 105.788 193.105 104.634C193.732 103.481 194.614 102.485 195.683 101.722C199.307 99.2337 206.349 92.8317 209.543 97.6431C212.738 102.455 211.378 107.352 210.956 110.579C210.461 114.328 210.454 122.585 201.749 122.585L192.06 108.381Z" fill="black"/>
<path d="M174.24 106.89C174.24 106.89 175.692 102.672 173.151 98.9696C170.61 95.267 166.234 86.5286 161.528 90.35C156.823 94.1714 156.427 99.59 155.701 102.976C154.856 106.936 151.985 115.278 160.162 118.096L174.24 106.89Z" fill="#FFD166"/>
<path opacity="0.2" d="M174.24 106.89C174.24 106.89 175.692 102.672 173.151 98.9696C170.61 95.267 166.234 86.5286 161.528 90.35C156.823 94.1714 156.427 99.59 155.701 102.976C154.856 106.936 151.985 115.278 160.162 118.096L174.24 106.89Z" fill="black"/>
<path opacity="0.2" d="M200.284 120.38L195.004 112.704C195.202 110.533 195.835 106.692 197.894 104.078C200.917 100.263 206.91 96.6001 208.567 100.118C210.421 103.986 210.038 113.061 200.284 120.38Z" fill="black"/>
<path opacity="0.2" d="M162.36 116.361L169.976 110.289C170.544 108.031 171.296 103.939 170.26 100.633C168.755 95.7949 164.399 90.1519 161.614 93.1813C158.552 96.5143 155.76 105.814 162.36 116.361Z" fill="black"/>
<path d="M139.986 204.609H139.161C139.047 204.607 138.936 204.576 138.838 204.519C138.74 204.461 138.659 204.379 138.602 204.281C138.545 204.183 138.514 204.071 138.512 203.958C138.511 203.844 138.539 203.732 138.593 203.632L140.923 199.488C141.656 198.19 142.165 196.777 142.428 195.31C145.121 180.13 145.127 148.958 157.667 143.718C171.151 138.081 188.509 141.434 195.908 149.149C198.553 152.071 200.686 155.418 202.217 159.049L205.867 163.141C205.928 163.209 205.973 163.289 205.998 163.376C206.024 163.464 206.029 163.556 206.014 163.645C205.999 163.735 205.963 163.82 205.91 163.894C205.858 163.968 205.789 164.029 205.709 164.072L205.372 164.257L208.012 169.913C208.061 170.021 208.076 170.14 208.058 170.257C208.04 170.373 207.988 170.482 207.909 170.569C207.83 170.657 207.727 170.719 207.613 170.749C207.499 170.779 207.378 170.775 207.266 170.738L207.148 170.692L208.23 176.81C208.25 176.94 208.228 177.073 208.166 177.189C208.105 177.305 208.007 177.398 207.888 177.454C207.769 177.51 207.635 177.526 207.506 177.499C207.377 177.472 207.261 177.404 207.174 177.305L207.095 177.213C208.181 186.063 207.669 195.036 205.583 203.705C199.98 226.904 191.486 268.306 164.34 268.306C144.811 268.306 139.92 239.187 140.019 217.803C139.923 217.898 139.8 217.961 139.666 217.984C139.533 218.007 139.396 217.989 139.273 217.931C139.151 217.874 139.049 217.78 138.982 217.662C138.914 217.545 138.885 217.409 138.897 217.275L139.484 212.054H138.923C138.821 212.057 138.719 212.037 138.626 211.994C138.533 211.951 138.451 211.887 138.387 211.807C138.323 211.727 138.278 211.633 138.257 211.532C138.235 211.432 138.238 211.328 138.263 211.229L139.986 204.609Z" fill="#FFD166"/>
<path opacity="0.2" d="M143.418 246.797C144.738 251.232 150.328 262.307 158.374 263.026C166.828 263.778 171.455 259.033 175.58 255.627C184.444 248.315 188.932 211.256 188.932 211.256L193.552 203.243L199.756 193.587L207.141 194.907C206.798 197.858 206.275 200.785 205.577 203.672C199.98 226.904 191.486 268.306 164.34 268.306C153.193 268.306 146.824 258.868 143.418 246.797Z" fill="black"/>
<path d="M199.736 156.191C199.736 156.191 198.931 146.14 202.151 140.906C205.372 135.672 207.148 107.332 183.632 104.342C159.258 101.24 152.836 124.597 152.46 132.649C152.084 140.701 154.169 150.562 154.169 150.562L182.655 161.227L199.736 156.191Z" fill="#FFD166"/>
<path d="M153.727 125.462C156.585 115.516 164.683 101.933 183.632 104.342C206.131 107.2 205.478 133.257 202.561 140.094C203.115 137.27 202.95 133.798 198.726 130.029C193.096 125 186.252 131.237 184.206 126.406C182.16 121.575 194.997 122.934 191.248 117.734C188.701 114.203 185.123 116.638 183.031 118.842C182.776 119.109 182.461 119.312 182.112 119.434C181.763 119.556 181.39 119.594 181.024 119.544C180.658 119.495 180.309 119.359 180.005 119.149C179.701 118.939 179.451 118.66 179.276 118.334C177.797 115.556 173.257 113.714 170.749 116.354C166.287 121.093 178.372 119.727 175.243 125.594C172.966 129.93 160.169 120.611 153.727 125.462Z" fill="#FFD166"/>
<path opacity="0.2" d="M153.727 125.462C156.585 115.516 164.683 101.933 183.632 104.342C206.131 107.2 205.478 133.257 202.561 140.094C203.115 137.27 202.95 133.798 198.726 130.029C193.096 125 186.252 131.237 184.206 126.406C182.16 121.575 194.997 122.934 191.248 117.734C188.701 114.203 185.123 116.638 183.031 118.842C182.776 119.109 182.461 119.312 182.112 119.434C181.763 119.556 181.39 119.594 181.024 119.544C180.658 119.495 180.309 119.359 180.005 119.149C179.701 118.939 179.451 118.66 179.276 118.334C177.797 115.556 173.257 113.714 170.749 116.354C166.287 121.093 178.372 119.727 175.243 125.594C172.966 129.93 160.169 120.611 153.727 125.462Z" fill="black"/>
<path d="M177.349 140.893C177.621 141.239 178.005 141.479 178.436 141.57C178.866 141.662 179.315 141.6 179.705 141.394C180.765 140.86 181.869 140.418 183.005 140.074C186.925 138.867 184.325 133.171 179.883 134.359C179.883 134.359 175.316 131.6 173.785 135.679C172.656 138.774 175.454 138.405 177.349 140.893Z" fill="#263238"/>
<g opacity="0.6">
<path d="M173.87 137.963L174.999 138.068C174.999 138.068 176.576 135.257 177.289 137.454C177.672 138.623 176.312 138.887 174.959 138.88C174.548 138.637 174.18 138.327 173.87 137.963Z" fill="black"/>
<path d="M180.49 137.745C181.546 135.692 182.648 138.721 182.648 138.721L184.668 138.86C184.49 139.184 184.236 139.46 183.929 139.665C182.391 139.586 179.725 139.23 180.49 137.745Z" fill="black"/>
</g>
<path opacity="0.2" d="M184.8 156.139C178.544 156.536 172.285 155.403 166.564 152.839C166.345 152.743 166.1 152.721 165.868 152.777C165.635 152.834 165.428 152.966 165.277 153.152C165.127 153.338 165.042 153.569 165.036 153.808C165.03 154.048 165.103 154.282 165.244 154.476C168.155 158.363 172.821 163.762 176.233 163.716C180.609 163.67 180.055 161.815 185.473 158.139C185.676 158.007 185.83 157.812 185.909 157.584C185.989 157.355 185.99 157.107 185.913 156.878C185.836 156.648 185.685 156.451 185.483 156.318C185.282 156.184 185.041 156.121 184.8 156.139Z" fill="black"/>
<path opacity="0.2" d="M182.661 167.9C182.661 167.9 189.261 181.384 180.8 197.184L185.031 190.881C185.118 190.751 185.239 190.647 185.381 190.58C185.522 190.513 185.68 190.486 185.835 190.502C185.991 190.517 186.14 190.575 186.266 190.669C186.391 190.762 186.489 190.888 186.549 191.033L186.74 191.502C186.766 191.556 186.81 191.601 186.864 191.628C186.918 191.655 186.98 191.663 187.039 191.65C187.098 191.638 187.152 191.607 187.191 191.56C187.23 191.514 187.253 191.456 187.255 191.396V185.568C187.25 185.398 187.295 185.23 187.385 185.085C187.476 184.94 187.606 184.826 187.762 184.755C187.917 184.685 188.089 184.661 188.257 184.689C188.426 184.716 188.582 184.792 188.707 184.908L188.971 185.146C189.016 185.184 189.071 185.207 189.13 185.211C189.188 185.215 189.246 185.2 189.296 185.168C189.345 185.136 189.382 185.088 189.402 185.033C189.422 184.978 189.424 184.918 189.407 184.862L187.163 178.618C187.106 178.456 187.098 178.281 187.141 178.114C187.183 177.948 187.274 177.798 187.402 177.683C187.53 177.568 187.688 177.493 187.858 177.468C188.028 177.443 188.202 177.469 188.357 177.542C188.409 177.565 188.468 177.571 188.523 177.559C188.579 177.547 188.629 177.518 188.667 177.475C188.705 177.433 188.729 177.38 188.735 177.323C188.741 177.266 188.729 177.209 188.7 177.16L186.529 173.582C186.459 173.468 186.416 173.339 186.404 173.205C186.392 173.071 186.412 172.937 186.461 172.812C186.511 172.687 186.588 172.575 186.688 172.486C186.788 172.396 186.908 172.331 187.037 172.296L187.262 172.236C187.309 172.223 187.352 172.197 187.386 172.16C187.419 172.124 187.442 172.08 187.453 172.032C187.463 171.983 187.46 171.933 187.443 171.887C187.427 171.84 187.399 171.799 187.361 171.767L182.661 167.9Z" fill="black"/>
<path d="M186.338 125.594C186.252 127.231 187.064 128.61 188.153 128.663C189.242 128.716 190.192 127.442 190.285 125.805C190.377 124.168 189.559 122.789 188.47 122.73C187.381 122.67 186.424 123.951 186.338 125.594Z" fill="#263238"/>
<path d="M169.66 123.376C169.567 125.02 170.379 126.393 171.468 126.452C172.557 126.511 173.514 125.231 173.6 123.594C173.686 121.957 172.88 120.578 171.791 120.519C170.702 120.459 169.745 121.74 169.66 123.376Z" fill="#263238"/>
<path d="M189.895 142.305C189.895 142.305 186.754 147.301 183.533 145.909C180.312 144.516 177.797 143.513 177.797 143.513C177.797 143.513 171.085 144.833 169.217 143.513C167.35 142.193 165.825 139.289 165.825 139.289C165.825 139.289 164.729 150.839 176.385 152.872C187.057 154.733 189.895 142.305 189.895 142.305Z" fill="#FFD166"/>
<path d="M189.895 142.305C189.895 142.305 186.754 147.301 183.533 145.909C180.312 144.516 177.797 143.513 177.797 143.513C177.797 143.513 171.085 144.833 169.217 143.513C167.35 142.193 165.825 139.289 165.825 139.289C165.825 139.289 164.729 150.839 176.385 152.872C187.057 154.733 189.895 142.305 189.895 142.305Z" fill="#263238"/>
<path d="M171.765 144.081C173.789 144.077 175.808 143.887 177.797 143.513C177.797 143.513 179.665 144.259 182.239 145.355C181.939 147.773 182.031 150.225 182.51 152.615C183.506 158.423 179.355 161.947 174.676 161.241C169.996 160.535 168.663 155.703 170.148 152.087C171.106 149.52 171.651 146.818 171.765 144.081Z" fill="#FFD166"/>
<path d="M171.765 144.081C173.789 144.077 175.808 143.887 177.797 143.513C177.797 143.513 179.665 144.259 182.239 145.355C181.939 147.773 182.031 150.225 182.51 152.615C183.506 158.423 179.355 161.947 174.676 161.241C169.996 160.535 168.663 155.703 170.148 152.087C171.106 149.52 171.651 146.818 171.765 144.081Z" fill="#FF5652"/>
<path d="M205.973 180.75C207.451 185.423 209.101 190.413 207.636 200.28C206.171 210.147 206.778 217.4 203.94 232.283C201.102 247.166 200.158 259.455 205.973 264.689C205.973 264.689 212.797 265.494 213.002 273.137C213.006 273.403 212.957 273.667 212.858 273.913C212.758 274.159 212.61 274.383 212.422 274.571C212.234 274.758 212.011 274.907 211.764 275.006C211.518 275.106 211.254 275.155 210.989 275.15H194.099C194.099 275.15 190.476 274.748 190.278 269.514C190.278 269.514 186.404 269.006 187.638 260.663L186.43 251.001C186.43 251.001 189.651 245.767 188.041 232.686C186.43 219.605 195.07 146.206 205.973 180.75Z" fill="#FFD166"/>
<path d="M138.455 275.15H136.62C136.625 273.198 136.925 271.257 137.511 269.395C137.704 268.679 138.066 268.021 138.567 267.474C139.471 266.696 140.791 268.002 139.887 268.794C138.673 269.824 138.481 272.873 138.455 275.15Z" fill="#FFD166"/>
<path d="M130.739 269.395C130.927 268.677 131.29 268.017 131.795 267.474C132.7 266.696 134.02 268.002 133.115 268.794C131.908 269.831 131.716 272.88 131.683 275.157H129.848C129.853 273.202 130.153 271.259 130.739 269.395Z" fill="#FFD166"/>
<path d="M124.39 272.51C124.65 271.406 125.026 270.333 125.512 269.309C125.811 268.586 126.291 267.952 126.905 267.468C127.901 266.808 128.839 268.418 127.842 269.072C128.099 268.9 127.783 269.131 127.69 269.27C127.478 269.581 127.288 269.908 127.123 270.246C126.485 271.626 126.04 273.088 125.803 274.589C125.08 274.105 124.574 273.36 124.39 272.51Z" fill="#FFD166"/>
<path d="M200.488 275.15H198.66C198.927 272.881 198.465 270.585 197.34 268.596C196.68 267.58 198.317 266.616 198.944 267.659C200.231 269.933 200.771 272.553 200.488 275.15Z" fill="#FFD166"/>
<path d="M207.669 275.15C207.666 274.646 207.626 274.143 207.55 273.645C207.191 271.611 206.278 269.715 204.91 268.167C204.131 267.263 205.445 265.943 206.23 266.847C208.282 269.132 209.452 272.073 209.53 275.143L207.669 275.15Z" fill="#FFD166"/>
<g opacity="0.5">
<path opacity="0.2" d="M138.455 275.15H136.62C136.625 273.198 136.925 271.257 137.511 269.395C137.704 268.679 138.066 268.021 138.567 267.474C139.471 266.696 140.791 268.002 139.887 268.794C138.673 269.824 138.481 272.873 138.455 275.15Z" fill="black"/>
<path opacity="0.2" d="M130.739 269.395C130.927 268.677 131.29 268.017 131.795 267.474C132.7 266.696 134.02 268.002 133.115 268.794C131.908 269.831 131.716 272.88 131.683 275.157H129.848C129.853 273.202 130.153 271.259 130.739 269.395Z" fill="black"/>
<path opacity="0.2" d="M124.39 272.51C124.65 271.406 125.026 270.333 125.512 269.309C125.811 268.586 126.291 267.952 126.905 267.468C127.901 266.808 128.839 268.418 127.842 269.072C128.099 268.9 127.783 269.131 127.69 269.27C127.478 269.581 127.288 269.908 127.123 270.246C126.485 271.626 126.04 273.088 125.803 274.589C125.08 274.105 124.574 273.36 124.39 272.51Z" fill="black"/>
<g opacity="0.2">
<path d="M200.488 275.15H198.66C198.927 272.881 198.465 270.585 197.34 268.596C196.68 267.58 198.317 266.616 198.944 267.659C200.231 269.933 200.771 272.553 200.488 275.15Z" fill="black"/>
<path d="M204.897 268.167C204.118 267.263 205.432 265.943 206.217 266.847C208.269 269.132 209.439 272.073 209.517 275.143H207.649C207.646 274.64 207.606 274.137 207.53 273.639" fill="black"/>
</g>
</g>
<path opacity="0.2" d="M200.99 264.26C199.125 263.602 197.103 263.528 195.195 264.049C195.099 264.071 194.997 264.06 194.908 264.018C194.819 263.975 194.747 263.903 194.704 263.814C194.661 263.725 194.649 263.624 194.671 263.527C194.693 263.431 194.748 263.345 194.825 263.283C196.291 262.174 198.719 261.165 201.425 263.521C201.523 263.578 201.594 263.673 201.623 263.783C201.651 263.893 201.635 264.01 201.577 264.108C201.519 264.206 201.425 264.277 201.315 264.306C201.205 264.334 201.088 264.318 200.99 264.26Z" fill="black"/>
<path d="M136.231 108.592C136.231 108.592 134.62 104.665 134.019 104.969C133.419 105.272 134.019 110.104 134.019 110.104L136.231 108.592Z" fill="#FFD166"/>
<path d="M142.672 100.626C142.298 99.8712 142.074 99.0509 142.012 98.2106C142.01 98.0969 141.973 97.9866 141.908 97.8936C141.843 97.8006 141.751 97.7291 141.645 97.6881C141.539 97.6471 141.423 97.6385 141.312 97.6633C141.202 97.6882 141.101 97.7454 141.022 97.8278C140.663 98.1961 140.383 98.6348 140.201 99.1165C140.02 99.5981 139.94 100.112 139.966 100.626H142.672Z" fill="#FFD166"/>
<path d="M148.223 99.3589C147.79 98.7722 147.536 98.0733 147.49 97.3459C147.48 97.2317 147.436 97.1232 147.364 97.0345C147.291 96.9458 147.194 96.8811 147.084 96.849C146.974 96.8168 146.857 96.8187 146.748 96.8544C146.639 96.8901 146.543 96.9579 146.474 97.0489C146.11 97.5081 145.853 98.0423 145.72 98.6129C145.588 99.1836 145.584 99.7765 145.708 100.349L148.223 99.3589Z" fill="#FFD166"/>
<path d="M155.76 104.956C155.756 104.118 155.984 103.295 156.42 102.58C156.483 102.486 156.515 102.376 156.513 102.264C156.511 102.151 156.474 102.042 156.408 101.951C156.341 101.86 156.249 101.792 156.142 101.756C156.036 101.72 155.921 101.717 155.813 101.748C155.127 101.934 154.532 102.36 154.135 102.949C153.739 103.538 153.568 104.251 153.655 104.956H155.76Z" fill="#FFD166"/>
<g opacity="0.5">
<path d="M136.231 108.592C136.231 108.592 134.62 104.665 134.019 104.969C133.419 105.272 134.019 110.104 134.019 110.104L136.231 108.592Z" fill="white"/>
<path d="M142.672 100.626C142.298 99.8712 142.074 99.0509 142.012 98.2106C142.009 98.0969 141.973 97.9866 141.908 97.8936C141.843 97.8006 141.751 97.7291 141.645 97.6881C141.539 97.6471 141.423 97.6385 141.312 97.6633C141.201 97.6882 141.1 97.7454 141.022 97.8278C140.662 98.1961 140.383 98.6348 140.201 99.1165C140.019 99.5981 139.939 100.112 139.966 100.626H142.672Z" fill="white"/>
<path d="M148.223 99.3589C147.79 98.7722 147.536 98.0733 147.49 97.3459C147.48 97.2317 147.436 97.1232 147.364 97.0345C147.291 96.9458 147.194 96.8811 147.084 96.849C146.974 96.8168 146.857 96.8187 146.748 96.8544C146.639 96.8901 146.543 96.9579 146.474 97.0489C146.11 97.5081 145.853 98.0423 145.72 98.6129C145.588 99.1836 145.584 99.7765 145.708 100.349L148.223 99.3589Z" fill="white"/>
<path d="M155.76 104.956C155.756 104.118 155.984 103.295 156.42 102.58C156.483 102.486 156.515 102.376 156.513 102.264C156.511 102.151 156.474 102.042 156.408 101.951C156.341 101.86 156.249 101.792 156.142 101.756C156.036 101.72 155.921 101.717 155.813 101.748C155.127 101.934 154.531 102.36 154.135 102.949C153.738 103.538 153.568 104.251 153.654 104.956H155.76Z" fill="white"/>
</g>
<g opacity="0.5">
<path d="M136.231 108.592C136.231 108.592 134.62 104.665 134.019 104.969C133.419 105.272 134.019 110.104 134.019 110.104L136.231 108.592Z" fill="black"/>
<path d="M142.672 100.626C142.298 99.8712 142.074 99.0509 142.012 98.2106C142.009 98.0969 141.973 97.9866 141.908 97.8936C141.843 97.8006 141.751 97.7291 141.645 97.6881C141.539 97.6471 141.423 97.6385 141.312 97.6633C141.201 97.6882 141.1 97.7454 141.022 97.8278C140.662 98.1961 140.383 98.6348 140.201 99.1165C140.019 99.5981 139.939 100.112 139.966 100.626H142.672Z" fill="black"/>
<path d="M148.223 99.3589C147.79 98.7722 147.536 98.0733 147.49 97.3459C147.48 97.2317 147.436 97.1232 147.364 97.0345C147.291 96.9458 147.194 96.8811 147.084 96.849C146.974 96.8168 146.857 96.8187 146.748 96.8544C146.639 96.8901 146.543 96.9579 146.474 97.0489C146.11 97.5081 145.853 98.0423 145.72 98.6129C145.588 99.1836 145.584 99.7765 145.708 100.349L148.223 99.3589Z" fill="black"/>
<path d="M155.76 104.956C155.756 104.118 155.984 103.295 156.42 102.58C156.483 102.486 156.515 102.376 156.513 102.264C156.511 102.151 156.474 102.042 156.408 101.951C156.341 101.86 156.249 101.792 156.142 101.756C156.036 101.72 155.921 101.717 155.813 101.748C155.127 101.934 154.531 102.36 154.135 102.949C153.738 103.538 153.568 104.251 153.654 104.956H155.76Z" fill="black"/>
</g>
<path opacity="0.2" d="M200.231 146.417C199.811 148.825 199.616 151.266 199.65 153.71C198.458 154.102 197.246 154.432 196.02 154.7C195.742 154.763 195.451 154.731 195.194 154.609C194.937 154.488 194.727 154.283 194.6 154.029C194.472 153.774 194.433 153.484 194.49 153.205C194.546 152.926 194.695 152.674 194.911 152.489C196.994 150.758 198.789 148.709 200.231 146.417Z" fill="black"/>
<path opacity="0.2" d="M153.476 146.879C152.977 143.854 152.638 140.805 152.46 137.745C153.981 141.002 155.983 144.013 158.4 146.674C158.589 146.889 158.701 147.161 158.716 147.447C158.732 147.733 158.651 148.016 158.486 148.25C158.321 148.484 158.083 148.656 157.808 148.737C157.534 148.819 157.24 148.806 156.974 148.701C156.153 148.38 155.352 148.008 154.579 147.585C155.074 151.677 155.984 157.795 157.258 160.726C159.271 165.346 159.238 168.276 159.238 168.276L153.509 168.877L147.84 159.221C149.16 154.185 150.942 149.823 153.476 146.879Z" fill="black"/>
<path opacity="0.2" d="M144.692 177.173C148.652 175.899 153.727 175.946 153.727 175.946L160.67 180.189C160.67 180.189 164.551 197.158 154.816 200.781C151.879 201.877 144.461 198.742 143.517 187.482C143.88 184.255 144.256 180.75 144.692 177.173Z" fill="black"/>
<path d="M157.265 164.045C157.265 164.045 162.208 170.843 160.189 183.086C159.917 184.666 159.067 186.087 157.804 187.073C156.541 188.059 154.956 188.539 153.358 188.419C149.219 188.122 143.992 187.35 142.369 185.383C138.485 180.48 136.55 174.314 136.937 168.071C137.339 160.224 137.742 137.474 137.742 137.474C137.742 137.474 138.877 127.415 136.897 122.182C134.917 116.948 131.703 109.899 133.914 108.091C134.273 107.79 134.689 107.566 135.137 107.431C135.585 107.296 136.056 107.253 136.521 107.305C136.749 107.322 136.977 107.285 137.188 107.198C137.398 107.111 137.586 106.976 137.735 106.803C137.885 106.631 137.992 106.426 138.048 106.205C138.104 105.984 138.108 105.753 138.059 105.53C137.617 103.451 137.366 100.758 138.778 100.039C139.865 99.5584 141.09 99.4903 142.223 99.8472C142.71 99.9836 143.223 99.9946 143.714 99.8792C144.206 99.7638 144.66 99.5257 145.035 99.1872C145.695 98.5866 146.797 98.1972 148.612 99.0684C149.301 99.3959 149.901 99.8849 150.361 100.494C150.82 101.103 151.126 101.814 151.252 102.566C151.303 102.797 151.406 103.012 151.554 103.196C151.702 103.38 151.89 103.527 152.105 103.625C152.319 103.724 152.553 103.771 152.789 103.764C153.025 103.756 153.255 103.694 153.463 103.583C153.954 103.26 154.539 103.11 155.124 103.156C155.71 103.203 156.264 103.443 156.697 103.84C159.113 106.051 157.905 110.882 156.295 114.301C154.684 117.72 155.687 133.441 153.655 139.262C151.622 145.084 152.836 159.419 157.265 164.045Z" fill="#FFD166"/>
<path d="M152.711 108.678C152.695 108.937 152.733 109.196 152.822 109.439C152.91 109.683 153.047 109.906 153.225 110.094C153.403 110.282 153.617 110.433 153.855 110.535C154.093 110.638 154.349 110.691 154.608 110.691C154.867 110.691 155.124 110.638 155.361 110.535C155.599 110.433 155.814 110.282 155.991 110.094C156.169 109.906 156.306 109.683 156.395 109.439C156.483 109.196 156.521 108.937 156.506 108.678C156.506 107.629 155.654 106.177 154.605 106.177C153.555 106.177 152.711 107.629 152.711 108.678Z" fill="#263238"/>
<path d="M146.388 103.477C146.47 103.758 146.61 104.018 146.8 104.241C146.99 104.463 147.225 104.643 147.49 104.768C147.754 104.892 148.042 104.959 148.335 104.965C148.627 104.97 148.918 104.913 149.186 104.797C150.203 104.428 150.592 103.563 150.064 102.118C149.536 100.672 148.282 99.8143 147.266 100.19C146.249 100.567 145.86 102.032 146.388 103.477Z" fill="#263238"/>
<path d="M135.716 113.219C136.917 114.169 138.356 113.463 139.227 112.341C140.098 111.219 140.131 110.11 138.93 109.153C137.729 108.196 136.033 107.741 135.148 108.863C134.724 109.542 134.548 110.348 134.652 111.143C134.755 111.937 135.131 112.671 135.716 113.219Z" fill="#263238"/>
<path d="M139.999 105.055C140.283 106.942 141.537 107.609 142.91 107.404C144.283 107.2 144.659 106.183 144.368 104.296C144.078 102.408 142.732 101.055 141.359 101.266C139.986 101.478 139.709 103.174 139.999 105.055Z" fill="#263238"/>
<path d="M150.302 116.143C151.345 116.183 154.143 116.447 154.143 114.533C154.143 112.619 150.117 112.975 149.114 110.936C148.111 108.896 144.685 108.045 143.781 110.936C142.877 113.826 138.204 114.434 139.986 116.876C141.768 119.318 145.451 115.952 150.302 116.143Z" fill="#263238"/>
<path opacity="0.3" d="M147.563 163.702C151.714 162.112 150.553 154.733 150.553 146.179C150.553 128.735 154.651 119.898 146.263 120.36C137.874 120.822 141.841 137.289 141.517 146.417C141.194 155.545 138.772 167.075 147.563 163.702Z" fill="white"/>
<path d="M145.933 136.88C146.692 136.926 148.724 137.586 148.724 135.672C148.724 133.758 143.999 134.161 143.794 135.672C143.59 137.184 145.319 136.84 145.933 136.88Z" fill="#263238"/>
<path d="M45.8964 268.715C44.6446 269.862 43.2132 270.796 41.6592 271.48C43.2855 271.232 44.946 271.333 46.53 271.777C45.1482 272.341 43.6572 272.587 42.1674 272.497C43.1169 272.701 44.015 273.096 44.8074 273.658L38.8674 274.232C38.7672 273.951 38.7289 273.652 38.7551 273.355C38.7813 273.057 38.8714 272.769 39.0192 272.51C40.1544 270.576 43.89 269.296 45.8964 268.715Z" fill="#FFD166"/>
<path opacity="0.7" d="M45.8964 268.715C44.6446 269.862 43.2132 270.796 41.6592 271.48C43.2855 271.232 44.946 271.333 46.53 271.777C45.1482 272.341 43.6572 272.587 42.1674 272.497C43.1169 272.701 44.015 273.096 44.8074 273.658L38.8674 274.232C38.7672 273.951 38.7289 273.652 38.7551 273.355C38.7813 273.057 38.8714 272.769 39.0192 272.51C40.1544 270.576 43.89 269.296 45.8964 268.715Z" fill="white"/>
<path d="M55.0506 267.837C56.6462 268.635 58.0665 269.743 59.2284 271.097C57.8301 270.838 56.3906 270.908 55.0242 271.302L60.1326 271.962C59.0054 272.108 57.9681 272.654 57.2088 273.5C58.5944 273.084 60.0617 273.018 61.479 273.308C61.9875 273.454 62.5143 273.525 63.0432 273.52C63.3087 273.517 63.5673 273.434 63.7851 273.282C64.003 273.13 64.1699 272.916 64.2642 272.668C64.3397 272.234 64.24 271.788 63.987 271.427C62.1984 268.385 58.2384 267.923 55.0506 267.837Z" fill="#FFD166"/>
<path opacity="0.2" d="M55.0506 267.837C56.6462 268.635 58.0665 269.743 59.2284 271.097C57.8301 270.838 56.3906 270.908 55.0242 271.302L60.1326 271.962C59.0054 272.108 57.9681 272.654 57.2088 273.5C58.5944 273.084 60.0617 273.018 61.479 273.308C61.9875 273.454 62.5143 273.525 63.0432 273.52C63.3087 273.517 63.5673 273.434 63.7851 273.282C64.003 273.13 64.1699 272.916 64.2642 272.668C64.3397 272.234 64.24 271.788 63.987 271.427C62.1984 268.385 58.2384 267.923 55.0506 267.837Z" fill="white"/>
<path d="M81.1405 268.451C79.8903 269.6 78.4585 270.534 76.9032 271.216C78.5298 270.967 80.1911 271.07 81.774 271.52C80.3917 272.082 78.9007 272.325 77.4114 272.232C78.3613 272.439 79.2594 272.837 80.0514 273.401L74.1114 273.975C74.0112 273.694 73.9729 273.394 73.9991 273.097C74.0253 272.8 74.1154 272.512 74.2632 272.252C75.3984 270.312 79.1341 269.031 81.1405 268.451Z" fill="#FFD166"/>
<path opacity="0.2" d="M81.1405 268.451C79.8903 269.6 78.4585 270.534 76.9032 271.216C78.5298 270.967 80.1911 271.07 81.774 271.52C80.3917 272.082 78.9007 272.325 77.4114 272.232C78.3613 272.439 79.2594 272.837 80.0514 273.401L74.1114 273.975C74.0112 273.694 73.9729 273.394 73.9991 273.097C74.0253 272.8 74.1154 272.512 74.2632 272.252C75.3984 270.312 79.1341 269.031 81.1405 268.451Z" fill="white"/>
<path d="M64.1455 258.445C62.9839 252.934 58.5553 249.595 54.0409 246.235C56.7865 250.941 60.0139 255.257 61.4659 260.518C59.4809 257.725 56.9534 255.361 54.0343 253.568C54.0343 253.568 58.2055 261.666 59.8027 263.237C56.5361 259.855 52.2345 257.66 47.5795 257C56.3245 262.808 59.4595 268.22 60.6277 271.474C60.9146 272.233 61.4281 272.886 62.0987 273.345C62.7692 273.803 63.5644 274.043 64.3765 274.034L73.6165 273.975C74.429 273.967 75.2194 273.71 75.8806 273.238C76.5418 272.765 77.0417 272.101 77.3125 271.335C78.9361 266.979 81.7543 263.23 85.9453 261.085C82.4209 262.069 79.4575 262.781 77.3653 265.765C78.6853 261.409 80.9161 258.881 85.0807 257.046C81.2131 257.673 77.3983 259.105 75.8407 262.689C75.9931 260.66 76.5872 258.689 77.5814 256.914C78.5755 255.139 79.9457 253.603 81.5959 252.413C78.2959 252.914 75.1015 255.271 74.4679 258.564C74.3557 254.182 74.8243 249.76 77.2135 246.09C75.6116 247.155 74.2506 248.544 73.2184 250.167C72.1862 251.791 71.5057 253.612 71.2207 255.515C70.1845 251.733 69.6763 246.215 65.2807 241.272C66.7745 245.55 67.3041 250.104 66.8317 254.611C66.4555 252.307 63.0103 246.46 59.7169 244.328C59.6839 244.348 64.4953 252.914 64.1455 258.445Z" fill="#FFD166"/>
<g opacity="0.6">
<path opacity="0.7" d="M64.1455 258.445C62.9839 252.934 58.5553 249.595 54.0409 246.235C56.7865 250.941 60.0139 255.257 61.4659 260.518C59.4809 257.725 56.9534 255.361 54.0343 253.568C54.0343 253.568 58.2055 261.666 59.8027 263.237C56.5361 259.855 52.2345 257.66 47.5795 257C56.3245 262.808 59.4595 268.22 60.6277 271.474C60.9146 272.233 61.4281 272.886 62.0987 273.345C62.7692 273.803 63.5644 274.043 64.3765 274.034L73.6165 273.975C74.429 273.967 75.2194 273.71 75.8806 273.238C76.5418 272.765 77.0417 272.101 77.3125 271.335C78.9361 266.979 81.7543 263.23 85.9453 261.085C82.4209 262.069 79.4575 262.781 77.3653 265.765C78.6853 261.409 80.9161 258.881 85.0807 257.046C81.2131 257.673 77.3983 259.105 75.8407 262.689C75.9931 260.66 76.5872 258.689 77.5814 256.914C78.5755 255.139 79.9457 253.603 81.5959 252.413C78.2959 252.914 75.1015 255.271 74.4679 258.564C74.3557 254.182 74.8243 249.76 77.2135 246.09C75.6116 247.155 74.2506 248.544 73.2184 250.167C72.1862 251.791 71.5057 253.612 71.2207 255.515C70.1845 251.733 69.6763 246.215 65.2807 241.272C66.7745 245.55 67.3041 250.104 66.8317 254.611C66.4555 252.307 63.0103 246.46 59.7169 244.328C59.6839 244.348 64.4953 252.914 64.1455 258.445Z" fill="white"/>
</g>
<path d="M46.992 258.445C45.8304 252.934 41.4018 249.595 36.8808 246.235C39.633 250.941 42.8604 255.257 44.3058 260.518C42.3227 257.723 39.7948 255.359 36.8742 253.568C36.8742 253.568 41.0454 261.666 42.6426 263.237C39.3778 259.856 35.0787 257.662 30.426 257C39.171 262.808 42.306 268.22 43.4742 271.474C43.7611 272.233 44.2746 272.886 44.9452 273.345C45.6158 273.803 46.411 274.043 47.223 274.034L56.463 273.975C57.2755 273.967 58.066 273.71 58.7271 273.238C59.3883 272.765 59.8882 272.101 60.159 271.335C61.7826 266.979 64.6008 263.23 68.7918 261.085C65.2674 262.069 62.304 262.781 60.2118 265.765C61.5318 261.409 63.7626 258.881 67.9272 257.046C64.0596 257.673 60.2448 259.105 58.6872 262.689C58.8422 260.66 59.4381 258.689 60.4333 256.915C61.4284 255.14 62.7989 253.603 64.449 252.413C61.149 252.914 57.9546 255.271 57.3144 258.564C57.2088 254.182 57.6774 249.76 60.0666 246.09C58.4638 247.155 57.1018 248.543 56.0685 250.167C55.0352 251.79 54.3534 253.612 54.0672 255.515C53.0376 251.733 52.5294 246.215 48.1272 241.272C49.617 245.55 50.1465 250.104 49.6782 254.611C49.302 252.307 45.8568 246.46 42.5634 244.328C42.5304 244.348 47.3418 252.914 46.992 258.445Z" fill="#FFD166"/>
<path d="M37.8972 267.837C39.4918 268.637 40.9118 269.745 42.075 271.097C40.6768 270.838 39.2373 270.908 37.8708 271.302L42.9726 271.962C41.8479 272.11 40.8131 272.655 40.0554 273.5C41.4411 273.084 42.9083 273.018 44.3257 273.308C44.8341 273.454 45.361 273.525 45.8898 273.52C46.1554 273.517 46.414 273.434 46.6318 273.282C46.8496 273.13 47.0166 272.916 47.1108 272.668C47.1488 272.453 47.1432 272.232 47.0945 272.019C47.0458 271.806 46.9548 271.605 46.827 271.427C45.045 268.385 41.085 267.923 37.8972 267.837Z" fill="#FFD166"/>
<path d="M64.02 268.451C62.7698 269.6 61.3381 270.534 59.7828 271.216C61.4093 270.967 63.0706 271.07 64.6536 271.52C63.2711 272.081 61.7802 272.324 60.291 272.232C61.2411 272.439 62.1393 272.836 62.931 273.401L56.991 273.975C56.889 273.694 56.8497 273.394 56.8759 273.097C56.9022 272.799 56.9932 272.511 57.1428 272.252C58.245 270.312 61.974 269.031 64.02 268.451Z" fill="#FFD166"/>
<g opacity="0.6">
<path d="M46.992 258.445C45.8304 252.934 41.4018 249.595 36.8808 246.235C39.633 250.941 42.8604 255.257 44.3058 260.518C42.3227 257.723 39.7948 255.359 36.8742 253.568C36.8742 253.568 41.0454 261.666 42.6426 263.237C39.3778 259.856 35.0787 257.662 30.426 257C39.171 262.808 42.306 268.22 43.4742 271.474C43.7611 272.233 44.2746 272.886 44.9452 273.345C45.6158 273.803 46.411 274.043 47.223 274.034L56.463 273.975C57.2755 273.967 58.066 273.71 58.7271 273.238C59.3883 272.765 59.8882 272.101 60.159 271.335C61.7826 266.979 64.6008 263.23 68.7918 261.085C65.2674 262.069 62.304 262.781 60.2118 265.765C61.5318 261.409 63.7626 258.881 67.9272 257.046C64.0596 257.673 60.2448 259.105 58.6872 262.689C58.8422 260.66 59.4381 258.689 60.4333 256.915C61.4284 255.14 62.7989 253.603 64.449 252.413C61.149 252.914 57.9546 255.271 57.3144 258.564C57.2088 254.182 57.6774 249.76 60.0666 246.09C58.4638 247.155 57.1018 248.543 56.0685 250.167C55.0352 251.79 54.3534 253.612 54.0672 255.515C53.0376 251.733 52.5294 246.215 48.1272 241.272C49.617 245.55 50.1465 250.104 49.6782 254.611C49.302 252.307 45.8568 246.46 42.5634 244.328C42.5304 244.348 47.3418 252.914 46.992 258.445Z" fill="white"/>
<path d="M37.8972 267.837C39.4918 268.637 40.9118 269.745 42.075 271.097C40.6768 270.838 39.2373 270.908 37.8708 271.302L42.9726 271.962C41.8479 272.11 40.8131 272.655 40.0554 273.5C41.4411 273.084 42.9083 273.018 44.3257 273.308C44.8341 273.454 45.361 273.525 45.8898 273.52C46.1554 273.517 46.414 273.434 46.6318 273.282C46.8496 273.13 47.0166 272.916 47.1108 272.668C47.1488 272.453 47.1432 272.232 47.0945 272.019C47.0458 271.806 46.9548 271.605 46.827 271.427C45.045 268.385 41.085 267.923 37.8972 267.837Z" fill="white"/>
<path d="M64.02 268.451C62.7698 269.6 61.3381 270.534 59.7828 271.216C61.4093 270.967 63.0706 271.07 64.6536 271.52C63.2711 272.081 61.7802 272.324 60.291 272.232C61.2411 272.439 62.1393 272.836 62.931 273.401L56.991 273.975C56.889 273.694 56.8497 273.394 56.8759 273.097C56.9022 272.799 56.9932 272.511 57.1428 272.252C58.245 270.312 61.974 269.031 64.02 268.451Z" fill="white"/>
</g>
<path d="M273.398 250.169C274.595 250.77 275.661 251.602 276.533 252.618C275.484 252.423 274.404 252.475 273.379 252.769L277.213 253.278C276.368 253.38 275.588 253.783 275.015 254.413C276.056 254.099 277.158 254.047 278.223 254.261C278.603 254.371 278.996 254.426 279.391 254.426C279.593 254.421 279.788 254.355 279.952 254.237C280.115 254.12 280.24 253.955 280.309 253.766C280.339 253.605 280.336 253.439 280.299 253.279C280.263 253.119 280.194 252.968 280.097 252.835C278.764 250.585 275.794 250.235 273.398 250.169Z" fill="#FFD166"/>
<path opacity="0.2" d="M273.398 250.169C274.595 250.77 275.661 251.602 276.533 252.618C275.484 252.423 274.404 252.475 273.379 252.769L277.213 253.278C276.368 253.38 275.588 253.783 275.015 254.413C276.056 254.099 277.158 254.047 278.223 254.261C278.603 254.371 278.996 254.426 279.391 254.426C279.593 254.421 279.788 254.355 279.952 254.237C280.115 254.12 280.24 253.955 280.309 253.766C280.339 253.605 280.336 253.439 280.299 253.279C280.263 253.119 280.194 252.968 280.097 252.835C278.764 250.585 275.794 250.235 273.398 250.169Z" fill="white"/>
<path d="M292.967 250.637C292.027 251.497 290.952 252.197 289.786 252.71C291.007 252.52 292.254 252.597 293.443 252.934C292.396 253.355 291.269 253.538 290.143 253.469C290.856 253.623 291.529 253.922 292.123 254.346L287.661 254.775C287.583 254.56 287.553 254.33 287.573 254.102C287.594 253.874 287.664 253.653 287.78 253.455C288.664 252.03 291.463 251.06 292.967 250.637Z" fill="#FFD166"/>
<path opacity="0.2" d="M292.967 250.637C292.027 251.497 290.952 252.197 289.786 252.71C291.007 252.52 292.254 252.597 293.443 252.934C292.396 253.355 291.269 253.538 290.143 253.469C290.856 253.623 291.529 253.922 292.123 254.346L287.661 254.775C287.583 254.56 287.553 254.33 287.573 254.102C287.594 253.874 287.664 253.653 287.78 253.455C288.664 252.03 291.463 251.06 292.967 250.637Z" fill="white"/>
<path d="M280.223 243.14C279.352 239.008 276.025 236.5 272.639 233.986C274.699 237.517 277.127 240.751 278.21 244.691C276.721 242.599 274.827 240.828 272.639 239.483C272.639 239.483 275.768 245.555 276.962 246.743C274.514 244.207 271.287 242.562 267.795 242.071C274.355 246.427 276.685 250.505 277.583 252.928C277.8 253.496 278.185 253.985 278.688 254.328C279.19 254.672 279.786 254.853 280.394 254.848L287.338 254.795C287.946 254.787 288.538 254.593 289.033 254.239C289.529 253.885 289.904 253.388 290.11 252.815C291.216 249.527 293.527 246.779 296.578 245.126C293.938 245.866 291.713 246.4 290.129 248.638C290.496 247.162 291.214 245.798 292.221 244.66C293.229 243.522 294.497 242.645 295.918 242.104C293.02 242.566 290.156 243.648 288.968 246.334C289.083 244.812 289.529 243.334 290.274 242.003C291.02 240.671 292.047 239.519 293.284 238.625C290.803 239.002 288.42 240.77 287.938 243.245C287.859 239.945 288.209 236.645 290.004 233.893C288.801 234.69 287.779 235.73 287.004 236.947C286.229 238.163 285.717 239.529 285.503 240.955C284.731 238.124 284.348 233.986 281.048 230.276C282.166 233.486 282.565 236.901 282.216 240.282C281.932 238.553 279.345 234.164 276.877 232.567C276.877 232.58 280.5 238.982 280.223 243.14Z" fill="#FFD166"/>
<g opacity="0.6">
<path opacity="0.7" d="M280.223 243.14C279.352 239.008 276.025 236.5 272.639 233.986C274.699 237.517 277.127 240.751 278.21 244.691C276.721 242.599 274.827 240.828 272.639 239.483C272.639 239.483 275.768 245.555 276.962 246.743C274.514 244.207 271.287 242.562 267.795 242.071C274.355 246.427 276.685 250.505 277.583 252.928C277.8 253.496 278.185 253.985 278.688 254.328C279.19 254.672 279.786 254.853 280.394 254.848L287.338 254.795C287.946 254.787 288.538 254.593 289.033 254.239C289.529 253.885 289.904 253.388 290.11 252.815C291.216 249.527 293.527 246.779 296.578 245.126C293.938 245.866 291.713 246.4 290.129 248.638C290.496 247.162 291.214 245.798 292.221 244.66C293.229 243.522 294.497 242.645 295.918 242.104C293.02 242.566 290.156 243.648 288.968 246.334C289.083 244.812 289.529 243.334 290.274 242.003C291.02 240.671 292.047 239.519 293.284 238.625C290.803 239.002 288.42 240.77 287.938 243.245C287.859 239.945 288.209 236.645 290.004 233.893C288.801 234.69 287.779 235.73 287.004 236.947C286.229 238.163 285.717 239.529 285.503 240.955C284.731 238.124 284.348 233.986 281.048 230.276C282.166 233.486 282.565 236.901 282.216 240.282C281.932 238.553 279.345 234.164 276.877 232.567C276.877 232.58 280.5 238.982 280.223 243.14Z" fill="white"/>
</g>
<path d="M267.359 243.14C266.488 239.008 263.162 236.5 259.776 233.986C261.835 237.517 264.257 240.751 265.346 244.691C263.857 242.597 261.96 240.826 259.769 239.483C259.769 239.483 262.898 245.555 264.099 246.743C261.65 244.207 258.423 242.562 254.932 242.071C261.492 246.427 263.822 250.505 264.719 252.928C264.936 253.496 265.322 253.985 265.824 254.328C266.327 254.672 266.922 254.853 267.531 254.848L274.468 254.795C275.077 254.788 275.67 254.595 276.167 254.241C276.664 253.887 277.04 253.389 277.246 252.815C278.353 249.527 280.664 246.779 283.714 245.126C281.074 245.866 278.85 246.4 277.266 248.638C277.631 247.163 278.348 245.798 279.355 244.661C280.361 243.523 281.628 242.646 283.048 242.104C280.15 242.566 277.292 243.648 276.104 246.334C276.219 244.812 276.665 243.334 277.411 242.003C278.156 240.671 279.184 239.519 280.421 238.625C277.939 239.002 275.55 240.77 275.075 243.245C274.996 239.945 275.345 236.645 277.141 233.893C275.938 234.69 274.916 235.73 274.141 236.947C273.365 238.163 272.854 239.529 272.639 240.955C271.867 238.124 271.484 233.986 268.184 230.276C269.303 233.486 269.7 236.902 269.346 240.282C269.069 238.553 266.482 234.164 264.013 232.567C264 232.58 267.617 238.982 267.359 243.14Z" fill="#FFD166"/>
<path d="M260.535 250.169C261.73 250.772 262.796 251.604 263.67 252.618C262.621 252.423 261.541 252.475 260.515 252.769L264.343 253.278C263.501 253.382 262.723 253.785 262.152 254.413C263.192 254.099 264.294 254.047 265.36 254.261C265.739 254.372 266.133 254.427 266.528 254.426C266.729 254.421 266.925 254.355 267.088 254.237C267.252 254.12 267.376 253.955 267.445 253.766C267.474 253.605 267.47 253.439 267.434 253.279C267.398 253.119 267.33 252.969 267.234 252.835C265.894 250.585 262.924 250.235 260.535 250.169Z" fill="#FFD166"/>
<path d="M280.104 250.637C279.164 251.497 278.089 252.197 276.923 252.71C278.144 252.52 279.391 252.597 280.579 252.934C279.533 253.355 278.405 253.537 277.279 253.469C277.992 253.623 278.666 253.922 279.259 254.346L274.798 254.775C274.717 254.561 274.686 254.33 274.707 254.102C274.727 253.873 274.799 253.652 274.916 253.455C275.801 252.03 278.593 251.06 280.104 250.637Z" fill="#FFD166"/>
<g opacity="0.6">
<path d="M267.359 243.14C266.488 239.008 263.162 236.5 259.776 233.986C261.835 237.517 264.257 240.751 265.346 244.691C263.857 242.597 261.96 240.826 259.769 239.483C259.769 239.483 262.898 245.555 264.099 246.743C261.65 244.207 258.423 242.562 254.932 242.071C261.492 246.427 263.822 250.505 264.719 252.928C264.936 253.496 265.322 253.985 265.824 254.328C266.327 254.672 266.922 254.853 267.531 254.848L274.468 254.795C275.077 254.788 275.67 254.595 276.167 254.241C276.664 253.887 277.04 253.389 277.246 252.815C278.353 249.527 280.664 246.779 283.714 245.126C281.074 245.866 278.85 246.4 277.266 248.638C277.631 247.163 278.348 245.798 279.355 244.661C280.361 243.523 281.628 242.646 283.048 242.104C280.15 242.566 277.292 243.648 276.104 246.334C276.219 244.812 276.665 243.334 277.411 242.003C278.156 240.671 279.184 239.519 280.421 238.625C277.939 239.002 275.55 240.77 275.075 243.245C274.996 239.945 275.345 236.645 277.141 233.893C275.938 234.69 274.916 235.73 274.141 236.947C273.365 238.163 272.854 239.529 272.639 240.955C271.867 238.124 271.484 233.986 268.184 230.276C269.303 233.486 269.7 236.902 269.346 240.282C269.069 238.553 266.482 234.164 264.013 232.567C264 232.58 267.617 238.982 267.359 243.14Z" fill="white"/>
<path d="M260.535 250.169C261.73 250.772 262.796 251.604 263.67 252.618C262.621 252.423 261.541 252.475 260.515 252.769L264.343 253.278C263.501 253.382 262.723 253.785 262.152 254.413C263.192 254.099 264.294 254.047 265.36 254.261C265.739 254.372 266.133 254.427 266.528 254.426C266.729 254.421 266.925 254.355 267.088 254.237C267.252 254.12 267.376 253.955 267.445 253.766C267.474 253.605 267.47 253.439 267.434 253.279C267.398 253.119 267.33 252.969 267.234 252.835C265.894 250.585 262.924 250.235 260.535 250.169Z" fill="white"/>
<path d="M280.104 250.637C279.164 251.497 278.089 252.197 276.923 252.71C278.144 252.52 279.391 252.597 280.579 252.934C279.533 253.355 278.405 253.537 277.279 253.469C277.992 253.623 278.666 253.922 279.259 254.346L274.798 254.775C274.717 254.561 274.686 254.33 274.707 254.102C274.727 253.873 274.799 253.652 274.916 253.455C275.801 252.03 278.593 251.06 280.104 250.637Z" fill="white"/>
</g>
</svg>
